SplineFontDB: 3.0
FontName: CheyenneSans-ExtraLightItalic
FullName: Cheyenne Sans ExtraLight Italic
FamilyName: Cheyenne Sans ExtraLight
Weight: Extra-Light
Version: 1.000; ttfautohint (v1.8.2)
ItalicAngle: -8
UnderlinePosition: -200
UnderlineWidth: 50
Ascent: 800
Descent: 200
InvalidEm: 0
sfntRevision: 0x00010000
LayerCount: 2
Layer: 0 1 "Back" 1
Layer: 1 1 "Fore" 0
XUID: [1021 788 582120202 1648072]
StyleMap: 0x0001
FSType: 0
OS2Version: 3
OS2_WeightWidthSlopeOnly: 0
OS2_UseTypoMetrics: 0
CreationTime: 1513572760
ModificationTime: 1545430320
PfmFamily: 81
TTFWeight: 200
TTFWidth: 5
LineGap: 0
VLineGap: 0
Panose: 0 0 3 0 0 0 0 0 0 0
OS2TypoAscent: 743
OS2TypoAOffset: 0
OS2TypoDescent: -161
OS2TypoDOffset: 0
OS2TypoLinegap: 0
OS2WinAscent: 822
OS2WinAOffset: 0
OS2WinDescent: 178
OS2WinDOffset: 0
HheadAscent: 822
HheadAOffset: 0
HheadDescent: -178
HheadDOffset: 0
OS2SubXSize: 650
OS2SubYSize: 600
OS2SubXOff: 0
OS2SubYOff: 75
OS2SupXSize: 650
OS2SupYSize: 600
OS2SupXOff: 0
OS2SupYOff: 350
OS2StrikeYSize: 50
OS2StrikeYPos: 310
OS2CapHeight: 723
OS2XHeight: 517
OS2Vendor: 'IMPA'
OS2CodePages: 20000193.00000000
OS2UnicodeRanges: 00000007.00000000.00000000.00000000
Lookup: 1 0 0 "'aalt' Access All Alternates in Latin lookup 0" { "'aalt' Access All Alternates in Latin lookup 0 subtable"  } ['aalt' ('DFLT' <'dflt' > 'latn' <'AZE ' 'CAT ' 'CRT ' 'KAZ ' 'MOL ' 'ROM ' 'TAT ' 'TRK ' 'dflt' > ) ]
Lookup: 3 0 0 "'aalt' Access All Alternates in Latin lookup 1" { "'aalt' Access All Alternates in Latin lookup 1 subtable"  } ['aalt' ('DFLT' <'dflt' > 'latn' <'AZE ' 'CAT ' 'CRT ' 'KAZ ' 'MOL ' 'ROM ' 'TAT ' 'TRK ' 'dflt' > ) ]
Lookup: 6 0 0 "'ccmp' Glyph Composition/Decomposition in Latin lookup 2" { "'ccmp' Glyph Composition/Decomposition in Latin lookup 2 contextual 0"  "'ccmp' Glyph Composition/Decomposition in Latin lookup 2 contextual 1"  } ['ccmp' ('DFLT' <'dflt' > 'latn' <'AZE ' 'CAT ' 'CRT ' 'KAZ ' 'MOL ' 'ROM ' 'TAT ' 'TRK ' 'dflt' > ) ]

StartChar: .notdef
Encoding: 65536 -1 0
Width: 700
Flags: W
LayerCount: 2
Fore
SplineSet
663 805 m 2,0,-1
 531 -133 l 2,1,2
 529 -148 529 -148 520.5 -154.5 c 128,-1,3
 512 -161 512 -161 495 -161 c 2,4,-1
 59 -161 l 2,5,6
 44 -161 44 -161 39 -155.5 c 128,-1,7
 34 -150 34 -150 36 -137 c 2,8,-1
 168 803 l 2,9,10
 170 814 170 814 175.5 820 c 128,-1,11
 181 826 181 826 190 826 c 2,12,-1
 649 826 l 2,13,14
 666 826 666 826 663 805 c 2,0,-1
604.5 772.5 m 128,-1,16
 601 777 601 777 594 777 c 2,17,-1
 250 777 l 1,18,-1
 492 -57 l 1,19,-1
 607 760 l 2,20,15
 608 768 608 768 604.5 772.5 c 128,-1,16
96 -107 m 128,-1,22
 100 -112 100 -112 112 -112 c 2,23,-1
 447 -112 l 1,24,-1
 207 716 l 1,25,-1
 93 -92 l 2,26,21
 92 -102 92 -102 96 -107 c 128,-1,22
EndSplineSet
EndChar

StartChar: exclam
Encoding: 33 33 4
Width: 238
GlyphClass: 2
Flags: W
LayerCount: 2
Fore
SplineSet
118 162 m 1,0,-1
 72 162 l 1,1,-1
 135 723 l 1,2,-1
 213 723 l 1,3,-1
 118 162 l 1,0,-1
113 0 m 1,4,-1
 30 0 l 1,5,-1
 43 95 l 1,6,-1
 126 95 l 1,7,-1
 113 0 l 1,4,-1
EndSplineSet
EndChar

StartChar: quotedbl
Encoding: 34 34 5
Width: 388
GlyphClass: 2
Flags: W
LayerCount: 2
Fore
SplineSet
324 515 m 1,0,-1
 282 515 l 1,1,-1
 288 723 l 1,2,-1
 380 723 l 1,3,-1
 324 515 l 1,0,-1
169 515 m 1,4,-1
 127 515 l 1,5,-1
 133 723 l 1,6,-1
 225 723 l 1,7,-1
 169 515 l 1,4,-1
EndSplineSet
EndChar

StartChar: numbersign
Encoding: 35 35 6
Width: 593
GlyphClass: 2
Flags: W
LayerCount: 2
Fore
SplineSet
454 445 m 1,0,-1
 407 286 l 1,1,-1
 514 286 l 1,2,-1
 508 240 l 1,3,-1
 394 240 l 1,4,-1
 323 -1 l 1,5,-1
 278 6 l 1,6,-1
 347 240 l 1,7,-1
 193 240 l 1,8,-1
 122 -1 l 1,9,-1
 77 6 l 1,10,-1
 146 240 l 1,11,-1
 27 240 l 1,12,-1
 33 286 l 1,13,-1
 159 286 l 1,14,-1
 206 445 l 1,15,-1
 88 445 l 1,16,-1
 94 491 l 1,17,-1
 219 491 l 1,18,-1
 288 724 l 1,19,-1
 333 719 l 1,20,-1
 266 491 l 1,21,-1
 420 491 l 1,22,-1
 489 724 l 1,23,-1
 534 719 l 1,24,-1
 467 491 l 1,25,-1
 575 491 l 1,26,-1
 569 445 l 1,27,-1
 454 445 l 1,0,-1
407 445 m 1,28,-1
 253 445 l 1,29,-1
 206 286 l 1,30,-1
 360 286 l 1,31,-1
 407 445 l 1,28,-1
EndSplineSet
EndChar

StartChar: dollar
Encoding: 36 36 7
Width: 581
GlyphClass: 2
Flags: W
LayerCount: 2
Fore
SplineSet
480 80.5 m 128,-1,1
 449 40 449 40 399.5 16 c 128,-1,2
 350 -8 350 -8 291 -9 c 0,3,4
 285 -9 285 -9 282.5 -10.5 c 128,-1,5
 280 -12 280 -12 280 -17 c 2,6,-1
 270 -88 l 1,7,-1
 220 -88 l 1,8,-1
 231 -9 l 1,9,10
 144 -8 144 -8 90 22.5 c 128,-1,11
 36 53 36 53 2 116 c 1,12,-1
 52 152 l 1,13,14
 86 100 86 100 128.5 74.5 c 128,-1,15
 171 49 171 49 239 47 c 1,16,-1
 278 330 l 1,17,18
 199 361 199 361 157.5 390 c 128,-1,19
 116 419 116 419 100.5 454 c 128,-1,20
 85 489 85 489 92 538 c 0,21,22
 103 617 103 617 167 669 c 128,-1,23
 231 721 231 721 325 730 c 0,24,25
 335 732 335 732 336 739 c 2,26,-1
 344 798 l 1,27,-1
 393 798 l 1,28,-1
 384 731 l 1,29,30
 444 724 444 724 489 699.5 c 128,-1,31
 534 675 534 675 570 633 c 1,32,-1
 520 592 l 1,33,34
 500 622 500 622 464.5 643.5 c 128,-1,35
 429 665 429 665 385 672 c 1,36,-1
 382 672 l 2,37,38
 375 672 375 672 374 665 c 2,39,-1
 335 384 l 1,40,-1
 377 368 l 1,41,42
 457 332 457 332 492.5 285.5 c 128,-1,43
 528 239 528 239 518 171 c 0,44,0
 511 121 511 121 480 80.5 c 128,-1,1
330 674 m 1,45,46
 297 674 297 674 258.5 658.5 c 128,-1,47
 220 643 220 643 191.5 612.5 c 128,-1,48
 163 582 163 582 157 540 c 0,49,50
 151 500 151 500 171.5 472.5 c 128,-1,51
 192 445 192 445 218 431 c 128,-1,52
 244 417 244 417 288 398 c 1,53,-1
 330 674 l 1,45,46
400.5 83 m 128,-1,55
 446 118 446 118 453 170 c 0,56,57
 460 220 460 220 430.5 253 c 128,-1,58
 401 286 401 286 326 316 c 1,59,-1
 289 47 l 1,60,54
 355 48 355 48 400.5 83 c 128,-1,55
EndSplineSet
EndChar

StartChar: percent
Encoding: 37 37 8
Width: 890
GlyphClass: 2
Flags: W
LayerCount: 2
Fore
SplineSet
391.5 678.5 m 128,-1,1
 429 623 429 623 415 527 c 0,2,3
 401 430 401 430 348.5 375 c 128,-1,4
 296 320 296 320 223 320 c 0,5,6
 149 320 149 320 111 375 c 128,-1,7
 73 430 73 430 87 527 c 0,8,9
 96 591 96 591 123.5 638 c 128,-1,10
 151 685 151 685 192 709.5 c 128,-1,11
 233 734 233 734 281 734 c 0,12,0
 354 734 354 734 391.5 678.5 c 128,-1,1
194 -4 m 1,13,-1
 145 -4 l 1,14,-1
 736 731 l 1,15,-1
 784 731 l 1,16,-1
 194 -4 l 1,13,-1
317.5 405.5 m 128,-1,18
 355 452 355 452 365 527 c 0,19,20
 375 601 375 601 351 648 c 128,-1,21
 327 695 327 695 275 695 c 128,-1,22
 223 695 223 695 185.5 648 c 128,-1,23
 148 601 148 601 138 527 c 0,24,25
 127 452 127 452 151 405.5 c 128,-1,26
 175 359 175 359 227 359 c 0,27,17
 280 359 280 359 317.5 405.5 c 128,-1,18
786 349.5 m 128,-1,29
 823 294 823 294 810 198 c 0,30,31
 796 100 796 100 744 45 c 128,-1,32
 692 -10 692 -10 618 -10 c 128,-1,33
 544 -10 544 -10 506 45 c 128,-1,34
 468 100 468 100 482 198 c 0,35,36
 491 262 491 262 518.5 308.5 c 128,-1,37
 546 355 546 355 587 380 c 128,-1,38
 628 405 628 405 676 405 c 0,39,28
 749 405 749 405 786 349.5 c 128,-1,29
711 77.5 m 128,-1,41
 750 125 750 125 760 197 c 0,42,43
 770 270 770 270 745 317.5 c 128,-1,44
 720 365 720 365 669 365 c 0,45,46
 619 365 619 365 581 317 c 128,-1,47
 543 269 543 269 533 197 c 128,-1,48
 523 125 523 125 547.5 77.5 c 128,-1,49
 572 30 572 30 622 30 c 128,-1,40
 672 30 672 30 711 77.5 c 128,-1,41
EndSplineSet
EndChar

StartChar: ampersand
Encoding: 38 38 9
Width: 665
GlyphClass: 2
Flags: W
LayerCount: 2
Fore
SplineSet
432 715.5 m 128,-1,1
 472 697 472 697 492.5 662 c 128,-1,2
 513 627 513 627 507 582 c 0,3,4
 501 538 501 538 456.5 487.5 c 128,-1,5
 412 437 412 437 302 384 c 1,6,-1
 456 170 l 1,7,8
 483 198 483 198 513 252.5 c 128,-1,9
 543 307 543 307 556 378 c 1,10,-1
 615 378 l 1,11,12
 598 301 598 301 565.5 243.5 c 128,-1,13
 533 186 533 186 483 130 c 1,14,-1
 576 0 l 1,15,-1
 500 0 l 1,16,-1
 437 86 l 1,17,18
 323 -5 323 -5 203 -5 c 0,19,20
 105 -5 105 -5 56.5 46 c 128,-1,21
 8 97 8 97 20 182 c 0,22,23
 30 250 30 250 77.5 302 c 128,-1,24
 125 354 125 354 216 399 c 1,25,26
 177 448 177 448 160 491 c 128,-1,27
 143 534 143 534 150 580 c 0,28,29
 156 623 156 623 182.5 658 c 128,-1,30
 209 693 209 693 251 713.5 c 128,-1,31
 293 734 293 734 343 734 c 0,32,0
 392 734 392 734 432 715.5 c 128,-1,1
254.5 655 m 128,-1,34
 221 626 221 626 215 584 c 0,35,36
 210 545 210 545 226.5 507 c 128,-1,37
 243 469 243 469 263 442 c 2,38,-1
 277 424 l 1,39,40
 370 473 370 473 405 508.5 c 128,-1,41
 440 544 440 544 446 582 c 0,42,43
 453 634 453 634 421.5 659 c 128,-1,44
 390 684 390 684 340 684 c 0,45,33
 288 684 288 684 254.5 655 c 128,-1,34
137.5 281 m 128,-1,47
 96 237 96 237 89 185 c 0,48,49
 81 125 81 125 119.5 87 c 128,-1,50
 158 49 158 49 222 49 c 0,51,52
 269 49 269 49 319 70 c 128,-1,53
 369 91 369 91 410 127 c 1,54,-1
 244 358 l 1,55,46
 179 325 179 325 137.5 281 c 128,-1,47
EndSplineSet
EndChar

StartChar: quotesingle
Encoding: 39 39 10
Width: 245
GlyphClass: 2
Flags: W
LayerCount: 2
Fore
SplineSet
168 515 m 1,0,-1
 126 515 l 1,1,-1
 132 723 l 1,2,-1
 224 723 l 1,3,-1
 168 515 l 1,0,-1
EndSplineSet
EndChar

StartChar: parenleft
Encoding: 40 40 11
Width: 286
GlyphClass: 2
Flags: W
LayerCount: 2
Fore
SplineSet
201 505.5 m 128,-1,1
 153 390 153 390 137 277 c 0,2,3
 122 167 122 167 133.5 60 c 128,-1,4
 145 -47 145 -47 183 -161 c 1,5,-1
 141 -161 l 1,6,7
 90 -47 90 -47 71.5 55.5 c 128,-1,8
 53 158 53 158 70 278 c 0,9,10
 87 396 87 396 141.5 511 c 128,-1,11
 196 626 196 626 276 723 c 1,12,-1
 318 723 l 1,13,0
 249 621 249 621 201 505.5 c 128,-1,1
EndSplineSet
EndChar

StartChar: parenright
Encoding: 41 41 12
Width: 286
GlyphClass: 2
Flags: W
LayerCount: 2
Fore
SplineSet
115 56.5 m 128,-1,1
 163 172 163 172 179 285 c 0,2,3
 194 395 194 395 182.5 502 c 128,-1,4
 171 609 171 609 133 723 c 1,5,-1
 175 723 l 1,6,7
 226 609 226 609 244.5 506.5 c 128,-1,8
 263 404 263 404 246 284 c 0,9,10
 229 166 229 166 174.5 51 c 128,-1,11
 120 -64 120 -64 40 -161 c 1,12,-1
 -2 -161 l 1,13,0
 67 -59 67 -59 115 56.5 c 128,-1,1
EndSplineSet
EndChar

StartChar: asterisk
Encoding: 42 42 13
Width: 353
GlyphClass: 2
Flags: W
LayerCount: 2
Fore
SplineSet
211 538 m 1,0,-1
 115 414 l 1,1,-1
 76 442 l 1,2,-1
 182 556 l 1,3,-1
 64 592 l 1,4,-1
 86 636 l 1,5,-1
 198 590 l 1,6,-1
 209 723 l 1,7,-1
 262 723 l 1,8,-1
 236 590 l 1,9,-1
 363 641 l 1,10,-1
 371 597 l 1,11,-1
 244 557 l 1,12,-1
 316 448 l 1,13,-1
 270 417 l 1,14,-1
 211 538 l 1,0,-1
EndSplineSet
EndChar

StartChar: plus
Encoding: 43 43 14
Width: 541
GlyphClass: 2
Flags: W
LayerCount: 2
Fore
SplineSet
475 337 m 1,0,-1
 298 337 l 1,1,-1
 273 159 l 1,2,-1
 220 159 l 1,3,-1
 245 336 l 1,4,-1
 66 336 l 1,5,-1
 74 389 l 1,6,-1
 252 389 l 1,7,-1
 277 568 l 1,8,-1
 330 568 l 1,9,-1
 305 390 l 1,10,-1
 483 390 l 1,11,-1
 475 337 l 1,0,-1
EndSplineSet
EndChar

StartChar: comma
Encoding: 44 44 15
Width: 220
GlyphClass: 2
Flags: W
LayerCount: 2
Fore
SplineSet
49 -1 m 1,0,-1
 10 0 l 1,1,-1
 23 94 l 1,2,-1
 120 94 l 1,3,-1
 109 13 l 1,4,-1
 14 -118 l 1,5,-1
 -23 -118 l 1,6,-1
 49 -1 l 1,0,-1
EndSplineSet
Substitution2: "'tnum' Tabular Numbers in Latin lookup 23 subtable" comma.tf
Substitution2: "'aalt' Access All Alternates in Latin lookup 0 subtable" comma.tf
EndChar

StartChar: hyphen
Encoding: 45 45 16
Width: 377
GlyphClass: 2
Flags: W
LayerCount: 2
Fore
SplineSet
296 232 m 1,0,-1
 51 231 l 1,1,-1
 59 285 l 1,2,-1
 303 286 l 1,3,-1
 296 232 l 1,0,-1
EndSplineSet
EndChar

StartChar: period
Encoding: 46 46 17
Width: 206
GlyphClass: 2
Flags: W
LayerCount: 2
Fore
SplineSet
97 0 m 1,0,-1
 14 0 l 1,1,-1
 27 96 l 1,2,-1
 110 96 l 1,3,-1
 97 0 l 1,0,-1
EndSplineSet
Substitution2: "'tnum' Tabular Numbers in Latin lookup 23 subtable" period.tf
Substitution2: "'aalt' Access All Alternates in Latin lookup 0 subtable" period.tf
EndChar

StartChar: slash
Encoding: 47 47 18
Width: 333
GlyphClass: 2
Flags: W
LayerCount: 2
Fore
SplineSet
318 723 m 1,0,-1
 374 723 l 1,1,-1
 16 -50 l 1,2,-1
 -40 -50 l 1,3,-1
 318 723 l 1,0,-1
EndSplineSet
Substitution2: "'frac' Diagonal Fractions in Latin lookup 16 subtable" fraction
Substitution2: "'aalt' Access All Alternates in Latin lookup 0 subtable" fraction
EndChar

StartChar: zero
Encoding: 48 48 19
Width: 628
GlyphClass: 2
Flags: W
LayerCount: 2
Fore
SplineSet
499 691 m 128,-1,1
 552 649 552 649 574.5 565 c 128,-1,2
 597 481 597 481 580 360 c 128,-1,3
 563 239 563 239 517.5 156 c 128,-1,4
 472 73 472 73 407 31.5 c 128,-1,5
 342 -10 342 -10 266 -10 c 128,-1,6
 190 -10 190 -10 136.5 31.5 c 128,-1,7
 83 73 83 73 61 155.5 c 128,-1,8
 39 238 39 238 56 358 c 0,9,10
 73 480 73 480 119 564.5 c 128,-1,11
 165 649 165 649 230 691 c 128,-1,12
 295 733 295 733 371 733 c 0,13,0
 446 733 446 733 499 691 c 128,-1,1
425.5 125.5 m 128,-1,15
 487 202 487 202 510 360 c 0,16,17
 532 520 532 520 491.5 597.5 c 128,-1,18
 451 675 451 675 363 675 c 128,-1,19
 275 675 275 675 212 597 c 128,-1,20
 149 519 149 519 127 360 c 0,21,22
 105 202 105 202 146 125.5 c 128,-1,23
 187 49 187 49 276 49 c 0,24,14
 364 49 364 49 425.5 125.5 c 128,-1,15
EndSplineSet
Substitution2: "'onum' Oldstyle Figures in Latin lookup 24 subtable" zero.osf
Substitution2: "'tnum' Tabular Numbers in Latin lookup 23 subtable" zero.tf
Substitution2: "'frac' Diagonal Fractions in Latin lookup 17 subtable" zero.numr
Substitution2: "'dnom' Denominators in Latin lookup 15 subtable" zero.dnom
Substitution2: "'numr' Numerators in Latin lookup 14 subtable" zero.numr
Substitution2: "'sups' Superscript in Latin lookup 13 subtable" uni2070
Substitution2: "'sinf' Scientific Inferiors in Latin lookup 12 subtable" zero.subs
Substitution2: "'subs' Subscript in Latin lookup 11 subtable" zero.subs
AlternateSubs2: "'aalt' Access All Alternates in Latin lookup 1 subtable" zero.subs uni2070 zero.numr zero.dnom zero.tf zero.osf
EndChar

StartChar: one
Encoding: 49 49 20
Width: 376
GlyphClass: 2
Flags: W
LayerCount: 2
Fore
SplineSet
229 644 m 1,0,-1
 75 589 l 1,1,-1
 82 643 l 1,2,-1
 256 723 l 1,3,-1
 306 723 l 1,4,-1
 204 0 l 1,5,-1
 138 0 l 1,6,-1
 229 644 l 1,0,-1
EndSplineSet
Substitution2: "'onum' Oldstyle Figures in Latin lookup 24 subtable" one.osf
Substitution2: "'tnum' Tabular Numbers in Latin lookup 23 subtable" one.tf
Substitution2: "'frac' Diagonal Fractions in Latin lookup 17 subtable" one.numr
Substitution2: "'dnom' Denominators in Latin lookup 15 subtable" one.dnom
Substitution2: "'numr' Numerators in Latin lookup 14 subtable" one.numr
Substitution2: "'sups' Superscript in Latin lookup 13 subtable" uni00B9
Substitution2: "'sinf' Scientific Inferiors in Latin lookup 12 subtable" one.subs
Substitution2: "'subs' Subscript in Latin lookup 11 subtable" one.subs
AlternateSubs2: "'aalt' Access All Alternates in Latin lookup 1 subtable" one.subs uni00B9 one.numr one.dnom one.tf one.osf
EndChar

StartChar: two
Encoding: 50 50 21
Width: 562
GlyphClass: 2
Flags: W
LayerCount: 2
Fore
SplineSet
8 63 m 1,0,-1
 278 300 l 2,1,2
 373 382 373 382 413 431.5 c 128,-1,3
 453 481 453 481 460 535 c 0,4,5
 467 583 467 583 448 614 c 128,-1,6
 429 645 429 645 395.5 659 c 128,-1,7
 362 673 362 673 325 673 c 0,8,9
 271 673 271 673 220 648.5 c 128,-1,10
 169 624 169 624 132 572 c 1,11,-1
 81 595 l 1,12,13
 125 663 125 663 190 698 c 128,-1,14
 255 733 255 733 337 733 c 0,15,16
 399 733 399 733 445.5 710 c 128,-1,17
 492 687 492 687 514 642.5 c 128,-1,18
 536 598 536 598 527 536 c 0,19,20
 521 492 521 492 500.5 454.5 c 128,-1,21
 480 417 480 417 440 375 c 128,-1,22
 400 333 400 333 329 270 c 2,23,-1
 91 60 l 1,24,-1
 468 60 l 1,25,-1
 460 0 l 1,26,-1
 -1 0 l 1,27,-1
 8 63 l 1,0,-1
EndSplineSet
Substitution2: "'onum' Oldstyle Figures in Latin lookup 24 subtable" two.osf
Substitution2: "'tnum' Tabular Numbers in Latin lookup 23 subtable" two.tf
Substitution2: "'frac' Diagonal Fractions in Latin lookup 17 subtable" two.numr
Substitution2: "'dnom' Denominators in Latin lookup 15 subtable" two.dnom
Substitution2: "'numr' Numerators in Latin lookup 14 subtable" two.numr
Substitution2: "'sups' Superscript in Latin lookup 13 subtable" uni00B2
Substitution2: "'sinf' Scientific Inferiors in Latin lookup 12 subtable" two.subs
Substitution2: "'subs' Subscript in Latin lookup 11 subtable" two.subs
AlternateSubs2: "'aalt' Access All Alternates in Latin lookup 1 subtable" two.subs uni00B2 two.numr two.dnom two.tf two.osf
EndChar

StartChar: three
Encoding: 51 51 22
Width: 620
GlyphClass: 2
Flags: W
LayerCount: 2
Fore
SplineSet
217.5 702 m 128,-1,1
 286 733 286 733 362 733 c 0,2,3
 432 733 432 733 482 709 c 128,-1,4
 532 685 532 685 556.5 644 c 128,-1,5
 581 603 581 603 574 552 c 0,6,7
 557 434 557 434 408 385 c 1,8,9
 483 364 483 364 519 315 c 128,-1,10
 555 266 555 266 546 197 c 0,11,12
 538 139 538 139 498 91.5 c 128,-1,13
 458 44 458 44 393.5 17 c 128,-1,14
 329 -10 329 -10 247 -10 c 0,15,16
 162 -10 162 -10 106 18 c 128,-1,17
 50 46 50 46 17 111 c 1,18,-1
 76 136 l 1,19,20
 106 89 106 89 151.5 68.5 c 128,-1,21
 197 48 197 48 257 48 c 0,22,23
 348 48 348 48 406.5 89 c 128,-1,24
 465 130 465 130 474 195 c 0,25,26
 481 243 481 243 458 278.5 c 128,-1,27
 435 314 435 314 392.5 332 c 128,-1,28
 350 350 350 350 299 350 c 2,29,-1
 202 351 l 1,30,-1
 210 407 l 1,31,-1
 291 408 l 2,32,33
 344 408 344 408 391 426.5 c 128,-1,34
 438 445 438 445 468 477 c 128,-1,35
 498 509 498 509 503 549 c 0,36,37
 508 585 508 585 490.5 614 c 128,-1,38
 473 643 473 643 437.5 659.5 c 128,-1,39
 402 676 402 676 354 676 c 0,40,41
 294 676 294 676 247.5 654.5 c 128,-1,42
 201 633 201 633 164 589 c 1,43,-1
 113 613 l 1,44,0
 149 671 149 671 217.5 702 c 128,-1,1
EndSplineSet
Substitution2: "'onum' Oldstyle Figures in Latin lookup 24 subtable" three.osf
Substitution2: "'tnum' Tabular Numbers in Latin lookup 23 subtable" three.tf
Substitution2: "'frac' Diagonal Fractions in Latin lookup 17 subtable" three.numr
Substitution2: "'dnom' Denominators in Latin lookup 15 subtable" three.dnom
Substitution2: "'numr' Numerators in Latin lookup 14 subtable" three.numr
Substitution2: "'sups' Superscript in Latin lookup 13 subtable" uni00B3
Substitution2: "'sinf' Scientific Inferiors in Latin lookup 12 subtable" three.subs
Substitution2: "'subs' Subscript in Latin lookup 11 subtable" three.subs
AlternateSubs2: "'aalt' Access All Alternates in Latin lookup 1 subtable" three.subs uni00B3 three.numr three.dnom three.tf three.osf
EndChar

StartChar: four
Encoding: 52 52 23
Width: 615
GlyphClass: 2
Flags: W
LayerCount: 2
Fore
SplineSet
513 723 m 1,0,-1
 447 258 l 1,1,-1
 561 258 l 1,2,-1
 553 198 l 1,3,-1
 439 198 l 1,4,-1
 411 0 l 1,5,-1
 347 0 l 1,6,-1
 375 198 l 1,7,-1
 32 198 l 1,8,-1
 41 264 l 1,9,-1
 446 723 l 1,10,-1
 513 723 l 1,0,-1
380 258 m 1,11,-1
 432 625 l 1,12,-1
 107 258 l 1,13,-1
 380 258 l 1,11,-1
EndSplineSet
Substitution2: "'onum' Oldstyle Figures in Latin lookup 24 subtable" four.osf
Substitution2: "'tnum' Tabular Numbers in Latin lookup 23 subtable" four.tf
Substitution2: "'frac' Diagonal Fractions in Latin lookup 17 subtable" four.numr
Substitution2: "'dnom' Denominators in Latin lookup 15 subtable" four.dnom
Substitution2: "'numr' Numerators in Latin lookup 14 subtable" four.numr
Substitution2: "'sups' Superscript in Latin lookup 13 subtable" uni2074
Substitution2: "'sinf' Scientific Inferiors in Latin lookup 12 subtable" four.subs
Substitution2: "'subs' Subscript in Latin lookup 11 subtable" four.subs
AlternateSubs2: "'aalt' Access All Alternates in Latin lookup 1 subtable" four.subs uni2074 four.numr four.dnom four.tf four.osf
EndChar

StartChar: five
Encoding: 53 53 24
Width: 639
GlyphClass: 2
Flags: W
LayerCount: 2
Fore
SplineSet
598 723 m 1,0,-1
 584 665 l 1,1,-1
 227 665 l 1,2,-1
 169 399 l 1,3,4
 222 427 222 427 262.5 441 c 128,-1,5
 303 455 303 455 357 455 c 0,6,7
 422 455 422 455 472 432 c 128,-1,8
 522 409 522 409 548 360 c 128,-1,9
 574 311 574 311 563 237 c 0,10,11
 552 161 552 161 509.5 105 c 128,-1,12
 467 49 467 49 401.5 19.5 c 128,-1,13
 336 -10 336 -10 257 -10 c 0,14,15
 184 -10 184 -10 122.5 17 c 128,-1,16
 61 44 61 44 21 96 c 1,17,-1
 74 137 l 1,18,19
 116 90 116 90 154.5 68.5 c 128,-1,20
 193 47 193 47 255 47 c 0,21,22
 354 47 354 47 417.5 98.5 c 128,-1,23
 481 150 481 150 493 235 c 0,24,25
 504 315 504 315 460 356.5 c 128,-1,26
 416 398 416 398 340 398 c 0,27,28
 290 398 290 398 248 382 c 128,-1,29
 206 366 206 366 152 336 c 0,30,31
 146 332 146 332 144 332 c 0,32,33
 143 332 143 332 141.5 333.5 c 128,-1,34
 140 335 140 335 137 337 c 2,35,-1
 97 363 l 1,36,-1
 177 723 l 1,37,-1
 598 723 l 1,0,-1
EndSplineSet
Substitution2: "'onum' Oldstyle Figures in Latin lookup 24 subtable" five.osf
Substitution2: "'tnum' Tabular Numbers in Latin lookup 23 subtable" five.tf
Substitution2: "'frac' Diagonal Fractions in Latin lookup 17 subtable" five.numr
Substitution2: "'dnom' Denominators in Latin lookup 15 subtable" five.dnom
Substitution2: "'numr' Numerators in Latin lookup 14 subtable" five.numr
Substitution2: "'sups' Superscript in Latin lookup 13 subtable" uni2075
Substitution2: "'sinf' Scientific Inferiors in Latin lookup 12 subtable" five.subs
Substitution2: "'subs' Subscript in Latin lookup 11 subtable" five.subs
AlternateSubs2: "'aalt' Access All Alternates in Latin lookup 1 subtable" five.subs uni2075 five.numr five.dnom five.tf five.osf
EndChar

StartChar: six
Encoding: 54 54 25
Width: 602
GlyphClass: 2
Flags: W
LayerCount: 2
Fore
SplineSet
518 698.5 m 128,-1,1
 567 664 567 664 582 609 c 1,2,-1
 527 583 l 1,3,4
 502 629 502 629 472.5 652.5 c 128,-1,5
 443 676 443 676 384 676 c 0,6,7
 283 676 283 676 215 587.5 c 128,-1,8
 147 499 147 499 123 330 c 0,9,10
 119 302 119 302 118 288 c 1,11,12
 145 352 145 352 206 390.5 c 128,-1,13
 267 429 267 429 339 429 c 128,-1,14
 411 429 411 429 458 400 c 128,-1,15
 505 371 505 371 524 321.5 c 128,-1,16
 543 272 543 272 535 211 c 0,17,18
 526 144 526 144 487.5 94 c 128,-1,19
 449 44 449 44 391.5 17 c 128,-1,20
 334 -10 334 -10 266 -10 c 0,21,22
 143 -10 143 -10 87 85 c 128,-1,23
 31 180 31 180 55 352 c 0,24,25
 72 470 72 470 117.5 556 c 128,-1,26
 163 642 163 642 233 687.5 c 128,-1,27
 303 733 303 733 391 733 c 0,28,0
 469 733 469 733 518 698.5 c 128,-1,1
193 333 m 128,-1,30
 135 294 135 294 126 227 c 1,31,32
 129 137 129 137 167.5 92 c 128,-1,33
 206 47 206 47 275 47 c 0,34,35
 323 47 323 47 364 67.5 c 128,-1,36
 405 88 405 88 432 125 c 128,-1,37
 459 162 459 162 465 208 c 0,38,39
 471 253 471 253 457 290 c 128,-1,40
 443 327 443 327 409.5 349.5 c 128,-1,41
 376 372 376 372 327 372 c 0,42,29
 251 372 251 372 193 333 c 128,-1,30
EndSplineSet
Substitution2: "'onum' Oldstyle Figures in Latin lookup 24 subtable" six.osf
Substitution2: "'tnum' Tabular Numbers in Latin lookup 23 subtable" six.tf
Substitution2: "'frac' Diagonal Fractions in Latin lookup 17 subtable" six.numr
Substitution2: "'dnom' Denominators in Latin lookup 15 subtable" six.dnom
Substitution2: "'numr' Numerators in Latin lookup 14 subtable" six.numr
Substitution2: "'sups' Superscript in Latin lookup 13 subtable" uni2076
Substitution2: "'sinf' Scientific Inferiors in Latin lookup 12 subtable" six.subs
Substitution2: "'subs' Subscript in Latin lookup 11 subtable" six.subs
AlternateSubs2: "'aalt' Access All Alternates in Latin lookup 1 subtable" six.subs uni2076 six.numr six.dnom six.tf six.osf
EndChar

StartChar: seven
Encoding: 55 55 26
Width: 567
GlyphClass: 2
Flags: W
LayerCount: 2
Fore
SplineSet
587 723 m 1,0,-1
 577 658 l 1,1,2
 499 565 499 565 418.5 438 c 128,-1,3
 338 311 338 311 277 191.5 c 128,-1,4
 216 72 216 72 194 0 c 1,5,-1
 122 0 l 1,6,7
 149 78 149 78 202.5 189 c 128,-1,8
 256 300 256 300 333.5 425.5 c 128,-1,9
 411 551 411 551 504 665 c 1,10,-1
 85 665 l 1,11,-1
 94 723 l 1,12,-1
 587 723 l 1,0,-1
EndSplineSet
Substitution2: "'onum' Oldstyle Figures in Latin lookup 24 subtable" seven.osf
Substitution2: "'tnum' Tabular Numbers in Latin lookup 23 subtable" seven.tf
Substitution2: "'frac' Diagonal Fractions in Latin lookup 17 subtable" seven.numr
Substitution2: "'dnom' Denominators in Latin lookup 15 subtable" seven.dnom
Substitution2: "'numr' Numerators in Latin lookup 14 subtable" seven.numr
Substitution2: "'sups' Superscript in Latin lookup 13 subtable" uni2077
Substitution2: "'sinf' Scientific Inferiors in Latin lookup 12 subtable" seven.subs
Substitution2: "'subs' Subscript in Latin lookup 11 subtable" seven.subs
AlternateSubs2: "'aalt' Access All Alternates in Latin lookup 1 subtable" seven.subs uni2077 seven.numr seven.dnom seven.tf seven.osf
EndChar

StartChar: eight
Encoding: 56 56 27
Width: 614
GlyphClass: 2
Flags: W
LayerCount: 2
Fore
SplineSet
480.5 708 m 128,-1,1
 529 683 529 683 551 638 c 128,-1,2
 573 593 573 593 565 534 c 0,3,4
 550 429 550 429 428 366 c 1,5,6
 433 364 433 364 470.5 348.5 c 128,-1,7
 508 333 508 333 532.5 290.5 c 128,-1,8
 557 248 557 248 548 188 c 0,9,10
 540 128 540 128 500.5 83.5 c 128,-1,11
 461 39 461 39 398 14.5 c 128,-1,12
 335 -10 335 -10 256 -10 c 0,13,14
 137 -10 137 -10 75.5 40 c 128,-1,15
 14 90 14 90 26 180 c 0,16,17
 33 231 33 231 72.5 281 c 128,-1,18
 112 331 112 331 188 365 c 1,19,20
 151 379 151 379 117.5 416 c 128,-1,21
 84 453 84 453 94 527 c 0,22,23
 102 585 102 585 139.5 632 c 128,-1,24
 177 679 177 679 235.5 706 c 128,-1,25
 294 733 294 733 363 733 c 128,-1,0
 432 733 432 733 480.5 708 c 128,-1,1
266.5 657.5 m 128,-1,27
 225 639 225 639 198 606 c 128,-1,28
 171 573 171 573 165 532 c 0,29,30
 151 435 151 435 257 412 c 2,31,-1
 359 387 l 2,32,33
 377 383 377 383 409.5 405 c 128,-1,34
 442 427 442 427 468.5 463.5 c 128,-1,35
 495 500 495 500 500 537 c 0,36,37
 509 599 509 599 469.5 637.5 c 128,-1,38
 430 676 430 676 356 676 c 0,39,26
 308 676 308 676 266.5 657.5 c 128,-1,27
412 85 m 128,-1,41
 469 123 469 123 478 187 c 0,42,43
 485 237 485 237 463 267 c 128,-1,44
 441 297 441 297 386 310 c 2,45,-1
 254 342 l 2,46,47
 235 347 235 347 198 326.5 c 128,-1,48
 161 306 161 306 130 268 c 128,-1,49
 99 230 99 230 93 186 c 0,50,51
 84 120 84 120 129.5 83.5 c 128,-1,52
 175 47 175 47 267 47 c 0,53,40
 355 47 355 47 412 85 c 128,-1,41
EndSplineSet
Substitution2: "'onum' Oldstyle Figures in Latin lookup 24 subtable" eight.osf
Substitution2: "'tnum' Tabular Numbers in Latin lookup 23 subtable" eight.tf
Substitution2: "'frac' Diagonal Fractions in Latin lookup 17 subtable" eight.numr
Substitution2: "'dnom' Denominators in Latin lookup 15 subtable" eight.dnom
Substitution2: "'numr' Numerators in Latin lookup 14 subtable" eight.numr
Substitution2: "'sups' Superscript in Latin lookup 13 subtable" uni2078
Substitution2: "'sinf' Scientific Inferiors in Latin lookup 12 subtable" eight.subs
Substitution2: "'subs' Subscript in Latin lookup 11 subtable" eight.subs
AlternateSubs2: "'aalt' Access All Alternates in Latin lookup 1 subtable" eight.subs uni2078 eight.numr eight.dnom eight.tf eight.osf
EndChar

StartChar: nine
Encoding: 57 57 28
Width: 602
GlyphClass: 2
Flags: W
LayerCount: 2
Fore
SplineSet
90.5 25 m 128,-1,1
 41 60 41 60 26 115 c 1,2,-1
 82 141 l 1,3,4
 106 95 106 95 135.5 71 c 128,-1,5
 165 47 165 47 224 47 c 0,6,7
 327 47 327 47 395.5 135 c 128,-1,8
 464 223 464 223 489 395 c 0,9,10
 493 423 493 423 493 437 c 1,11,12
 467 372 467 372 405.5 332.5 c 128,-1,13
 344 293 344 293 271 293 c 0,14,15
 200 293 200 293 152.5 322 c 128,-1,16
 105 351 105 351 85 401 c 128,-1,17
 65 451 65 451 74 513 c 0,18,19
 83 579 83 579 121 629 c 128,-1,20
 159 679 159 679 217 706 c 128,-1,21
 275 733 275 733 343 733 c 0,22,23
 424 733 424 733 477 690.5 c 128,-1,24
 530 648 530 648 550 567 c 128,-1,25
 570 486 570 486 554 372 c 0,26,27
 529 191 529 191 440 90.5 c 128,-1,28
 351 -10 351 -10 217 -10 c 0,29,0
 140 -10 140 -10 90.5 25 c 128,-1,1
374 369.5 m 128,-1,31
 419 388 419 388 448 421.5 c 128,-1,32
 477 455 477 455 483 497 c 1,33,34
 480 586 480 586 441.5 631 c 128,-1,35
 403 676 403 676 334 676 c 0,36,37
 261 676 261 676 208 631 c 128,-1,38
 155 586 155 586 146 516 c 0,39,40
 140 472 140 472 153.5 434 c 128,-1,41
 167 396 167 396 199.5 373.5 c 128,-1,42
 232 351 232 351 281 351 c 0,43,30
 329 351 329 351 374 369.5 c 128,-1,31
EndSplineSet
Substitution2: "'onum' Oldstyle Figures in Latin lookup 24 subtable" nine.osf
Substitution2: "'tnum' Tabular Numbers in Latin lookup 23 subtable" nine.tf
Substitution2: "'frac' Diagonal Fractions in Latin lookup 17 subtable" nine.numr
Substitution2: "'dnom' Denominators in Latin lookup 15 subtable" nine.dnom
Substitution2: "'numr' Numerators in Latin lookup 14 subtable" nine.numr
Substitution2: "'sups' Superscript in Latin lookup 13 subtable" uni2079
Substitution2: "'sinf' Scientific Inferiors in Latin lookup 12 subtable" nine.subs
Substitution2: "'subs' Subscript in Latin lookup 11 subtable" nine.subs
AlternateSubs2: "'aalt' Access All Alternates in Latin lookup 1 subtable" nine.subs uni2079 nine.numr nine.dnom nine.tf nine.osf
EndChar

StartChar: colon
Encoding: 58 58 29
Width: 206
GlyphClass: 2
Flags: W
LayerCount: 2
Fore
SplineSet
153 396 m 1,0,-1
 70 396 l 1,1,-1
 83 492 l 1,2,-1
 166 492 l 1,3,-1
 153 396 l 1,0,-1
97 3 m 1,4,-1
 14 3 l 1,5,-1
 28 98 l 1,6,-1
 111 98 l 1,7,-1
 97 3 l 1,4,-1
EndSplineSet
EndChar

StartChar: semicolon
Encoding: 59 59 30
Width: 232
GlyphClass: 2
Flags: W
LayerCount: 2
Fore
SplineSet
84 491 m 1,0,-1
 168 491 l 1,1,-1
 155 395 l 1,2,-1
 71 395 l 1,3,-1
 84 491 l 1,0,-1
54 0 m 1,4,-1
 19 0 l 1,5,-1
 32 95 l 1,6,-1
 116 95 l 1,7,-1
 105 11 l 1,8,-1
 12 -136 l 1,9,-1
 -18 -136 l 1,10,-1
 54 0 l 1,4,-1
EndSplineSet
EndChar

StartChar: less
Encoding: 60 60 31
Width: 535
GlyphClass: 2
Flags: W
LayerCount: 2
Fore
SplineSet
436 158 m 1,0,-1
 58 315 l 1,1,-1
 67 379 l 1,2,-1
 491 540 l 1,3,-1
 481 473 l 1,4,-1
 145 347 l 1,5,-1
 445 221 l 1,6,-1
 436 158 l 1,0,-1
EndSplineSet
EndChar

StartChar: equal
Encoding: 61 61 32
Width: 541
GlyphClass: 2
Flags: W
LayerCount: 2
Fore
SplineSet
489 435 m 1,0,-1
 80 434 l 1,1,-1
 87 487 l 1,2,-1
 496 487 l 1,3,-1
 489 435 l 1,0,-1
458 216 m 1,4,-1
 49 216 l 1,5,-1
 57 268 l 1,6,-1
 466 269 l 1,7,-1
 458 216 l 1,4,-1
EndSplineSet
EndChar

StartChar: greater
Encoding: 62 62 33
Width: 535
GlyphClass: 2
Flags: W
LayerCount: 2
Fore
SplineSet
393 347 m 1,0,-1
 91 473 l 1,1,-1
 101 540 l 1,2,-1
 479 379 l 1,3,-1
 470 315 l 1,4,-1
 48 158 l 1,5,-1
 57 221 l 1,6,-1
 393 347 l 1,0,-1
EndSplineSet
EndChar

StartChar: question
Encoding: 63 63 34
Width: 513
GlyphClass: 2
Flags: W
LayerCount: 2
Fore
SplineSet
175.5 697 m 128,-1,1
 242 733 242 733 316 733 c 0,2,3
 380 733 380 733 425.5 711 c 128,-1,4
 471 689 471 689 492 649.5 c 128,-1,5
 513 610 513 610 505 558 c 0,6,7
 497 500 497 500 465.5 458 c 128,-1,8
 434 416 434 416 377 363 c 0,9,10
 318 308 318 308 286.5 265.5 c 128,-1,11
 255 223 255 223 247 164 c 1,12,-1
 188 164 l 1,13,14
 195 212 195 212 215 251 c 128,-1,15
 235 290 235 290 260 319 c 128,-1,16
 285 348 285 348 325 387 c 0,17,18
 376 436 376 436 403.5 472.5 c 128,-1,19
 431 509 431 509 437 556 c 0,20,21
 445 613 445 613 409.5 646 c 128,-1,22
 374 679 374 679 308 679 c 0,23,24
 255 679 255 679 202 649 c 128,-1,25
 149 619 149 619 126 578 c 1,26,-1
 69 599 l 1,27,0
 109 661 109 661 175.5 697 c 128,-1,1
236 0 m 1,28,-1
 153 0 l 1,29,-1
 166 95 l 1,30,-1
 249 95 l 1,31,-1
 236 0 l 1,28,-1
EndSplineSet
EndChar

StartChar: at
Encoding: 64 64 35
Width: 817
GlyphClass: 2
Flags: W
LayerCount: 2
Fore
SplineSet
365 -110 m 0,0,1
 250 -110 250 -110 171.5 -61.5 c 128,-1,2
 93 -13 93 -13 59.5 70 c 128,-1,3
 26 153 26 153 40 254 c 0,4,5
 55 359 55 359 117 448.5 c 128,-1,6
 179 538 179 538 275 591 c 128,-1,7
 371 644 371 644 484 644 c 0,8,9
 572 644 572 644 645 610 c 128,-1,10
 718 576 718 576 757 506 c 128,-1,11
 796 436 796 436 782 332 c 0,12,13
 772 258 772 258 739 200.5 c 128,-1,14
 706 143 706 143 659 111 c 128,-1,15
 612 79 612 79 559 79 c 0,16,17
 521 79 521 79 502.5 91.5 c 128,-1,18
 484 104 484 104 481 133 c 0,19,20
 481 140 481 140 478 140 c 0,21,22
 476 140 476 140 470 134 c 0,23,24
 409 65 409 65 323 65 c 0,25,26
 287 65 287 65 259 86.5 c 128,-1,27
 231 108 231 108 218 147.5 c 128,-1,28
 205 187 205 187 212 237 c 0,29,30
 221 299 221 299 252.5 351 c 128,-1,31
 284 403 284 403 330.5 433 c 128,-1,32
 377 463 377 463 430 463 c 0,33,34
 469 463 469 463 496 445.5 c 128,-1,35
 523 428 523 428 536 398 c 0,36,37
 537 395 537 395 539 396 c 128,-1,38
 541 397 541 397 542 401 c 2,39,-1
 558 438 l 1,40,-1
 609 438 l 1,41,-1
 539 212 l 2,42,43
 533 194 533 194 531 180 c 0,44,45
 527 153 527 153 536.5 141.5 c 128,-1,46
 546 130 546 130 569 130 c 0,47,48
 603 130 603 130 635.5 154.5 c 128,-1,49
 668 179 668 179 691.5 223.5 c 128,-1,50
 715 268 715 268 723 326 c 0,51,52
 736 417 736 417 703 477.5 c 128,-1,53
 670 538 670 538 608.5 566 c 128,-1,54
 547 594 547 594 475 594 c 0,55,56
 374 594 374 594 293 548 c 128,-1,57
 212 502 212 502 161 424 c 128,-1,58
 110 346 110 346 97 253 c 0,59,60
 85 166 85 166 112.5 94.5 c 128,-1,61
 140 23 140 23 209.5 -18.5 c 128,-1,62
 279 -60 279 -60 384 -60 c 0,63,64
 426 -60 426 -60 458.5 -51.5 c 128,-1,65
 491 -43 491 -43 514.5 -31 c 128,-1,66
 538 -19 538 -19 577 5 c 1,67,-1
 601 -35 l 1,68,69
 490 -110 490 -110 365 -110 c 0,0,1
283.5 150.5 m 128,-1,71
 301 118 301 118 341 118 c 0,72,73
 390 118 390 118 435 160.5 c 128,-1,74
 480 203 480 203 497 262 c 0,75,76
 503 280 503 280 504 295 c 0,77,78
 512 350 512 350 488.5 380 c 128,-1,79
 465 410 465 410 427 410 c 0,80,81
 370 410 370 410 327 361 c 128,-1,82
 284 312 284 312 274 240 c 0,83,70
 266 183 266 183 283.5 150.5 c 128,-1,71
EndSplineSet
EndChar

StartChar: A
Encoding: 65 65 36
Width: 690
GlyphClass: 2
Flags: W
AnchorPoint: "Anchor-5" -46 0 basechar 0
AnchorPoint: "Anchor-4" -46 0 basechar 0
AnchorPoint: "Anchor-3" 301 723 basechar 0
AnchorPoint: "Anchor-2" 593 11 basechar 0
LayerCount: 2
Fore
SplineSet
363 723 m 1,0,-1
 440 723 l 1,1,-1
 601 0 l 1,2,-1
 535 0 l 1,3,-1
 487 214 l 1,4,-1
 172 214 l 1,5,-1
 63 0 l 1,6,-1
 -3 0 l 1,7,-1
 363 723 l 1,0,-1
477 276 m 1,8,-1
 393 659 l 1,9,-1
 200 276 l 1,10,-1
 477 276 l 1,8,-1
EndSplineSet
Substitution2: "Single Substitution lookup 30 subtable" ordfeminine
Substitution2: "'aalt' Access All Alternates in Latin lookup 0 subtable" ordfeminine
EndChar

StartChar: B
Encoding: 66 66 37
Width: 661
GlyphClass: 2
Flags: W
LayerCount: 2
Fore
SplineSet
157 723 m 1,0,-1
 374 723 l 2,1,2
 500 723 500 723 560.5 674.5 c 128,-1,3
 621 626 621 626 608 535 c 0,4,5
 599 473 599 473 561 432 c 128,-1,6
 523 391 523 391 446 368 c 1,7,8
 524 353 524 353 556 308 c 128,-1,9
 588 263 588 263 578 194 c 0,10,11
 564 97 564 97 487.5 48.5 c 128,-1,12
 411 0 411 0 277 0 c 2,13,-1
 55 0 l 1,14,-1
 157 723 l 1,0,-1
342 395 m 2,15,16
 418 395 418 395 476.5 425 c 128,-1,17
 535 455 535 455 545 527 c 0,18,19
 555 597 555 597 506.5 631.5 c 128,-1,20
 458 666 458 666 366 666 c 2,21,-1
 213 666 l 1,22,-1
 175 395 l 1,23,-1
 342 395 l 2,15,16
282 57 m 2,24,25
 388 57 388 57 446 89.5 c 128,-1,26
 504 122 504 122 514 192 c 0,27,28
 524 266 524 266 473.5 301.5 c 128,-1,29
 423 337 423 337 333 337 c 2,30,-1
 166 337 l 1,31,-1
 127 57 l 1,32,-1
 282 57 l 2,24,25
EndSplineSet
EndChar

StartChar: C
Encoding: 67 67 38
Width: 671
GlyphClass: 2
Flags: W
AnchorPoint: "Anchor-5" -46 0 basechar 0
AnchorPoint: "Anchor-4" 309 0 basechar 0
AnchorPoint: "Anchor-3" 309 723 basechar 0
AnchorPoint: "Anchor-2" -46 0 basechar 0
LayerCount: 2
Fore
SplineSet
533 705 m 128,-1,1
 587 677 587 677 615.5 629.5 c 128,-1,2
 644 582 644 582 642 525 c 1,3,-1
 573 519 l 1,4,5
 569 590 569 590 525 632 c 128,-1,6
 481 674 481 674 398 674 c 0,7,8
 288 674 288 674 221 595 c 128,-1,9
 154 516 154 516 132 360 c 0,10,11
 110 207 110 207 156 128 c 128,-1,12
 202 49 202 49 317 49 c 0,13,14
 388 49 388 49 444 88.5 c 128,-1,15
 500 128 500 128 526 197 c 1,16,-1
 591 188 l 1,17,18
 577 133 577 133 535.5 87.5 c 128,-1,19
 494 42 494 42 434.5 16 c 128,-1,20
 375 -10 375 -10 308 -10 c 0,21,22
 165 -10 165 -10 100.5 88 c 128,-1,23
 36 186 36 186 61 361 c 128,-1,24
 86 536 86 536 176 634.5 c 128,-1,25
 266 733 266 733 405 733 c 0,26,0
 479 733 479 733 533 705 c 128,-1,1
EndSplineSet
EndChar

StartChar: D
Encoding: 68 68 39
Width: 676
GlyphClass: 2
Flags: W
AnchorPoint: "Anchor-5" -46 0 basechar 0
AnchorPoint: "Anchor-4" -46 0 basechar 0
AnchorPoint: "Anchor-3" 284 723 basechar 0
AnchorPoint: "Anchor-2" -46 0 basechar 0
LayerCount: 2
Fore
SplineSet
298 722 m 2,0,1
 495 721 495 721 573 633.5 c 128,-1,2
 651 546 651 546 626 367 c 0,3,4
 600 180 600 180 492 90 c 128,-1,5
 384 0 384 0 185 0 c 2,6,-1
 55 0 l 1,7,-1
 157 723 l 1,8,-1
 298 722 l 2,0,1
130 59 m 1,9,-1
 192 59 l 2,10,11
 354 59 354 59 444.5 130 c 128,-1,12
 535 201 535 201 558 364 c 0,13,14
 574 477 574 477 547 543 c 128,-1,15
 520 609 520 609 454 637 c 128,-1,16
 388 665 388 665 282 665 c 2,17,-1
 215 665 l 1,18,-1
 130 59 l 1,9,-1
EndSplineSet
EndChar

StartChar: E
Encoding: 69 69 40
Width: 616
GlyphClass: 2
Flags: W
AnchorPoint: "Anchor-5" -46 0 basechar 0
AnchorPoint: "Anchor-4" 300 0 basechar 0
AnchorPoint: "Anchor-3" 284 723 basechar 0
AnchorPoint: "Anchor-2" 493 10 basechar 0
LayerCount: 2
Fore
SplineSet
157 723 m 1,0,-1
 591 723 l 1,1,-1
 582 664 l 1,2,-1
 212 664 l 1,3,-1
 175 395 l 1,4,-1
 514 395 l 1,5,-1
 505 336 l 1,6,-1
 166 336 l 1,7,-1
 128 61 l 1,8,-1
 509 60 l 1,9,-1
 501 0 l 1,10,-1
 55 0 l 1,11,-1
 157 723 l 1,0,-1
EndSplineSet
EndChar

StartChar: F
Encoding: 70 70 41
Width: 572
GlyphClass: 2
Flags: W
LayerCount: 2
Fore
SplineSet
585 723 m 1,0,-1
 576 664 l 1,1,-1
 215 664 l 1,2,-1
 177 394 l 1,3,-1
 508 394 l 1,4,-1
 500 336 l 1,5,-1
 169 336 l 1,6,-1
 122 0 l 1,7,-1
 55 0 l 1,8,-1
 157 723 l 1,9,-1
 585 723 l 1,0,-1
EndSplineSet
EndChar

StartChar: G
Encoding: 71 71 42
Width: 716
GlyphClass: 2
Flags: W
AnchorPoint: "Anchor-5" -46 0 basechar 0
AnchorPoint: "Anchor-4" 312 0 basechar 0
AnchorPoint: "Anchor-3" 308 723 basechar 0
AnchorPoint: "Anchor-2" -46 0 basechar 0
LayerCount: 2
Fore
SplineSet
153 34 m 128,-1,1
 92 78 92 78 68 161 c 128,-1,2
 44 244 44 244 60 359 c 0,3,4
 76 476 76 476 125.5 560.5 c 128,-1,5
 175 645 175 645 248 689 c 128,-1,6
 321 733 321 733 412 733 c 0,7,8
 477 733 477 733 530.5 705 c 128,-1,9
 584 677 584 677 614.5 629.5 c 128,-1,10
 645 582 645 582 642 527 c 1,11,-1
 571 520 l 1,12,13
 569 586 569 586 522.5 629.5 c 128,-1,14
 476 673 476 673 404 673 c 0,15,16
 295 673 295 673 222.5 592.5 c 128,-1,17
 150 512 150 512 129 365 c 0,18,19
 107 210 107 210 157 129.5 c 128,-1,20
 207 49 207 49 317 49 c 0,21,22
 382 49 382 49 432 79.5 c 128,-1,23
 482 110 482 110 512 155.5 c 128,-1,24
 542 201 542 201 550 246 c 2,25,-1
 562 321 l 1,26,-1
 372 321 l 1,27,-1
 379 371 l 1,28,-1
 634 370 l 1,29,-1
 582 0 l 1,30,-1
 529 0 l 1,31,-1
 546 119 l 1,32,33
 506 61 506 61 445.5 25.5 c 128,-1,34
 385 -10 385 -10 306 -10 c 0,35,0
 214 -10 214 -10 153 34 c 128,-1,1
EndSplineSet
EndChar

StartChar: H
Encoding: 72 72 43
Width: 702
GlyphClass: 2
Flags: W
AnchorPoint: "Anchor-5" -46 0 basechar 0
AnchorPoint: "Anchor-4" 304 0 basechar 0
AnchorPoint: "Anchor-3" 304 723 basechar 0
AnchorPoint: "Anchor-2" -46 0 basechar 0
LayerCount: 2
Fore
SplineSet
168 346 m 1,0,-1
 119 0 l 1,1,-1
 55 0 l 1,2,-1
 157 723 l 1,3,-1
 221 723 l 1,4,-1
 176 405 l 1,5,-1
 547 405 l 1,6,-1
 592 723 l 1,7,-1
 655 723 l 1,8,-1
 553 0 l 1,9,-1
 490 0 l 1,10,-1
 539 346 l 1,11,-1
 168 346 l 1,0,-1
EndSplineSet
EndChar

StartChar: I
Encoding: 73 73 44
Width: 268
GlyphClass: 2
Flags: W
AnchorPoint: "Anchor-5" -46 0 basechar 0
AnchorPoint: "Anchor-4" 90 0 basechar 0
AnchorPoint: "Anchor-3" 91 723 basechar 0
AnchorPoint: "Anchor-2" 109 9 basechar 0
LayerCount: 2
Fore
SplineSet
221 723 m 1,0,-1
 119 0 l 1,1,-1
 55 0 l 1,2,-1
 157 723 l 1,3,-1
 221 723 l 1,0,-1
EndSplineSet
EndChar

StartChar: J
Encoding: 74 74 45
Width: 376
GlyphClass: 2
Flags: W
AnchorPoint: "Anchor-5" -46 0 basechar 0
AnchorPoint: "Anchor-4" -46 0 basechar 0
AnchorPoint: "Anchor-3" 190 723 basechar 0
AnchorPoint: "Anchor-2" -46 0 basechar 0
LayerCount: 2
Fore
SplineSet
201.5 31 m 128,-1,1
 166 -10 166 -10 90 -10 c 0,2,3
 54 -10 54 -10 23 -1 c 128,-1,4
 -8 8 -8 8 -20 16 c 1,5,-1
 -3 80 l 1,6,7
 3 77 3 77 17 69.5 c 128,-1,8
 31 62 31 62 48 57.5 c 128,-1,9
 65 53 65 53 86 53 c 0,10,11
 134 53 134 53 156.5 80 c 128,-1,12
 179 107 179 107 188 174 c 2,13,-1
 266 723 l 1,14,-1
 329 723 l 1,15,-1
 249 154 l 2,16,0
 237 72 237 72 201.5 31 c 128,-1,1
EndSplineSet
EndChar

StartChar: K
Encoding: 75 75 46
Width: 659
GlyphClass: 2
Flags: W
AnchorPoint: "Anchor-5" -46 0 basechar 0
AnchorPoint: "Anchor-4" 288 0 basechar 0
AnchorPoint: "Anchor-3" 313 723 basechar 0
AnchorPoint: "Anchor-2" -46 0 basechar 0
LayerCount: 2
Fore
SplineSet
501 0 m 1,0,-1
 311 391 l 1,1,-1
 155 239 l 1,2,-1
 121 0 l 1,3,-1
 55 0 l 1,4,-1
 157 723 l 1,5,-1
 223 723 l 1,6,-1
 167 326 l 1,7,-1
 580 723 l 1,8,-1
 660 723 l 1,9,-1
 369 439 l 1,10,-1
 577 0 l 1,11,-1
 501 0 l 1,0,-1
EndSplineSet
EndChar

StartChar: L
Encoding: 76 76 47
Width: 557
GlyphClass: 2
Flags: W
AnchorPoint: "Anchor-5" 374 723 basechar 0
AnchorPoint: "Anchor-4" 261 0 basechar 0
AnchorPoint: "Anchor-3" 90 723 basechar 0
AnchorPoint: "Anchor-2" -46 0 basechar 0
LayerCount: 2
Fore
SplineSet
224 723 m 1,0,-1
 131 61 l 1,1,-1
 488 61 l 1,2,-1
 479 0 l 1,3,-1
 55 0 l 1,4,-1
 157 723 l 1,5,-1
 224 723 l 1,0,-1
EndSplineSet
EndChar

StartChar: M
Encoding: 77 77 48
Width: 866
GlyphClass: 2
Flags: W
LayerCount: 2
Fore
SplineSet
157 723 m 1,0,-1
 240 723 l 1,1,-1
 396 81 l 1,2,-1
 737 723 l 1,3,-1
 818 723 l 1,4,-1
 716 0 l 1,5,-1
 650 0 l 1,6,-1
 735 602 l 1,7,-1
 420 0 l 1,8,-1
 349 0 l 1,9,-1
 206 595 l 1,10,-1
 122 0 l 1,11,-1
 55 0 l 1,12,-1
 157 723 l 1,0,-1
EndSplineSet
EndChar

StartChar: N
Encoding: 78 78 49
Width: 737
GlyphClass: 2
Flags: W
AnchorPoint: "Anchor-5" -46 0 basechar 0
AnchorPoint: "Anchor-4" 301 0 basechar 0
AnchorPoint: "Anchor-3" 333 723 basechar 0
AnchorPoint: "Anchor-2" -46 0 basechar 0
LayerCount: 2
Fore
SplineSet
689 723 m 1,0,-1
 587 0 l 1,1,-1
 531 0 l 1,2,-1
 205 610 l 1,3,-1
 119 0 l 1,4,-1
 55 0 l 1,5,-1
 157 723 l 1,6,-1
 215 723 l 1,7,-1
 540 116 l 1,8,-1
 626 723 l 1,9,-1
 689 723 l 1,0,-1
EndSplineSet
EndChar

StartChar: O
Encoding: 79 79 50
Width: 718
GlyphClass: 2
Flags: W
AnchorPoint: "Anchor-5" -46 0 basechar 0
AnchorPoint: "Anchor-4" 315 0 basechar 0
AnchorPoint: "Anchor-3" 315 723 basechar 0
AnchorPoint: "Anchor-2" 386 9 basechar 0
LayerCount: 2
Fore
SplineSet
102.5 86 m 128,-1,1
 36 182 36 182 60 358 c 0,2,3
 77 477 77 477 126 561.5 c 128,-1,4
 175 646 175 646 249 689.5 c 128,-1,5
 323 733 323 733 417 733 c 0,6,7
 510 733 510 733 571.5 689.5 c 128,-1,8
 633 646 633 646 657.5 562.5 c 128,-1,9
 682 479 682 479 666 360 c 0,10,11
 641 183 641 183 547.5 86.5 c 128,-1,12
 454 -10 454 -10 312 -10 c 0,13,0
 169 -10 169 -10 102.5 86 c 128,-1,1
504.5 126 m 128,-1,15
 574 203 574 203 596 360 c 0,16,17
 618 518 618 518 570 596 c 128,-1,18
 522 674 522 674 409 674 c 128,-1,19
 296 674 296 674 225 595.5 c 128,-1,20
 154 517 154 517 132 360 c 0,21,22
 110 204 110 204 159 126.5 c 128,-1,23
 208 49 208 49 322 49 c 0,24,14
 435 49 435 49 504.5 126 c 128,-1,15
EndSplineSet
Substitution2: "Single Substitution lookup 30 subtable" ordmasculine
Substitution2: "'aalt' Access All Alternates in Latin lookup 0 subtable" ordmasculine
EndChar

StartChar: P
Encoding: 80 80 51
Width: 631
GlyphClass: 2
Flags: W
LayerCount: 2
Fore
SplineSet
157 723 m 1,0,-1
 390 723 l 2,1,2
 511 723 511 723 575 672 c 128,-1,3
 639 621 639 621 625 516 c 0,4,5
 610 411 610 411 533.5 358.5 c 128,-1,6
 457 306 457 306 340 306 c 2,7,-1
 165 306 l 1,8,-1
 122 0 l 1,9,-1
 55 0 l 1,10,-1
 157 723 l 1,0,-1
347 365 m 2,11,12
 436 365 436 365 492.5 403 c 128,-1,13
 549 441 549 441 560 520 c 0,14,15
 571 598 571 598 524.5 631.5 c 128,-1,16
 478 665 478 665 383 665 c 2,17,-1
 215 665 l 1,18,-1
 173 365 l 1,19,-1
 347 365 l 2,11,12
EndSplineSet
EndChar

StartChar: Q
Encoding: 81 81 52
Width: 722
GlyphClass: 2
Flags: W
LayerCount: 2
Fore
SplineSet
177 636 m 128,-1,1
 271 733 271 733 413 733 c 128,-1,2
 555 733 555 733 621.5 636.5 c 128,-1,3
 688 540 688 540 663 360 c 0,4,5
 646 238 646 238 597.5 155.5 c 128,-1,6
 549 73 549 73 463 28 c 1,7,8
 478 -16 478 -16 513 -38 c 128,-1,9
 548 -60 548 -60 595 -62 c 1,10,-1
 587 -120 l 1,11,12
 531 -120 531 -120 478.5 -93.5 c 128,-1,13
 426 -67 426 -67 397 0 c 1,14,15
 341 -10 341 -10 309 -10 c 0,16,17
 167 -10 167 -10 99.5 85 c 128,-1,18
 32 180 32 180 58 360 c 0,19,0
 83 539 83 539 177 636 c 128,-1,1
154 125.5 m 128,-1,21
 203 49 203 49 317 49 c 0,22,23
 430 49 430 49 500.5 126 c 128,-1,24
 571 203 571 203 593 360 c 0,25,26
 615 515 615 515 567 594.5 c 128,-1,27
 519 674 519 674 405 674 c 128,-1,28
 291 674 291 674 220 594.5 c 128,-1,29
 149 515 149 515 127 358 c 0,30,20
 105 202 105 202 154 125.5 c 128,-1,21
EndSplineSet
EndChar

StartChar: R
Encoding: 82 82 53
Width: 669
GlyphClass: 2
Flags: W
AnchorPoint: "Anchor-5" -46 0 basechar 0
AnchorPoint: "Anchor-4" 283 0 basechar 0
AnchorPoint: "Anchor-3" 276 723 basechar 0
AnchorPoint: "Anchor-2" -46 0 basechar 0
LayerCount: 2
Fore
SplineSet
479 0 m 1,0,-1
 386 329 l 1,1,-1
 165 329 l 1,2,-1
 119 0 l 1,3,-1
 55 0 l 1,4,-1
 157 723 l 1,5,-1
 424 723 l 2,6,7
 534 723 534 723 586 674.5 c 128,-1,8
 638 626 638 626 625 536 c 0,9,10
 613 454 613 454 564 407.5 c 128,-1,11
 515 361 515 361 450 342 c 1,12,-1
 548 0 l 1,13,-1
 479 0 l 1,0,-1
558 529 m 0,14,15
 577 667 577 667 411 667 c 2,16,-1
 213 667 l 1,17,-1
 173 386 l 1,18,-1
 344 386 l 2,19,20
 538 386 538 386 558 529 c 0,14,15
EndSplineSet
EndChar

StartChar: S
Encoding: 83 83 54
Width: 658
GlyphClass: 2
Flags: W
AnchorPoint: "Anchor-5" -46 0 basechar 0
AnchorPoint: "Anchor-4" 278 0 basechar 0
AnchorPoint: "Anchor-3" 283 723 basechar 0
AnchorPoint: "Anchor-2" -46 0 basechar 0
LayerCount: 2
Fore
SplineSet
162 12 m 128,-1,1
 105 34 105 34 70.5 75.5 c 128,-1,2
 36 117 36 117 35 175 c 1,3,-1
 103 183 l 1,4,5
 109 117 109 117 162 81.5 c 128,-1,6
 215 46 215 46 294 46 c 0,7,8
 352 46 352 46 399.5 63 c 128,-1,9
 447 80 447 80 477 110.5 c 128,-1,10
 507 141 507 141 512 180 c 0,11,12
 520 234 520 234 492.5 267 c 128,-1,13
 465 300 465 300 401 316 c 2,14,-1
 254 353 l 2,15,16
 174 372 174 372 136 415.5 c 128,-1,17
 98 459 98 459 107 527 c 0,18,19
 115 586 115 586 153 632.5 c 128,-1,20
 191 679 191 679 252.5 705.5 c 128,-1,21
 314 732 314 732 387 732 c 0,22,23
 467 732 467 732 519.5 705 c 128,-1,24
 572 678 572 678 596 633 c 128,-1,25
 620 588 620 588 617 534 c 1,26,-1
 552 528 l 1,27,28
 550 604 550 604 502.5 639 c 128,-1,29
 455 674 455 674 378 674 c 0,30,31
 334 674 334 674 289.5 658 c 128,-1,32
 245 642 245 642 214 610 c 128,-1,33
 183 578 183 578 177 532 c 128,-1,34
 171 486 171 486 198 456 c 128,-1,35
 225 426 225 426 298 407 c 2,36,-1
 441 370 l 2,37,38
 602 331 602 331 580 181 c 0,39,40
 573 128 573 128 536 84.5 c 128,-1,41
 499 41 499 41 435 15.5 c 128,-1,42
 371 -10 371 -10 287 -10 c 0,43,0
 219 -10 219 -10 162 12 c 128,-1,1
EndSplineSet
EndChar

StartChar: T
Encoding: 84 84 55
Width: 558
GlyphClass: 2
Flags: W
AnchorPoint: "Anchor-5" -46 0 basechar 0
AnchorPoint: "Anchor-4" 244 0 basechar 0
AnchorPoint: "Anchor-3" 244 723 basechar 0
AnchorPoint: "Anchor-2" -46 0 basechar 0
LayerCount: 2
Fore
SplineSet
71 723 m 1,0,-1
 600 723 l 1,1,-1
 591 663 l 1,2,-1
 366 663 l 1,3,-1
 273 0 l 1,4,-1
 210 0 l 1,5,-1
 303 663 l 1,6,-1
 62 663 l 1,7,-1
 71 723 l 1,0,-1
EndSplineSet
EndChar

StartChar: U
Encoding: 85 85 56
Width: 706
GlyphClass: 2
Flags: W
AnchorPoint: "Anchor-5" -46 0 basechar 0
AnchorPoint: "Anchor-4" -46 0 basechar 0
AnchorPoint: "Anchor-3" 305 723 basechar 0
AnchorPoint: "Anchor-2" 377 9 basechar 0
LayerCount: 2
Fore
SplineSet
503 52 m 128,-1,1
 433 -10 433 -10 305 -10 c 0,2,3
 175 -10 175 -10 123 53.5 c 128,-1,4
 71 117 71 117 90 248 c 2,5,-1
 157 723 l 1,6,-1
 224 723 l 1,7,-1
 155 233 l 2,8,9
 142 141 142 141 182 94.5 c 128,-1,10
 222 48 222 48 313 48 c 0,11,12
 405 48 405 48 459 94.5 c 128,-1,13
 513 141 513 141 526 233 c 2,14,-1
 595 723 l 1,15,-1
 659 723 l 1,16,-1
 590 236 l 2,17,0
 573 114 573 114 503 52 c 128,-1,1
EndSplineSet
EndChar

StartChar: V
Encoding: 86 86 57
Width: 622
GlyphClass: 2
Flags: W
LayerCount: 2
Fore
SplineSet
304 0 m 1,0,-1
 222 0 l 1,1,-1
 70 723 l 1,2,-1
 135 723 l 1,3,-1
 273 70 l 1,4,-1
 601 723 l 1,5,-1
 665 723 l 1,6,-1
 304 0 l 1,0,-1
EndSplineSet
EndChar

StartChar: W
Encoding: 87 87 58
Width: 947
GlyphClass: 2
Flags: W
AnchorPoint: "Anchor-5" -46 0 basechar 0
AnchorPoint: "Anchor-4" -46 0 basechar 0
AnchorPoint: "Anchor-3" 432 723 basechar 0
AnchorPoint: "Anchor-2" -46 0 basechar 0
LayerCount: 2
Fore
SplineSet
666 0 m 1,0,-1
 597 0 l 1,1,-1
 511 608 l 1,2,-1
 252 0 l 1,3,-1
 186 0 l 1,4,-1
 82 723 l 1,5,-1
 149 723 l 1,6,-1
 233 94 l 1,7,-1
 501 723 l 1,8,-1
 555 723 l 1,9,-1
 643 94 l 1,10,-1
 911 723 l 1,11,-1
 977 723 l 1,12,-1
 666 0 l 1,0,-1
EndSplineSet
EndChar

StartChar: X
Encoding: 88 88 59
Width: 630
GlyphClass: 2
Flags: W
LayerCount: 2
Fore
SplineSet
477 0 m 1,0,-1
 310 316 l 1,1,-1
 55 0 l 1,2,-1
 -20 0 l 1,3,-1
 280 370 l 1,4,-1
 93 723 l 1,5,-1
 174 723 l 1,6,-1
 328 427 l 1,7,-1
 568 723 l 1,8,-1
 642 723 l 1,9,-1
 359 374 l 1,10,-1
 558 0 l 1,11,-1
 477 0 l 1,0,-1
EndSplineSet
EndChar

StartChar: Y
Encoding: 89 89 60
Width: 566
GlyphClass: 2
Flags: W
AnchorPoint: "Anchor-5" -46 0 basechar 0
AnchorPoint: "Anchor-4" -46 0 basechar 0
AnchorPoint: "Anchor-3" 238 723 basechar 0
AnchorPoint: "Anchor-2" -46 0 basechar 0
LayerCount: 2
Fore
SplineSet
313 309 m 1,0,-1
 270 0 l 1,1,-1
 207 0 l 1,2,-1
 251 310 l 1,3,-1
 65 723 l 1,4,-1
 135 723 l 1,5,-1
 291 369 l 1,6,-1
 544 723 l 1,7,-1
 613 723 l 1,8,-1
 313 309 l 1,0,-1
EndSplineSet
EndChar

StartChar: Z
Encoding: 90 90 61
Width: 606
GlyphClass: 2
Flags: W
AnchorPoint: "Anchor-5" -46 0 basechar 0
AnchorPoint: "Anchor-4" 268 0 basechar 0
AnchorPoint: "Anchor-3" 265 723 basechar 0
AnchorPoint: "Anchor-2" -46 0 basechar 0
LayerCount: 2
Fore
SplineSet
14 40 m 1,0,-1
 513 665 l 1,1,-1
 113 665 l 1,2,-1
 122 723 l 1,3,-1
 608 723 l 1,4,-1
 602 684 l 1,5,-1
 100 58 l 1,6,-1
 513 58 l 1,7,-1
 505 0 l 1,8,-1
 8 0 l 1,9,-1
 14 40 l 1,0,-1
EndSplineSet
EndChar

StartChar: bracketleft
Encoding: 91 91 62
Width: 284
GlyphClass: 2
Flags: W
LayerCount: 2
Fore
SplineSet
318 723 m 1,0,-1
 311 676 l 1,1,-1
 208 676 l 1,2,-1
 97 -114 l 1,3,-1
 199 -114 l 1,4,-1
 192 -161 l 1,5,-1
 31 -161 l 1,6,-1
 155 723 l 1,7,-1
 318 723 l 1,0,-1
EndSplineSet
EndChar

StartChar: backslash
Encoding: 92 92 63
Width: 333
GlyphClass: 2
Flags: W
LayerCount: 2
Fore
SplineSet
68 723 m 1,0,-1
 124 723 l 1,1,-1
 264 -50 l 1,2,-1
 207 -50 l 1,3,-1
 68 723 l 1,0,-1
EndSplineSet
EndChar

StartChar: bracketright
Encoding: 93 93 64
Width: 284
GlyphClass: 2
Flags: W
LayerCount: 2
Fore
SplineSet
31 -161 m 1,0,-1
 38 -114 l 1,1,-1
 141 -114 l 1,2,-1
 252 676 l 1,3,-1
 150 676 l 1,4,-1
 157 723 l 1,5,-1
 318 723 l 1,6,-1
 194 -161 l 1,7,-1
 31 -161 l 1,0,-1
EndSplineSet
EndChar

StartChar: asciicircum
Encoding: 94 94 65
Width: 469
GlyphClass: 2
Flags: W
LayerCount: 2
Fore
SplineSet
248 444 m 1,0,-1
 81 133 l 1,1,-1
 24 133 l 1,2,-1
 219 491 l 2,3,4
 238 526 238 526 260 526 c 0,5,6
 270 526 270 526 278.5 517 c 128,-1,7
 287 508 287 508 291 491 c 2,8,-1
 387 131 l 1,9,-1
 327 131 l 1,10,-1
 248 444 l 1,0,-1
EndSplineSet
EndChar

StartChar: underscore
Encoding: 95 95 66
Width: 503
GlyphClass: 2
Flags: W
LayerCount: 2
Fore
SplineSet
374 -107 m 1,0,-1
 4 -108 l 1,1,-1
 11 -54 l 1,2,-1
 382 -53 l 1,3,-1
 374 -107 l 1,0,-1
EndSplineSet
EndChar

StartChar: grave
Encoding: 96 96 67
Width: 276
GlyphClass: 2
Flags: W
LayerCount: 2
Fore
SplineSet
310 637 m 1,0,-1
 291 599 l 1,1,-1
 57 675 l 1,2,-1
 84 732 l 1,3,-1
 310 637 l 1,0,-1
EndSplineSet
EndChar

StartChar: a
Encoding: 97 97 68
Width: 587
GlyphClass: 2
Flags: W
LayerCount: 2
Fore
SplineSet
455 0 m 1,0,-1
 392 0 l 1,1,-1
 455 0 l 1,0,-1
392 0 m 1,2,-1
 399 50 l 1,3,4
 357 18 357 18 318.5 4 c 128,-1,5
 280 -10 280 -10 237 -10 c 0,6,7
 168 -10 168 -10 120.5 23.5 c 128,-1,8
 73 57 73 57 53.5 119.5 c 128,-1,9
 34 182 34 182 46 267 c 0,10,11
 58 351 58 351 94.5 409.5 c 128,-1,12
 131 468 131 468 185 497.5 c 128,-1,13
 239 527 239 527 301 527 c 0,14,15
 346 527 346 527 377.5 512.5 c 128,-1,16
 409 498 409 498 420 487 c 128,-1,17
 431 476 431 476 457 446 c 1,18,-1
 467 517 l 1,19,-1
 528 517 l 1,20,-1
 455 0 l 1,21,-1
 392 0 l 1,2,-1
410 126 m 1,22,-1
 440 341 l 2,23,24
 444 373 444 373 429 404 c 128,-1,25
 414 435 414 435 383 455 c 128,-1,26
 352 475 352 475 310 475 c 0,27,28
 263 475 263 475 221.5 452 c 128,-1,29
 180 429 180 429 150.5 381.5 c 128,-1,30
 121 334 121 334 111 264 c 0,31,32
 101 196 101 196 116.5 145.5 c 128,-1,33
 132 95 132 95 168 68 c 128,-1,34
 204 41 204 41 255 41 c 0,35,36
 333 41 333 41 410 126 c 1,22,-1
EndSplineSet
Substitution2: "Single Substitution lookup 30 subtable" ordfeminine
Substitution2: "'aalt' Access All Alternates in Latin lookup 0 subtable" ordfeminine
EndChar

StartChar: b
Encoding: 98 98 69
Width: 588
GlyphClass: 2
Flags: W
LayerCount: 2
Fore
SplineSet
158.5 19 m 128,-1,1
 119 48 119 48 107 77 c 1,2,-1
 90 0 l 1,3,-1
 39 0 l 1,4,-1
 143 743 l 1,5,-1
 206 743 l 1,6,-1
 165 447 l 1,7,8
 187 473 187 473 235.5 500 c 128,-1,9
 284 527 284 527 350 527 c 0,10,11
 455 527 455 527 497 453 c 128,-1,12
 539 379 539 379 523 260 c 0,13,14
 505 134 505 134 436.5 62 c 128,-1,15
 368 -10 368 -10 263 -10 c 0,16,0
 198 -10 198 -10 158.5 19 c 128,-1,1
386.5 97 m 128,-1,18
 441 152 441 152 457 261 c 0,19,20
 471 362 471 362 437 418 c 128,-1,21
 403 474 403 474 326 474 c 0,22,23
 277 474 277 474 232.5 449 c 128,-1,24
 188 424 188 424 156 383 c 1,25,-1
 128 187 l 2,26,27
 123 148 123 148 139.5 114.5 c 128,-1,28
 156 81 156 81 188.5 61.5 c 128,-1,29
 221 42 221 42 258 42 c 0,30,17
 332 42 332 42 386.5 97 c 128,-1,18
EndSplineSet
EndChar

StartChar: c
Encoding: 99 99 70
Width: 539
GlyphClass: 2
Flags: W
AnchorPoint: "Anchor-5" -46 0 basechar 0
AnchorPoint: "Anchor-4" 239 0 basechar 0
AnchorPoint: "Anchor-3" 237 517 basechar 0
AnchorPoint: "Anchor-2" -46 0 basechar 0
LayerCount: 2
Fore
SplineSet
422 493.5 m 128,-1,1
 464 460 464 460 487 398 c 1,2,-1
 431 380 l 1,3,4
 399 432 399 432 374.5 452 c 128,-1,5
 350 472 350 472 309 472 c 0,6,7
 230 472 230 472 175.5 413.5 c 128,-1,8
 121 355 121 355 107 258 c 0,9,10
 93 159 93 159 131 100.5 c 128,-1,11
 169 42 169 42 248 42 c 0,12,13
 296 42 296 42 332 67 c 128,-1,14
 368 92 368 92 405 143 c 1,15,-1
 454 124 l 1,16,17
 370 -10 370 -10 237 -10 c 0,18,19
 167 -10 167 -10 119.5 23.5 c 128,-1,20
 72 57 72 57 52.5 117 c 128,-1,21
 33 177 33 177 44 256 c 128,-1,22
 55 335 55 335 91.5 396.5 c 128,-1,23
 128 458 128 458 185.5 492.5 c 128,-1,24
 243 527 243 527 312 527 c 0,25,0
 380 527 380 527 422 493.5 c 128,-1,1
EndSplineSet
EndChar

StartChar: d
Encoding: 100 100 71
Width: 577
GlyphClass: 2
Flags: W
AnchorPoint: "Anchor-5" 551 691 basechar 0
AnchorPoint: "Anchor-4" 240 0 basechar 0
AnchorPoint: "Anchor-3" -46 0 basechar 0
AnchorPoint: "Anchor-2" -46 0 basechar 0
LayerCount: 2
Fore
SplineSet
73.5 57.5 m 128,-1,1
 26 125 26 125 43 251 c 0,2,3
 61 377 61 377 129.5 452 c 128,-1,4
 198 527 198 527 301 527 c 0,5,6
 345 527 345 527 380 511 c 128,-1,7
 415 495 415 495 447 462 c 1,8,-1
 486 743 l 1,9,-1
 549 743 l 1,10,-1
 445 0 l 1,11,-1
 393 0 l 1,12,-1
 401 76 l 1,13,14
 322 -10 322 -10 219 -10 c 0,15,0
 121 -10 121 -10 73.5 57.5 c 128,-1,1
316.5 62.5 m 128,-1,17
 354 83 354 83 378.5 114.5 c 128,-1,18
 403 146 403 146 407 177 c 2,19,-1
 438 395 l 1,20,21
 387 474 387 474 305 474 c 0,22,23
 228 474 228 474 175.5 417 c 128,-1,24
 123 360 123 360 108 255 c 0,25,26
 93 149 93 149 129.5 95.5 c 128,-1,27
 166 42 166 42 238 42 c 0,28,16
 279 42 279 42 316.5 62.5 c 128,-1,17
EndSplineSet
EndChar

StartChar: e
Encoding: 101 101 72
Width: 555
GlyphClass: 2
Flags: W
AnchorPoint: "Anchor-5" -46 0 basechar 0
AnchorPoint: "Anchor-4" 230 0 basechar 0
AnchorPoint: "Anchor-3" 237 517 basechar 0
AnchorPoint: "Anchor-2" 335 19 basechar 0
LayerCount: 2
Fore
SplineSet
132 100 m 128,-1,1
 168 44 168 44 252 44 c 0,2,3
 360 44 360 44 405 130 c 1,4,-1
 461 117 l 1,5,6
 434 57 434 57 376 23.5 c 128,-1,7
 318 -10 318 -10 245 -10 c 0,8,9
 175 -10 175 -10 125 21.5 c 128,-1,10
 75 53 75 53 53.5 112.5 c 128,-1,11
 32 172 32 172 44 254 c 0,12,13
 62 380 62 380 132.5 453.5 c 128,-1,14
 203 527 203 527 311 527 c 0,15,16
 414 527 414 527 461.5 460 c 128,-1,17
 509 393 509 393 493 274 c 2,18,-1
 488 243 l 1,19,-1
 108 243 l 1,20,0
 96 156 96 156 132 100 c 128,-1,1
432 293 m 1,21,22
 443 374 443 374 411 424 c 128,-1,23
 379 474 379 474 303 474 c 0,24,25
 249 474 249 474 208.5 448 c 128,-1,26
 168 422 168 422 145 380.5 c 128,-1,27
 122 339 122 339 115 293 c 1,28,-1
 432 293 l 1,21,22
EndSplineSet
EndChar

StartChar: f
Encoding: 102 102 73
Width: 383
GlyphClass: 2
Flags: W
LayerCount: 2
Fore
SplineSet
366 468 m 1,0,-1
 231 468 l 1,1,-1
 142 -161 l 1,2,-1
 79 -161 l 1,3,-1
 168 468 l 1,4,-1
 51 468 l 1,5,-1
 58 517 l 1,6,-1
 175 517 l 1,7,-1
 186 600 l 2,8,9
 195 662 195 662 228 692.5 c 128,-1,10
 261 723 261 723 321 723 c 2,11,-1
 407 723 l 1,12,-1
 400 675 l 1,13,-1
 318 675 l 2,14,15
 285 675 285 675 270 657 c 128,-1,16
 255 639 255 639 249 601 c 2,17,-1
 238 517 l 1,18,-1
 373 517 l 1,19,-1
 366 468 l 1,0,-1
EndSplineSet
EndChar

StartChar: g
Encoding: 103 103 74
Width: 591
GlyphClass: 2
Flags: W
AnchorPoint: "Anchor-5" -46 0 basechar 0
AnchorPoint: "Anchor-4" -46 0 basechar 0
AnchorPoint: "Anchor-3" 245 517 basechar 0
AnchorPoint: "Anchor-2" -46 0 basechar 0
LayerCount: 2
Fore
SplineSet
39 -133.5 m 128,-1,1
 -19 -96 -19 -96 -10 -30 c 0,2,3
 -4 11 -4 11 24.5 37 c 128,-1,4
 53 63 53 63 75 75 c 128,-1,5
 97 87 97 87 103 90 c 1,6,7
 99 93 99 93 86 101 c 128,-1,8
 73 109 73 109 67 121 c 128,-1,9
 61 133 61 133 63 149 c 0,10,11
 66 172 66 172 91 191 c 128,-1,12
 116 210 116 210 157 220 c 1,13,14
 111 246 111 246 94 279 c 128,-1,15
 77 312 77 312 84 361 c 0,16,17
 95 438 95 438 159 481.5 c 128,-1,18
 223 525 223 525 322 525 c 0,19,20
 369 525 369 525 402.5 513.5 c 128,-1,21
 436 502 436 502 462 478 c 1,22,-1
 590 529 l 1,23,-1
 580 458 l 1,24,-1
 487 440 l 1,25,26
 493 424 493 424 495.5 401 c 128,-1,27
 498 378 498 378 496 361 c 0,28,29
 486 291 486 291 427.5 246 c 128,-1,30
 369 201 369 201 268 201 c 1,31,-1
 248 202 l 1,32,33
 187 201 187 201 158 189 c 128,-1,34
 129 177 129 177 126 160 c 0,35,36
 124 145 124 145 145 138 c 128,-1,37
 166 131 166 131 226 127 c 2,38,-1
 340 120 l 2,39,40
 497 110 497 110 479 -16 c 0,41,42
 469 -89 469 -89 399.5 -130 c 128,-1,43
 330 -171 330 -171 215 -171 c 0,44,0
 97 -171 97 -171 39 -133.5 c 128,-1,1
387 277.5 m 128,-1,46
 427 306 427 306 435 361 c 0,47,48
 443 418 443 418 410.5 448.5 c 128,-1,49
 378 479 378 479 309 479 c 128,-1,50
 240 479 240 479 198 448 c 128,-1,51
 156 417 156 417 148 361 c 0,52,53
 140 306 140 306 173.5 277.5 c 128,-1,54
 207 249 207 249 277 249 c 128,-1,45
 347 249 347 249 387 277.5 c 128,-1,46
415 -22 m 0,55,56
 420 16 420 16 399 37 c 128,-1,57
 378 58 378 58 324 62 c 2,58,-1
 165 72 l 2,59,60
 147 73 147 73 122.5 60.5 c 128,-1,61
 98 48 98 48 78.5 26 c 128,-1,62
 59 4 59 4 55 -23 c 0,63,64
 48 -72 48 -72 94.5 -98 c 128,-1,65
 141 -124 141 -124 234 -124 c 0,66,67
 401 -124 401 -124 415 -22 c 0,55,56
EndSplineSet
EndChar

StartChar: h
Encoding: 104 104 75
Width: 580
GlyphClass: 2
Flags: W
AnchorPoint: "Anchor-5" -46 0 basechar 0
AnchorPoint: "Anchor-4" 253 0 basechar 0
AnchorPoint: "Anchor-3" 292 517 basechar 0
AnchorPoint: "Anchor-2" -46 0 basechar 0
LayerCount: 2
Fore
SplineSet
143 743 m 1,0,-1
 203 743 l 1,1,-1
 161 442 l 1,2,3
 228 488 228 488 268.5 506.5 c 128,-1,4
 309 525 309 525 361 525 c 0,5,6
 437 525 437 525 474 484.5 c 128,-1,7
 511 444 511 444 502 377 c 2,8,-1
 449 0 l 1,9,-1
 385 0 l 1,10,-1
 436 361 l 2,11,12
 451 470 451 470 340 470 c 0,13,14
 296 470 296 470 256.5 451.5 c 128,-1,15
 217 433 217 433 157 388 c 1,16,-1
 102 0 l 1,17,-1
 39 0 l 1,18,-1
 143 743 l 1,0,-1
EndSplineSet
EndChar

StartChar: i
Encoding: 105 105 76
Width: 241
GlyphClass: 2
Flags: W
LayerCount: 2
Fore
SplineSet
199 636 m 1,0,-1
 128 636 l 1,1,-1
 143 743 l 1,2,-1
 214 743 l 1,3,-1
 199 636 l 1,0,-1
106 0 m 1,4,-1
 43 0 l 1,5,-1
 116 517 l 1,6,-1
 179 517 l 1,7,-1
 106 0 l 1,4,-1
EndSplineSet
Substitution2: "Single Substitution lookup 28 subtable" dotlessi
Substitution2: "'locl' Localized Forms in Latin lookup 10 subtable" i.loclTRK
Substitution2: "'locl' Localized Forms in Latin lookup 9 subtable" i.loclTRK
Substitution2: "'locl' Localized Forms in Latin lookup 8 subtable" i.loclTRK
Substitution2: "'locl' Localized Forms in Latin lookup 7 subtable" i.loclTRK
Substitution2: "'locl' Localized Forms in Latin lookup 6 subtable" i.loclTRK
AlternateSubs2: "'aalt' Access All Alternates in Latin lookup 1 subtable" dotlessi i.loclTRK
EndChar

StartChar: j
Encoding: 106 106 77
Width: 265
GlyphClass: 2
Flags: W
LayerCount: 2
Fore
SplineSet
213 636 m 1,0,-1
 141 636 l 1,1,-1
 156 743 l 1,2,-1
 228 743 l 1,3,-1
 213 636 l 1,0,-1
73 -136 m 128,-1,5
 42 -166 42 -166 -28 -166 c 0,6,7
 -64 -166 -64 -166 -77.5 -162 c 128,-1,8
 -91 -158 -91 -158 -91 -156 c 2,9,-1
 -85 -114 l 1,10,-1
 -28 -112 l 2,11,12
 9 -111 9 -111 27 -93 c 128,-1,13
 45 -75 45 -75 51 -34 c 2,14,-1
 129 517 l 1,15,-1
 192 517 l 1,16,-1
 114 -38 l 2,17,4
 104 -106 104 -106 73 -136 c 128,-1,5
EndSplineSet
Substitution2: "Single Substitution lookup 28 subtable" uni0237
Substitution2: "'aalt' Access All Alternates in Latin lookup 0 subtable" uni0237
EndChar

StartChar: k
Encoding: 107 107 78
Width: 550
GlyphClass: 2
Flags: W
AnchorPoint: "Anchor-5" -46 0 basechar 0
AnchorPoint: "Anchor-4" 228 0 basechar 0
AnchorPoint: "Anchor-3" -46 0 basechar 0
AnchorPoint: "Anchor-2" -46 0 basechar 0
LayerCount: 2
Fore
SplineSet
397 0 m 1,0,-1
 262 279 l 1,1,-1
 124 156 l 1,2,-1
 102 0 l 1,3,-1
 39 0 l 1,4,-1
 143 743 l 1,5,-1
 206 743 l 1,6,-1
 135 232 l 1,7,-1
 449 517 l 1,8,-1
 525 517 l 1,9,-1
 313 325 l 1,10,-1
 468 0 l 1,11,-1
 397 0 l 1,0,-1
EndSplineSet
EndChar

StartChar: l
Encoding: 108 108 79
Width: 277
GlyphClass: 2
Flags: W
AnchorPoint: "Anchor-5" 225 730 basechar 0
AnchorPoint: "Anchor-4" 65 0 basechar 0
AnchorPoint: "Anchor-3" 67 762 basechar 0
AnchorPoint: "Anchor-2" -46 0 basechar 0
LayerCount: 2
Fore
SplineSet
69 34.5 m 128,-1,1
 49 70 49 70 57 131 c 2,2,-1
 143 743 l 1,3,-1
 205 743 l 1,4,-1
 120 135 l 2,5,6
 114 92 114 92 127.5 70.5 c 128,-1,7
 141 49 141 49 166 48 c 2,8,-1
 197 48 l 1,9,-1
 191 5 l 1,10,11
 169 -1 169 -1 150 -1 c 0,12,0
 89 -1 89 -1 69 34.5 c 128,-1,1
EndSplineSet
Substitution2: "'ss01' Style Set 1 in Latin lookup 27 subtable" l.ss01
Substitution2: "'salt' Stylistic Alternatives in Latin lookup 26 subtable" l.ss01
Substitution2: "'aalt' Access All Alternates in Latin lookup 0 subtable" l.ss01
EndChar

StartChar: m
Encoding: 109 109 80
Width: 894
GlyphClass: 2
Flags: W
LayerCount: 2
Fore
SplineSet
112 517 m 1,0,-1
 172 517 l 1,1,-1
 161 442 l 1,2,3
 188 478 188 478 232 502.5 c 128,-1,4
 276 527 276 527 332 527 c 0,5,6
 390 527 390 527 431 505.5 c 128,-1,7
 472 484 472 484 484 443 c 1,8,9
 515 483 515 483 559 505 c 128,-1,10
 603 527 603 527 659 527 c 0,11,12
 734 527 734 527 779.5 486 c 128,-1,13
 825 445 825 445 810 340 c 2,14,-1
 762 0 l 1,15,-1
 699 0 l 1,16,-1
 746 336 l 2,17,18
 757 413 757 413 727 443 c 128,-1,19
 697 473 697 473 637 473 c 0,20,21
 578 473 578 473 534.5 445 c 128,-1,22
 491 417 491 417 481 352 c 2,23,-1
 432 0 l 1,24,-1
 368 0 l 1,25,-1
 420 371 l 2,26,27
 427 420 427 420 394.5 446.5 c 128,-1,28
 362 473 362 473 307 473 c 0,29,30
 274 473 274 473 240.5 460.5 c 128,-1,31
 207 448 207 448 182.5 422 c 128,-1,32
 158 396 158 396 152 357 c 2,33,-1
 102 0 l 1,34,-1
 39 0 l 1,35,-1
 112 517 l 1,0,-1
EndSplineSet
EndChar

StartChar: n
Encoding: 110 110 81
Width: 580
GlyphClass: 2
Flags: W
AnchorPoint: "Anchor-5" -46 0 basechar 0
AnchorPoint: "Anchor-4" 245 0 basechar 0
AnchorPoint: "Anchor-3" 253 517 basechar 0
AnchorPoint: "Anchor-2" -46 0 basechar 0
LayerCount: 2
Fore
SplineSet
112 517 m 1,0,-1
 172 517 l 1,1,-1
 161 442 l 1,2,3
 188 480 188 480 235 503 c 128,-1,4
 282 526 282 526 342 526 c 0,5,6
 422 526 422 526 465.5 477.5 c 128,-1,7
 509 429 509 429 496 337 c 2,8,-1
 449 0 l 1,9,-1
 385 0 l 1,10,-1
 432 333 l 2,11,12
 441 399 441 399 411.5 434.5 c 128,-1,13
 382 470 382 470 322 470 c 0,14,15
 256 470 256 470 208 440 c 128,-1,16
 160 410 160 410 152 354 c 2,17,-1
 102 0 l 1,18,-1
 39 0 l 1,19,-1
 112 517 l 1,0,-1
EndSplineSet
EndChar

StartChar: o
Encoding: 111 111 82
Width: 567
GlyphClass: 2
Flags: W
AnchorPoint: "Anchor-5" -46 0 basechar 0
AnchorPoint: "Anchor-4" 236 0 basechar 0
AnchorPoint: "Anchor-3" 239 517 basechar 0
AnchorPoint: "Anchor-2" 302 10 basechar 0
LayerCount: 2
Fore
SplineSet
77.5 62.5 m 128,-1,1
 27 135 27 135 44 255 c 0,2,3
 55 335 55 335 91 396.5 c 128,-1,4
 127 458 127 458 184 492.5 c 128,-1,5
 241 527 241 527 312 527 c 128,-1,6
 383 527 383 527 430 493 c 128,-1,7
 477 459 477 459 495 397.5 c 128,-1,8
 513 336 513 336 502 257 c 128,-1,9
 491 178 491 178 455.5 117.5 c 128,-1,10
 420 57 420 57 363.5 23.5 c 128,-1,11
 307 -10 307 -10 236 -10 c 0,12,0
 128 -10 128 -10 77.5 62.5 c 128,-1,1
374.5 101.5 m 128,-1,14
 424 160 424 160 438 258 c 128,-1,15
 452 356 452 356 418.5 414.5 c 128,-1,16
 385 473 385 473 304 473 c 128,-1,17
 223 473 223 473 173 414 c 128,-1,18
 123 355 123 355 109 258 c 128,-1,19
 95 161 95 161 129.5 102 c 128,-1,20
 164 43 164 43 245 43 c 0,21,13
 325 43 325 43 374.5 101.5 c 128,-1,14
EndSplineSet
Substitution2: "Single Substitution lookup 30 subtable" ordmasculine
Substitution2: "'aalt' Access All Alternates in Latin lookup 0 subtable" ordmasculine
EndChar

StartChar: p
Encoding: 112 112 83
Width: 587
GlyphClass: 2
Flags: W
LayerCount: 2
Fore
SplineSet
112 517 m 1,0,-1
 174 517 l 1,1,-1
 163 443 l 1,2,3
 194 476 194 476 235 501.5 c 128,-1,4
 276 527 276 527 340 527 c 0,5,6
 403 527 403 527 448.5 497.5 c 128,-1,7
 494 468 494 468 514.5 409.5 c 128,-1,8
 535 351 535 351 524 267 c 0,9,10
 512 183 512 183 473.5 120 c 128,-1,11
 435 57 435 57 378 23.5 c 128,-1,12
 321 -10 321 -10 253 -10 c 0,13,14
 209 -10 209 -10 174.5 4 c 128,-1,15
 140 18 140 18 109 51 c 1,16,-1
 79 -161 l 1,17,-1
 16 -161 l 1,18,-1
 112 517 l 1,0,-1
347 68.5 m 128,-1,20
 391 95 391 95 420.5 145 c 128,-1,21
 450 195 450 195 460 263 c 0,22,23
 470 332 470 332 453 379.5 c 128,-1,24
 436 427 436 427 401 450.5 c 128,-1,25
 366 474 366 474 319 474 c 0,26,27
 277 474 277 474 239.5 454.5 c 128,-1,28
 202 435 202 435 178.5 405 c 128,-1,29
 155 375 155 375 151 346 c 2,30,-1
 119 120 l 1,31,32
 174 42 174 42 252 42 c 0,33,19
 303 42 303 42 347 68.5 c 128,-1,20
EndSplineSet
EndChar

StartChar: q
Encoding: 113 113 84
Width: 587
GlyphClass: 2
Flags: W
LayerCount: 2
Fore
SplineSet
369 -161 m 1,0,-1
 399 50 l 1,1,2
 357 18 357 18 318.5 4 c 128,-1,3
 280 -10 280 -10 237 -10 c 0,4,5
 168 -10 168 -10 120.5 23.5 c 128,-1,6
 73 57 73 57 53.5 119.5 c 128,-1,7
 34 182 34 182 46 267 c 0,8,9
 58 351 58 351 94.5 409.5 c 128,-1,10
 131 468 131 468 185 497.5 c 128,-1,11
 239 527 239 527 301 527 c 0,12,13
 346 527 346 527 377.5 512.5 c 128,-1,14
 409 498 409 498 420 487 c 128,-1,15
 431 476 431 476 457 446 c 1,16,-1
 467 517 l 1,17,-1
 528 517 l 1,18,-1
 432 -161 l 1,19,-1
 369 -161 l 1,0,-1
410 126 m 1,20,-1
 440 341 l 2,21,22
 444 373 444 373 429 404 c 128,-1,23
 414 435 414 435 383 455 c 128,-1,24
 352 475 352 475 310 475 c 0,25,26
 263 475 263 475 221.5 452 c 128,-1,27
 180 429 180 429 150.5 381.5 c 128,-1,28
 121 334 121 334 111 264 c 0,29,30
 101 196 101 196 116.5 145.5 c 128,-1,31
 132 95 132 95 168 68 c 128,-1,32
 204 41 204 41 255 41 c 0,33,34
 333 41 333 41 410 126 c 1,20,-1
EndSplineSet
EndChar

StartChar: r
Encoding: 114 114 85
Width: 371
GlyphClass: 2
Flags: W
AnchorPoint: "Anchor-5" -46 0 basechar 0
AnchorPoint: "Anchor-4" 72 0 basechar 0
AnchorPoint: "Anchor-3" 160 517 basechar 0
AnchorPoint: "Anchor-2" -46 0 basechar 0
LayerCount: 2
Fore
SplineSet
112 517 m 1,0,-1
 171 517 l 1,1,-1
 156 416 l 1,2,3
 191 464 191 464 251 495.5 c 128,-1,4
 311 527 311 527 366 527 c 1,5,-1
 357 465 l 1,6,7
 310 466 310 466 263.5 446 c 128,-1,8
 217 426 217 426 185 393 c 128,-1,9
 153 360 153 360 148 327 c 2,10,-1
 102 0 l 1,11,-1
 39 0 l 1,12,-1
 112 517 l 1,0,-1
EndSplineSet
EndChar

StartChar: s
Encoding: 115 115 86
Width: 502
GlyphClass: 2
Flags: W
AnchorPoint: "Anchor-5" -46 0 basechar 0
AnchorPoint: "Anchor-4" 202 0 basechar 0
AnchorPoint: "Anchor-3" 196 517 basechar 0
AnchorPoint: "Anchor-2" -46 0 basechar 0
LayerCount: 2
Fore
SplineSet
73 28 m 128,-1,1
 25 66 25 66 21 129 c 1,2,-1
 79 142 l 1,3,4
 94 41 94 41 209 41 c 0,5,6
 268 41 268 41 314 66.5 c 128,-1,7
 360 92 360 92 366 136 c 0,8,9
 376 204 376 204 296 225 c 2,10,-1
 186 250 l 2,11,12
 121 266 121 266 94.5 298 c 128,-1,13
 68 330 68 330 75 378 c 0,14,15
 85 448 85 448 140.5 487.5 c 128,-1,16
 196 527 196 527 282 527 c 0,17,18
 371 527 371 527 414 486 c 128,-1,19
 457 445 457 445 452 383 c 1,20,-1
 394 375 l 1,21,22
 389 476 389 476 274 476 c 0,23,24
 222 476 222 476 183 453.5 c 128,-1,25
 144 431 144 431 136 380 c 0,26,27
 132 354 132 354 149 335 c 128,-1,28
 166 316 166 316 216 303 c 2,29,-1
 326 274 l 2,30,31
 388 258 388 258 410.5 221.5 c 128,-1,32
 433 185 433 185 426 138 c 0,33,34
 420 95 420 95 390 61.5 c 128,-1,35
 360 28 360 28 311 9 c 128,-1,36
 262 -10 262 -10 202 -10 c 0,37,0
 121 -10 121 -10 73 28 c 128,-1,1
EndSplineSet
EndChar

StartChar: t
Encoding: 116 116 87
Width: 376
GlyphClass: 2
Flags: W
AnchorPoint: "Anchor-5" 324 745 basechar 0
AnchorPoint: "Anchor-4" 212 0 basechar 0
AnchorPoint: "Anchor-3" -46 0 basechar 0
AnchorPoint: "Anchor-2" -46 0 basechar 0
LayerCount: 2
Fore
SplineSet
218 468 m 1,0,-1
 170 126 l 2,1,2
 164 80 164 80 174.5 64 c 128,-1,3
 185 48 185 48 214 48 c 2,4,-1
 283 48 l 1,5,-1
 277 5 l 1,6,7
 255 -1 255 -1 206 -1 c 0,8,9
 140 -1 140 -1 118 27.5 c 128,-1,10
 96 56 96 56 105 120 c 2,11,-1
 154 468 l 1,12,-1
 70 468 l 1,13,-1
 77 517 l 1,14,-1
 162 517 l 1,15,-1
 191 690 l 1,16,-1
 249 690 l 1,17,-1
 225 517 l 1,18,-1
 343 517 l 1,19,-1
 336 468 l 1,20,-1
 218 468 l 1,0,-1
EndSplineSet
EndChar

StartChar: u
Encoding: 117 117 88
Width: 580
GlyphClass: 2
Flags: W
AnchorPoint: "Anchor-5" -46 0 basechar 0
AnchorPoint: "Anchor-4" 243 0 basechar 0
AnchorPoint: "Anchor-3" 233 517 basechar 0
AnchorPoint: "Anchor-2" 436 11 basechar 0
LayerCount: 2
Fore
SplineSet
144 9 m 128,-1,1
 102 27 102 27 78 67.5 c 128,-1,2
 54 108 54 108 63 171 c 2,3,-1
 112 519 l 1,4,-1
 175 519 l 1,5,-1
 127 175 l 2,6,7
 117 106 117 106 154.5 75 c 128,-1,8
 192 44 192 44 247 44 c 0,9,10
 306 44 306 44 353 80 c 128,-1,11
 400 116 400 116 411 182 c 2,12,-1
 458 519 l 1,13,-1
 522 519 l 1,14,-1
 448 1 l 1,15,-1
 395 1 l 1,16,-1
 405 83 l 1,17,18
 385 48 385 48 335 19.5 c 128,-1,19
 285 -9 285 -9 234 -9 c 0,20,0
 186 -9 186 -9 144 9 c 128,-1,1
EndSplineSet
EndChar

StartChar: v
Encoding: 118 118 89
Width: 522
GlyphClass: 2
Flags: W
LayerCount: 2
Fore
SplineSet
243 0 m 1,0,-1
 187 0 l 1,1,-1
 51 517 l 1,2,-1
 113 517 l 1,3,-1
 227 80 l 1,4,-1
 464 517 l 1,5,-1
 524 517 l 1,6,-1
 243 0 l 1,0,-1
EndSplineSet
EndChar

StartChar: w
Encoding: 119 119 90
Width: 766
GlyphClass: 2
Flags: W
AnchorPoint: "Anchor-5" -46 0 basechar 0
AnchorPoint: "Anchor-4" -46 0 basechar 0
AnchorPoint: "Anchor-3" 341 517 basechar 0
AnchorPoint: "Anchor-2" -46 0 basechar 0
LayerCount: 2
Fore
SplineSet
538 0 m 1,0,-1
 471 0 l 1,1,-1
 396 419 l 1,2,-1
 211 0 l 1,3,-1
 143 0 l 1,4,-1
 55 517 l 1,5,-1
 117 517 l 1,6,-1
 189 78 l 1,7,-1
 384 517 l 1,8,-1
 436 517 l 1,9,-1
 514 79 l 1,10,-1
 704 517 l 1,11,-1
 765 517 l 1,12,-1
 538 0 l 1,0,-1
EndSplineSet
EndChar

StartChar: x
Encoding: 120 120 91
Width: 520
GlyphClass: 2
Flags: W
LayerCount: 2
Fore
SplineSet
379 0 m 1,0,-1
 245 221 l 1,1,-1
 50 0 l 1,2,-1
 -23 0 l 1,3,-1
 215 268 l 1,4,-1
 65 517 l 1,5,-1
 138 517 l 1,6,-1
 258 316 l 1,7,-1
 436 517 l 1,8,-1
 509 517 l 1,9,-1
 289 268 l 1,10,-1
 451 0 l 1,11,-1
 379 0 l 1,0,-1
EndSplineSet
EndChar

StartChar: y
Encoding: 121 121 92
Width: 509
GlyphClass: 2
Flags: W
AnchorPoint: "Anchor-5" -46 0 basechar 0
AnchorPoint: "Anchor-4" -46 0 basechar 0
AnchorPoint: "Anchor-3" 214 517 basechar 0
AnchorPoint: "Anchor-2" -46 0 basechar 0
LayerCount: 2
Fore
SplineSet
-6.5 -161 m 128,-1,1
 -24 -157 -24 -157 -24 -155 c 2,2,-1
 -18 -113 l 1,3,-1
 36 -113 l 2,4,5
 83 -114 83 -114 108 -98 c 128,-1,6
 133 -82 133 -82 150 -53 c 2,7,-1
 181 7 l 1,8,-1
 51 517 l 1,9,-1
 116 517 l 1,10,-1
 223 84 l 1,11,-1
 450 517 l 1,12,-1
 512 517 l 1,13,-1
 209 -59 l 2,14,15
 177 -117 177 -117 137 -141 c 128,-1,16
 97 -165 97 -165 45 -165 c 0,17,0
 11 -165 11 -165 -6.5 -161 c 128,-1,1
EndSplineSet
EndChar

StartChar: z
Encoding: 122 122 93
Width: 477
GlyphClass: 2
Flags: W
AnchorPoint: "Anchor-5" -46 0 basechar 0
AnchorPoint: "Anchor-4" -46 0 basechar 0
AnchorPoint: "Anchor-3" 209 517 basechar 0
AnchorPoint: "Anchor-2" -46 0 basechar 0
LayerCount: 2
Fore
SplineSet
5 46 m 1,0,-1
 377 470 l 1,1,-1
 86 470 l 1,2,-1
 93 517 l 1,3,-1
 458 517 l 1,4,-1
 451 469 l 1,5,-1
 80 48 l 1,6,-1
 398 48 l 1,7,-1
 391 0 l 1,8,-1
 -1 0 l 1,9,-1
 5 46 l 1,0,-1
EndSplineSet
EndChar

StartChar: braceleft
Encoding: 123 123 94
Width: 294
GlyphClass: 2
Flags: W
LayerCount: 2
Fore
SplineSet
202 697.5 m 128,-1,1
 237 723 237 723 291 723 c 2,2,-1
 329 723 l 1,3,-1
 322 676 l 1,4,-1
 290 676 l 2,5,6
 256 676 256 676 240.5 664 c 128,-1,7
 225 652 225 652 221 625 c 2,8,-1
 190 405 l 2,9,10
 182 350 182 350 151 320 c 128,-1,11
 120 290 120 290 78 286 c 0,12,13
 72 285 72 285 71 282.5 c 128,-1,14
 70 280 70 280 77 279 c 0,15,16
 119 276 119 276 141.5 247.5 c 128,-1,17
 164 219 164 219 156 162 c 2,18,-1
 124 -61 l 2,19,20
 120 -90 120 -90 132 -102 c 128,-1,21
 144 -114 144 -114 180 -114 c 2,22,-1
 211 -114 l 1,23,-1
 204 -161 l 1,24,-1
 167 -161 l 2,25,26
 111 -161 111 -161 84.5 -134.5 c 128,-1,27
 58 -108 58 -108 64 -64 c 2,28,-1
 95 159 l 2,29,30
 100 198 100 198 74.5 228.5 c 128,-1,31
 49 259 49 259 -4 259 c 1,32,-1
 3 305 l 1,33,34
 59 306 59 306 91.5 335 c 128,-1,35
 124 364 124 364 131 410 c 2,36,-1
 161 629 l 2,37,0
 167 672 167 672 202 697.5 c 128,-1,1
EndSplineSet
EndChar

StartChar: bar
Encoding: 124 124 95
Width: 258
GlyphClass: 2
Flags: W
LayerCount: 2
Fore
SplineSet
33 -161 m 1,0,-1
 171 826 l 1,1,-1
 225 826 l 1,2,-1
 86 -161 l 1,3,-1
 33 -161 l 1,0,-1
EndSplineSet
EndChar

StartChar: braceright
Encoding: 125 125 96
Width: 294
GlyphClass: 2
Flags: W
LayerCount: 2
Fore
SplineSet
123 -135.5 m 128,-1,1
 88 -161 88 -161 34 -161 c 2,2,-1
 -4 -161 l 1,3,-1
 3 -114 l 1,4,-1
 35 -114 l 2,5,6
 69 -114 69 -114 84.5 -102 c 128,-1,7
 100 -90 100 -90 104 -63 c 2,8,-1
 135 157 l 2,9,10
 143 212 143 212 174 242 c 128,-1,11
 205 272 205 272 247 276 c 0,12,13
 253 277 253 277 254 279.5 c 128,-1,14
 255 282 255 282 248 283 c 0,15,16
 206 286 206 286 183.5 314.5 c 128,-1,17
 161 343 161 343 169 400 c 2,18,-1
 201 623 l 2,19,20
 205 652 205 652 193 664 c 128,-1,21
 181 676 181 676 145 676 c 2,22,-1
 114 676 l 1,23,-1
 121 723 l 1,24,-1
 158 723 l 2,25,26
 214 723 214 723 240.5 696.5 c 128,-1,27
 267 670 267 670 261 626 c 2,28,-1
 230 403 l 2,29,30
 225 364 225 364 250.5 333.5 c 128,-1,31
 276 303 276 303 329 303 c 1,32,-1
 322 257 l 1,33,34
 266 256 266 256 233.5 227 c 128,-1,35
 201 198 201 198 194 152 c 2,36,-1
 164 -67 l 2,37,0
 158 -110 158 -110 123 -135.5 c 128,-1,1
EndSplineSet
EndChar

StartChar: asciitilde
Encoding: 126 126 97
Width: 547
GlyphClass: 2
Flags: W
LayerCount: 2
Fore
SplineSet
440 333 m 128,-1,1
 408 318 408 318 367 318 c 0,2,3
 340 318 340 318 320 324 c 128,-1,4
 300 330 300 330 271 343 c 0,5,6
 246 354 246 354 229 359.5 c 128,-1,7
 212 365 212 365 190 365 c 0,8,9
 155 365 155 365 128.5 351.5 c 128,-1,10
 102 338 102 338 77 316 c 1,11,-1
 64 357 l 1,12,13
 97 384 97 384 126.5 399 c 128,-1,14
 156 414 156 414 195 414 c 0,15,16
 220 414 220 414 240.5 407.5 c 128,-1,17
 261 401 261 401 287 389 c 0,18,19
 292 387 292 387 308.5 380 c 128,-1,20
 325 373 325 373 341 369.5 c 128,-1,21
 357 366 357 366 373 366 c 0,22,23
 408 366 408 366 431.5 379 c 128,-1,24
 455 392 455 392 477 414 c 1,25,-1
 490 371 l 1,26,0
 472 348 472 348 440 333 c 128,-1,1
EndSplineSet
EndChar

StartChar: exclamdown
Encoding: 161 161 99
Width: 238
GlyphClass: 2
Flags: W
LayerCount: 2
Fore
SplineSet
90 422 m 1,0,-1
 104 517 l 1,1,-1
 186 517 l 1,2,-1
 172 422 l 1,3,-1
 90 422 l 1,0,-1
10 -161 m 1,4,-1
 100 354 l 1,5,-1
 145 354 l 1,6,-1
 89 -161 l 1,7,-1
 10 -161 l 1,4,-1
EndSplineSet
EndChar

StartChar: cent
Encoding: 162 162 100
Width: 534
GlyphClass: 2
Flags: W
AnchorPoint: "Anchor-1" 240 628 basechar 0
AnchorPoint: "Anchor-0" 242 111 basechar 0
LayerCount: 2
Fore
SplineSet
276 102 m 1,0,-1
 262 0 l 1,1,-1
 209 0 l 1,2,-1
 223 103 l 1,3,4
 134 114 134 114 90.5 185.5 c 128,-1,5
 47 257 47 257 63 367 c 0,6,7
 79 478 79 478 142.5 551 c 128,-1,8
 206 624 206 624 298 636 c 1,9,-1
 311 723 l 1,10,-1
 364 723 l 1,11,-1
 352 637 l 1,12,13
 410 632 410 632 447 599 c 128,-1,14
 484 566 484 566 506 509 c 1,15,-1
 450 491 l 1,16,17
 418 543 418 543 393.5 563 c 128,-1,18
 369 583 369 583 328 583 c 0,19,20
 249 583 249 583 194 524.5 c 128,-1,21
 139 466 139 466 126 369 c 0,22,23
 112 270 112 270 150 211.5 c 128,-1,24
 188 153 188 153 267 153 c 0,25,26
 315 153 315 153 351 178 c 128,-1,27
 387 203 387 203 424 254 c 1,28,-1
 473 235 l 1,29,30
 396 112 396 112 276 102 c 1,0,-1
EndSplineSet
EndChar

StartChar: sterling
Encoding: 163 163 101
Width: 597
GlyphClass: 2
Flags: W
LayerCount: 2
Fore
SplineSet
-25 57 m 1,0,-1
 15 57 l 2,1,2
 55 57 55 57 86.5 96.5 c 128,-1,3
 118 136 118 136 129 212 c 0,4,5
 137 267 137 267 136 347 c 1,6,-1
 36 347 l 1,7,-1
 42 394 l 1,8,-1
 134 394 l 1,9,-1
 128 472 l 2,10,11
 125 509 125 509 129 536 c 0,12,13
 137 596 137 596 171 640.5 c 128,-1,14
 205 685 205 685 254.5 709 c 128,-1,15
 304 733 304 733 358 733 c 0,16,17
 422 733 422 733 470.5 702 c 128,-1,18
 519 671 519 671 531 628 c 1,19,-1
 471 604 l 1,20,21
 457 640 457 640 430.5 657 c 128,-1,22
 404 674 404 674 357 674 c 0,23,24
 297 674 297 674 252.5 640.5 c 128,-1,25
 208 607 208 607 200 548 c 0,26,27
 196 516 196 516 197.5 474.5 c 128,-1,28
 199 433 199 433 206 395 c 1,29,-1
 375 395 l 1,30,-1
 368 348 l 1,31,-1
 206 348 l 1,32,33
 207 287 207 287 201 242 c 0,34,35
 191 169 191 169 166.5 125 c 128,-1,36
 142 81 142 81 117 58 c 1,37,-1
 312 58 l 2,38,39
 366 58 366 58 401.5 77 c 128,-1,40
 437 96 437 96 461 140 c 1,41,-1
 514 122 l 1,42,43
 451 0 451 0 307 0 c 2,44,-1
 -33 0 l 1,45,-1
 -25 57 l 1,0,-1
EndSplineSet
EndChar

StartChar: currency
Encoding: 164 164 102
Width: 518
GlyphClass: 2
Flags: W
LayerCount: 2
Fore
SplineSet
141 217 m 0,0,1
 136 223 136 223 129 216 c 2,2,-1
 71 164 l 1,3,-1
 40 202 l 1,4,-1
 104 257 l 1,5,6
 78 305 78 305 86 364 c 0,7,8
 94 419 94 419 130 462 c 0,9,10
 135 470 135 470 131 475 c 2,11,-1
 87 526 l 1,12,-1
 129 562 l 1,13,-1
 177 505 l 1,14,15
 200 521 200 521 229 530 c 128,-1,16
 258 539 258 539 287 539 c 0,17,18
 343 539 343 539 381 509 c 0,19,20
 386 504 386 504 393 510 c 2,21,-1
 453 563 l 1,22,-1
 483 526 l 1,23,-1
 418 468 l 1,24,25
 445 419 445 419 437 364 c 0,26,27
 429 307 429 307 393 266 c 0,28,29
 387 260 387 260 393 254 c 2,30,-1
 439 203 l 1,31,-1
 398 166 l 1,32,-1
 348 223 l 1,33,34
 292 187 292 187 237 187 c 0,35,36
 183 187 183 187 141 217 c 0,0,1
337.5 278 m 128,-1,38
 377 314 377 314 384 364 c 0,39,40
 388 396 388 396 377 424 c 128,-1,41
 366 452 366 452 340.5 469 c 128,-1,42
 315 486 315 486 281 486 c 128,-1,43
 247 486 247 486 217 469 c 128,-1,44
 187 452 187 452 167 424 c 128,-1,45
 147 396 147 396 142 364 c 0,46,47
 138 332 138 332 150 304 c 128,-1,48
 162 276 162 276 187.5 259 c 128,-1,49
 213 242 213 242 247 242 c 0,50,37
 298 242 298 242 337.5 278 c 128,-1,38
EndSplineSet
EndChar

StartChar: yen
Encoding: 165 165 103
Width: 584
GlyphClass: 2
Flags: W
LayerCount: 2
Fore
SplineSet
340 333 m 1,0,-1
 487 333 l 1,1,-1
 480 287 l 1,2,-1
 325 287 l 1,3,-1
 312 192 l 1,4,-1
 467 192 l 1,5,-1
 460 145 l 1,6,-1
 305 145 l 1,7,-1
 285 0 l 1,8,-1
 213 0 l 1,9,-1
 233 144 l 1,10,-1
 78 144 l 1,11,-1
 85 191 l 1,12,-1
 240 191 l 1,13,-1
 253 286 l 1,14,-1
 98 286 l 1,15,-1
 105 333 l 1,16,-1
 242 333 l 1,17,-1
 66 723 l 1,18,-1
 148 723 l 1,19,-1
 304 370 l 1,20,-1
 561 723 l 1,21,-1
 631 723 l 1,22,-1
 340 333 l 1,0,-1
EndSplineSet
EndChar

StartChar: brokenbar
Encoding: 166 166 104
Width: 258
GlyphClass: 2
Flags: W
LayerCount: 2
Fore
SplineSet
116 429 m 1,0,-1
 171 826 l 1,1,-1
 225 826 l 1,2,-1
 169 429 l 1,3,-1
 116 429 l 1,0,-1
33 -161 m 1,4,-1
 88 236 l 1,5,-1
 142 236 l 1,6,-1
 86 -161 l 1,7,-1
 33 -161 l 1,4,-1
EndSplineSet
EndChar

StartChar: section
Encoding: 167 167 105
Width: 475
GlyphClass: 2
Flags: W
LayerCount: 2
Fore
SplineSet
71.5 -37 m 128,-1,1
 19 -5 19 -5 0 47 c 1,2,-1
 48 72 l 1,3,4
 67 31 67 31 106.5 6.5 c 128,-1,5
 146 -18 146 -18 199 -18 c 0,6,7
 253 -18 253 -18 290.5 3.5 c 128,-1,8
 328 25 328 25 333 63 c 0,9,10
 337 93 337 93 317 117.5 c 128,-1,11
 297 142 297 142 240 166 c 2,12,-1
 154 201 l 2,13,14
 94 225 94 225 70.5 259.5 c 128,-1,15
 47 294 47 294 54 340 c 0,16,17
 60 385 60 385 93.5 418.5 c 128,-1,18
 127 452 127 452 176 469 c 1,19,20
 121 499 121 499 104 530 c 128,-1,21
 87 561 87 561 92 601 c 0,22,23
 97 638 97 638 124 668.5 c 128,-1,24
 151 699 151 699 194 716 c 128,-1,25
 237 733 237 733 290 733 c 0,26,27
 350 733 350 733 394.5 705 c 128,-1,28
 439 677 439 677 461 635 c 1,29,-1
 412 609 l 1,30,31
 391 643 391 643 359.5 663 c 128,-1,32
 328 683 328 683 288 683 c 0,33,34
 231 683 231 683 195.5 662 c 128,-1,35
 160 641 160 641 155 605 c 0,36,37
 151 579 151 579 168 556.5 c 128,-1,38
 185 534 185 534 231 514 c 2,39,-1
 312 479 l 2,40,41
 382 449 382 449 409.5 410.5 c 128,-1,42
 437 372 437 372 430 322 c 0,43,44
 423 275 423 275 394 245.5 c 128,-1,45
 365 216 365 216 319 195 c 1,46,47
 362 168 362 168 382 137.5 c 128,-1,48
 402 107 402 107 396 67 c 0,49,50
 391 28 391 28 363.5 -3 c 128,-1,51
 336 -34 336 -34 291 -51.5 c 128,-1,52
 246 -69 246 -69 191 -69 c 0,53,0
 124 -69 124 -69 71.5 -37 c 128,-1,1
328.5 248 m 128,-1,55
 363 274 363 274 368 311 c 128,-1,56
 373 348 373 348 358 373 c 128,-1,57
 343 398 343 398 293 419 c 2,58,-1
 236 442 l 1,59,60
 191 438 191 438 155.5 410 c 128,-1,61
 120 382 120 382 115 347 c 0,62,63
 111 316 111 316 127 295.5 c 128,-1,64
 143 275 143 275 194 253 c 2,65,-1
 255 225 l 1,66,54
 294 222 294 222 328.5 248 c 128,-1,55
EndSplineSet
EndChar

StartChar: dieresis
Encoding: 168 168 106
Width: 218
GlyphClass: 2
Flags: W
LayerCount: 2
Fore
SplineSet
119 621 m 1,0,-1
 52 621 l 1,1,-1
 67 723 l 1,2,-1
 134 723 l 1,3,-1
 119 621 l 1,0,-1
247 621 m 1,4,-1
 180 621 l 1,5,-1
 195 723 l 1,6,-1
 262 723 l 1,7,-1
 247 621 l 1,4,-1
EndSplineSet
EndChar

StartChar: copyright
Encoding: 169 169 107
Width: 813
GlyphClass: 2
Flags: W
LayerCount: 2
Fore
SplineSet
179.5 39.5 m 128,-1,1
 101 89 101 89 63 174.5 c 128,-1,2
 25 260 25 260 39 362 c 0,3,4
 53 462 53 462 115 547.5 c 128,-1,5
 177 633 177 633 269.5 683 c 128,-1,6
 362 733 362 733 463 733 c 0,7,8
 563 733 563 733 641.5 683 c 128,-1,9
 720 633 720 633 758 547.5 c 128,-1,10
 796 462 796 462 782 362 c 0,11,12
 768 260 768 260 706 175 c 128,-1,13
 644 90 644 90 552 40 c 128,-1,14
 460 -10 460 -10 359 -10 c 128,-1,0
 258 -10 258 -10 179.5 39.5 c 128,-1,1
529.5 82 m 128,-1,16
 608 122 608 122 661.5 194.5 c 128,-1,17
 715 267 715 267 728 362 c 0,18,19
 741 455 741 455 708 528 c 128,-1,20
 675 601 675 601 608 641.5 c 128,-1,21
 541 682 541 682 456 682 c 0,22,23
 369 682 369 682 290 641.5 c 128,-1,24
 211 601 211 601 158.5 528.5 c 128,-1,25
 106 456 106 456 93 362 c 0,26,27
 80 267 80 267 112 194 c 128,-1,28
 144 121 144 121 211 81.5 c 128,-1,29
 278 42 278 42 366 42 c 0,30,15
 451 42 451 42 529.5 82 c 128,-1,16
588 473 m 1,31,-1
 535 454 l 1,32,33
 503 527 503 527 439 527 c 0,34,35
 382 527 382 527 339.5 482.5 c 128,-1,36
 297 438 297 438 286 366 c 0,37,38
 276 292 276 292 306 247 c 128,-1,39
 336 202 336 202 394 202 c 0,40,41
 432 202 432 202 465.5 223 c 128,-1,42
 499 244 499 244 523 281 c 1,43,-1
 562 262 l 1,44,45
 528 214 528 214 482.5 184.5 c 128,-1,46
 437 155 437 155 384 155 c 0,47,48
 329 155 329 155 290 181 c 128,-1,49
 251 207 251 207 234 254.5 c 128,-1,50
 217 302 217 302 226 364 c 0,51,52
 235 425 235 425 265.5 473 c 128,-1,53
 296 521 296 521 342.5 547.5 c 128,-1,54
 389 574 389 574 443 574 c 0,55,56
 540 574 540 574 588 473 c 1,31,-1
EndSplineSet
EndChar

StartChar: ordfeminine
Encoding: 170 170 108
Width: 420
GlyphClass: 2
Flags: W
LayerCount: 2
Fore
SplineSet
96.5 419 m 128,-1,1
 71 443 71 443 77 485 c 0,2,3
 84 532 84 532 127.5 559 c 128,-1,4
 171 586 171 586 250 592 c 2,5,-1
 315 598 l 1,6,-1
 318 622 l 2,7,8
 328 691 328 691 246 691 c 0,9,10
 216 691 216 691 193.5 680 c 128,-1,11
 171 669 171 669 149 641 c 1,12,-1
 109 655 l 1,13,14
 131 691 131 691 168.5 710.5 c 128,-1,15
 206 730 206 730 256 730 c 0,16,17
 317 730 317 730 344.5 701 c 128,-1,18
 372 672 372 672 365 620 c 2,19,-1
 349 507 l 2,20,21
 344 472 344 472 344 441 c 2,22,-1
 344 401 l 1,23,-1
 294 401 l 1,24,-1
 293 448 l 1,25,26
 261 420 261 420 233.5 407.5 c 128,-1,27
 206 395 206 395 173 395 c 0,28,0
 122 395 122 395 96.5 419 c 128,-1,1
269 461 m 0,29,30
 299 485 299 485 302 507 c 2,31,-1
 310 563 l 1,32,-1
 257 559 l 2,33,34
 196 555 196 555 164 536.5 c 128,-1,35
 132 518 132 518 127 487 c 0,36,37
 123 462 123 462 141.5 447.5 c 128,-1,38
 160 433 160 433 192 433 c 0,39,40
 234 433 234 433 269 461 c 0,29,30
EndSplineSet
EndChar

StartChar: guillemotleft
Encoding: 171 171 109
Width: 429
GlyphClass: 2
Flags: W
LayerCount: 2
Fore
SplineSet
174 73 m 1,0,-1
 136 73 l 1,1,-1
 24 251 l 1,2,-1
 188 437 l 1,3,-1
 227 437 l 1,4,-1
 90 251 l 1,5,-1
 174 73 l 1,0,-1
344 73 m 1,6,-1
 305 73 l 1,7,-1
 193 251 l 1,8,-1
 357 437 l 1,9,-1
 396 437 l 1,10,-1
 259 251 l 1,11,-1
 344 73 l 1,6,-1
EndSplineSet
EndChar

StartChar: logicalnot
Encoding: 172 172 110
Width: 541
GlyphClass: 2
Flags: W
LayerCount: 2
Fore
SplineSet
483 390 m 1,0,-1
 456 198 l 1,1,-1
 401 198 l 1,2,-1
 419 337 l 1,3,-1
 66 336 l 1,4,-1
 74 389 l 1,5,-1
 483 390 l 1,0,-1
EndSplineSet
EndChar

StartChar: uni00AD
Encoding: 173 173 111
Width: 363
GlyphClass: 2
Flags: W
LayerCount: 2
Fore
SplineSet
297 232 m 1,0,-1
 52 231 l 1,1,-1
 60 285 l 1,2,-1
 304 286 l 1,3,-1
 297 232 l 1,0,-1
EndSplineSet
EndChar

StartChar: registered
Encoding: 174 174 112
Width: 535
GlyphClass: 2
Flags: W
LayerCount: 2
Fore
SplineSet
145.5 299 m 128,-1,1
 96 330 96 330 72.5 383 c 128,-1,2
 49 436 49 436 58 500 c 128,-1,3
 67 564 67 564 105.5 617 c 128,-1,4
 144 670 144 670 202 701.5 c 128,-1,5
 260 733 260 733 324 733 c 0,6,7
 387 733 387 733 436 701.5 c 128,-1,8
 485 670 485 670 508.5 616.5 c 128,-1,9
 532 563 532 563 523 500 c 128,-1,10
 514 437 514 437 475.5 383.5 c 128,-1,11
 437 330 437 330 379.5 299 c 128,-1,12
 322 268 322 268 259 268 c 0,13,0
 195 268 195 268 145.5 299 c 128,-1,1
366.5 330.5 m 128,-1,15
 413 354 413 354 443.5 398 c 128,-1,16
 474 442 474 442 482 500 c 128,-1,17
 490 558 490 558 472 602 c 128,-1,18
 454 646 454 646 414.5 670 c 128,-1,19
 375 694 375 694 319 694 c 0,20,21
 233 694 233 694 173 641 c 128,-1,22
 113 588 113 588 100 500 c 0,23,24
 88 412 88 412 133 359.5 c 128,-1,25
 178 307 178 307 264 307 c 0,26,14
 320 307 320 307 366.5 330.5 c 128,-1,15
220 614 m 1,27,-1
 322 614 l 2,28,29
 358 614 358 614 376 599.5 c 128,-1,30
 394 585 394 585 390 557 c 0,31,32
 384 512 384 512 332 495 c 1,33,-1
 361 383 l 1,34,-1
 322 383 l 1,35,-1
 297 492 l 1,36,-1
 238 492 l 1,37,-1
 223 383 l 1,38,-1
 188 383 l 1,39,-1
 220 614 l 1,27,-1
304 523 m 2,40,41
 349 523 349 523 353 553 c 0,42,43
 357 584 357 584 309 584 c 2,44,-1
 251 584 l 1,45,-1
 243 523 l 1,46,-1
 304 523 l 2,40,41
EndSplineSet
EndChar

StartChar: macron
Encoding: 175 175 113
Width: 293
GlyphClass: 2
Flags: W
LayerCount: 2
Fore
SplineSet
326 657 m 1,0,-1
 57 657 l 1,1,-1
 64 707 l 1,2,-1
 333 707 l 1,3,-1
 326 657 l 1,0,-1
EndSplineSet
EndChar

StartChar: degree
Encoding: 176 176 114
Width: 457
GlyphClass: 2
Flags: W
LayerCount: 2
Fore
SplineSet
370 576.5 m 128,-1,1
 321 534 321 534 256 534 c 0,2,3
 190 534 190 534 153.5 576.5 c 128,-1,4
 117 619 117 619 126 685 c 0,5,6
 135 752 135 752 184 794.5 c 128,-1,7
 233 837 233 837 299 837 c 128,-1,8
 365 837 365 837 401.5 794.5 c 128,-1,9
 438 752 438 752 428 685 c 0,10,0
 419 619 419 619 370 576.5 c 128,-1,1
359 759.5 m 128,-1,12
 336 788 336 788 290 788 c 0,13,14
 246 788 246 788 214.5 759.5 c 128,-1,15
 183 731 183 731 176 686 c 0,16,17
 169 638 169 638 192.5 609 c 128,-1,18
 216 580 216 580 262 580 c 128,-1,19
 308 580 308 580 338.5 608.5 c 128,-1,20
 369 637 369 637 375 684 c 0,21,11
 382 731 382 731 359 759.5 c 128,-1,12
EndSplineSet
EndChar

StartChar: plusminus
Encoding: 177 177 115
Width: 541
GlyphClass: 2
Flags: W
LayerCount: 2
Fore
SplineSet
493 462 m 1,0,-1
 485 409 l 1,1,-1
 307 409 l 1,2,-1
 282 231 l 1,3,-1
 230 231 l 1,4,-1
 255 408 l 1,5,-1
 76 408 l 1,6,-1
 84 461 l 1,7,-1
 262 461 l 1,8,-1
 287 640 l 1,9,-1
 340 640 l 1,10,-1
 315 462 l 1,11,-1
 493 462 l 1,0,-1
36 123 m 1,12,-1
 445 124 l 1,13,-1
 438 72 l 1,14,-1
 29 71 l 1,15,-1
 36 123 l 1,12,-1
EndSplineSet
EndChar

StartChar: uni00B2
Encoding: 178 178 116
Width: 373
GlyphClass: 2
Flags: W
LayerCount: 2
Fore
SplineSet
29 424 m 1,0,-1
 199 573 l 2,1,2
 258 624 258 624 283.5 655.5 c 128,-1,3
 309 687 309 687 314 721 c 0,4,5
 320 765 320 765 293.5 786 c 128,-1,6
 267 807 267 807 229 807 c 0,7,8
 194 807 194 807 162 792 c 128,-1,9
 130 777 130 777 108 744 c 1,10,-1
 75 758 l 1,11,12
 102 801 102 801 143.5 823 c 128,-1,13
 185 845 185 845 236 845 c 0,14,15
 295 845 295 845 329.5 812.5 c 128,-1,16
 364 780 364 780 356 722 c 0,17,18
 350 681 350 681 323.5 646.5 c 128,-1,19
 297 612 297 612 231 554 c 2,20,-1
 82 422 l 1,21,-1
 319 422 l 1,22,-1
 313 384 l 1,23,-1
 23 384 l 1,24,-1
 29 424 l 1,0,-1
EndSplineSet
EndChar

StartChar: uni00B3
Encoding: 179 179 117
Width: 388
GlyphClass: 2
Flags: W
LayerCount: 2
Fore
SplineSet
171 826 m 128,-1,1
 214 845 214 845 262 845 c 0,2,3
 328 845 328 845 365 812.5 c 128,-1,4
 402 780 402 780 395 731 c 0,5,6
 385 657 385 657 291 626 c 1,7,8
 337 613 337 613 360.5 582 c 128,-1,9
 384 551 384 551 378 508 c 0,10,11
 370 452 370 452 318.5 415 c 128,-1,12
 267 378 267 378 189 378 c 0,13,14
 135 378 135 378 100.5 395.5 c 128,-1,15
 66 413 66 413 45 454 c 1,16,-1
 82 470 l 1,17,18
 117 414 117 414 195 414 c 0,19,20
 252 414 252 414 289.5 440 c 128,-1,21
 327 466 327 466 332 507 c 0,22,23
 338 552 338 552 305 578 c 128,-1,24
 272 604 272 604 222 604 c 2,25,-1
 161 605 l 1,26,-1
 166 640 l 1,27,-1
 217 641 l 2,28,29
 268 641 268 641 306.5 666 c 128,-1,30
 345 691 345 691 351 729 c 0,31,32
 356 764 356 764 329.5 786.5 c 128,-1,33
 303 809 303 809 257 809 c 0,34,35
 219 809 219 809 190 795.5 c 128,-1,36
 161 782 161 782 137 754 c 1,37,-1
 105 770 l 1,38,0
 128 807 128 807 171 826 c 128,-1,1
EndSplineSet
EndChar

StartChar: acute
Encoding: 180 180 118
Width: 276
GlyphClass: 2
Flags: W
LayerCount: 2
Fore
SplineSet
315 675 m 1,0,-1
 59 599 l 1,1,-1
 53 637 l 1,2,-1
 305 732 l 1,3,-1
 315 675 l 1,0,-1
EndSplineSet
EndChar

StartChar: paragraph
Encoding: 182 182 119
Width: 552
GlyphClass: 2
Flags: W
LayerCount: 2
Fore
SplineSet
456 680 m 1,0,-1
 348 -83 l 1,1,-1
 302 -83 l 1,2,-1
 410 680 l 1,3,-1
 364 680 l 1,4,-1
 256 -83 l 1,5,-1
 209 -83 l 1,6,-1
 263 297 l 1,7,8
 198 298 198 298 153.5 326 c 128,-1,9
 109 354 109 354 90 401 c 128,-1,10
 71 448 71 448 79 503 c 0,11,12
 87 560 87 560 120 610.5 c 128,-1,13
 153 661 153 661 209 692 c 128,-1,14
 265 723 265 723 338 723 c 2,15,-1
 522 723 l 1,16,-1
 516 680 l 1,17,-1
 456 680 l 1,0,-1
EndSplineSet
EndChar

StartChar: periodcentered
Encoding: 183 183 120
Width: 189
GlyphClass: 2
Flags: W
LayerCount: 2
Fore
SplineSet
140 318 m 1,0,-1
 44 318 l 1,1,-1
 57 411 l 1,2,-1
 153 411 l 1,3,-1
 140 318 l 1,0,-1
EndSplineSet
EndChar

StartChar: cedilla
Encoding: 184 184 121
Width: 209
GlyphClass: 2
Flags: W
LayerCount: 2
Fore
SplineSet
95.5 -182.5 m 128,-1,1
 64 -202 64 -202 20 -202 c 0,2,3
 -28 -202 -28 -202 -61 -178 c 1,4,-1
 -43 -145 l 1,5,6
 -19 -168 -19 -168 17 -168 c 0,7,8
 73 -168 73 -168 79 -128 c 0,9,10
 82 -106 82 -106 65 -95.5 c 128,-1,11
 48 -85 48 -85 8 -83 c 0,12,13
 0 -83 0 -83 4 -78 c 2,14,-1
 52 5 l 1,15,-1
 92 5 l 1,16,-1
 59 -56 l 1,17,18
 103 -59 103 -59 119.5 -79 c 128,-1,19
 136 -99 136 -99 132 -127 c 0,20,0
 127 -163 127 -163 95.5 -182.5 c 128,-1,1
EndSplineSet
EndChar

StartChar: uni00B9
Encoding: 185 185 122
Width: 291
GlyphClass: 2
Flags: W
LayerCount: 2
Fore
SplineSet
156 785 m 1,0,-1
 59 750 l 1,1,-1
 64 784 l 1,2,-1
 173 835 l 1,3,-1
 204 835 l 1,4,-1
 140 380 l 1,5,-1
 99 380 l 1,6,-1
 156 785 l 1,0,-1
EndSplineSet
EndChar

StartChar: ordmasculine
Encoding: 186 186 123
Width: 415
GlyphClass: 2
Flags: W
LayerCount: 2
Fore
SplineSet
369 685.5 m 128,-1,1
 404 639 404 639 393 563 c 0,2,3
 383 489 383 489 335.5 443 c 128,-1,4
 288 397 288 397 217 397 c 0,5,6
 145 397 145 397 111 443 c 128,-1,7
 77 489 77 489 87 563 c 0,8,9
 98 639 98 639 146.5 685.5 c 128,-1,10
 195 732 195 732 264 732 c 0,11,0
 334 732 334 732 369 685.5 c 128,-1,1
179.5 658 m 128,-1,13
 149 624 149 624 141 566 c 0,14,15
 132 505 132 505 152.5 470.5 c 128,-1,16
 173 436 173 436 222 436 c 128,-1,17
 271 436 271 436 301.5 470.5 c 128,-1,18
 332 505 332 505 341 566 c 0,19,20
 349 624 349 624 327.5 658 c 128,-1,21
 306 692 306 692 258 692 c 128,-1,12
 210 692 210 692 179.5 658 c 128,-1,13
EndSplineSet
EndChar

StartChar: guillemotright
Encoding: 187 187 124
Width: 428
GlyphClass: 2
Flags: W
LayerCount: 2
Fore
SplineSet
61 437 m 1,0,-1
 99 437 l 1,1,-1
 212 251 l 1,2,-1
 49 73 l 1,3,-1
 12 73 l 1,4,-1
 146 251 l 1,5,-1
 61 437 l 1,0,-1
230 437 m 1,6,-1
 269 437 l 1,7,-1
 381 251 l 1,8,-1
 218 73 l 1,9,-1
 181 73 l 1,10,-1
 315 251 l 1,11,-1
 230 437 l 1,6,-1
EndSplineSet
EndChar

StartChar: onequarter
Encoding: 188 188 125
Width: 943
GlyphClass: 2
Flags: W
LayerCount: 2
Fore
SplineSet
141 681 m 1,0,-1
 44 646 l 1,1,-1
 49 680 l 1,2,-1
 158 731 l 1,3,-1
 189 731 l 1,4,-1
 125 276 l 1,5,-1
 84 276 l 1,6,-1
 141 681 l 1,0,-1
147 -4 m 1,7,-1
 98 -4 l 1,8,-1
 689 731 l 1,9,-1
 737 731 l 1,10,-1
 147 -4 l 1,7,-1
835 455 m 1,11,-1
 793 162 l 1,12,-1
 865 162 l 1,13,-1
 860 125 l 1,14,-1
 788 125 l 1,15,-1
 770 0 l 1,16,-1
 730 0 l 1,17,-1
 748 125 l 1,18,-1
 532 125 l 1,19,-1
 538 166 l 1,20,-1
 792 455 l 1,21,-1
 835 455 l 1,11,-1
751 162 m 1,22,-1
 784 393 l 1,23,-1
 579 162 l 1,24,-1
 751 162 l 1,22,-1
EndSplineSet
EndChar

StartChar: onehalf
Encoding: 189 189 126
Width: 911
GlyphClass: 2
Flags: W
LayerCount: 2
Fore
SplineSet
141 681 m 1,0,-1
 44 646 l 1,1,-1
 49 680 l 1,2,-1
 158 731 l 1,3,-1
 189 731 l 1,4,-1
 125 276 l 1,5,-1
 84 276 l 1,6,-1
 141 681 l 1,0,-1
147 -4 m 1,7,-1
 98 -4 l 1,8,-1
 689 731 l 1,9,-1
 737 731 l 1,10,-1
 147 -4 l 1,7,-1
513 40 m 1,11,-1
 683 189 l 2,12,13
 743 240 743 240 768 271.5 c 128,-1,14
 793 303 793 303 797 336 c 0,15,16
 802 367 802 367 790 386.5 c 128,-1,17
 778 406 778 406 757 414.5 c 128,-1,18
 736 423 736 423 712 423 c 0,19,20
 678 423 678 423 646 407.5 c 128,-1,21
 614 392 614 392 591 360 c 1,22,-1
 559 374 l 1,23,24
 587 417 587 417 627.5 439 c 128,-1,25
 668 461 668 461 720 461 c 0,26,27
 759 461 759 461 788 446.5 c 128,-1,28
 817 432 817 432 831 404 c 128,-1,29
 845 376 845 376 839 337 c 0,30,31
 836 309 836 309 823 285.5 c 128,-1,32
 810 262 810 262 785 235.5 c 128,-1,33
 760 209 760 209 715 170 c 2,34,-1
 565 38 l 1,35,-1
 802 38 l 1,36,-1
 797 0 l 1,37,-1
 507 0 l 1,38,-1
 513 40 l 1,11,-1
EndSplineSet
EndChar

StartChar: threequarters
Encoding: 190 190 127
Width: 1040
GlyphClass: 2
Flags: W
LayerCount: 2
Fore
SplineSet
156 721 m 128,-1,1
 199 740 199 740 247 740 c 0,2,3
 313 740 313 740 350 707.5 c 128,-1,4
 387 675 387 675 380 626 c 0,5,6
 370 552 370 552 276 521 c 1,7,8
 322 508 322 508 345.5 477 c 128,-1,9
 369 446 369 446 363 403 c 0,10,11
 355 347 355 347 303.5 310 c 128,-1,12
 252 273 252 273 174 273 c 0,13,14
 120 273 120 273 85.5 290.5 c 128,-1,15
 51 308 51 308 30 349 c 1,16,-1
 67 365 l 1,17,18
 102 309 102 309 180 309 c 0,19,20
 237 309 237 309 274.5 335 c 128,-1,21
 312 361 312 361 317 402 c 0,22,23
 323 447 323 447 290 473 c 128,-1,24
 257 499 257 499 207 499 c 2,25,-1
 146 500 l 1,26,-1
 151 535 l 1,27,-1
 202 536 l 2,28,29
 253 536 253 536 291.5 561 c 128,-1,30
 330 586 330 586 336 624 c 0,31,32
 341 659 341 659 314.5 681.5 c 128,-1,33
 288 704 288 704 242 704 c 0,34,35
 204 704 204 704 175 690.5 c 128,-1,36
 146 677 146 677 122 649 c 1,37,-1
 90 665 l 1,38,0
 113 702 113 702 156 721 c 128,-1,1
244 -4 m 1,39,-1
 195 -4 l 1,40,-1
 786 731 l 1,41,-1
 834 731 l 1,42,-1
 244 -4 l 1,39,-1
932 455 m 1,43,-1
 890 162 l 1,44,-1
 962 162 l 1,45,-1
 957 125 l 1,46,-1
 885 125 l 1,47,-1
 867 0 l 1,48,-1
 827 0 l 1,49,-1
 845 125 l 1,50,-1
 629 125 l 1,51,-1
 635 166 l 1,52,-1
 889 455 l 1,53,-1
 932 455 l 1,43,-1
848 162 m 1,54,-1
 881 393 l 1,55,-1
 676 162 l 1,56,-1
 848 162 l 1,54,-1
EndSplineSet
EndChar

StartChar: questiondown
Encoding: 191 191 128
Width: 503
GlyphClass: 2
Flags: W
LayerCount: 2
Fore
SplineSet
247 517 m 1,0,-1
 330 517 l 1,1,-1
 316 422 l 1,2,-1
 233 422 l 1,3,-1
 247 517 l 1,0,-1
313.5 -135 m 128,-1,5
 248 -171 248 -171 173 -171 c 0,6,7
 74 -171 74 -171 23 -123 c 128,-1,8
 -28 -75 -28 -75 -16 5 c 0,9,10
 -11 43 -11 43 6.5 72 c 128,-1,11
 24 101 24 101 46.5 122.5 c 128,-1,12
 69 144 69 144 106 172 c 0,13,14
 145 203 145 203 168.5 225 c 128,-1,15
 192 247 192 247 211 279.5 c 128,-1,16
 230 312 230 312 236 354 c 1,17,-1
 295 354 l 1,18,19
 288 304 288 304 267.5 267 c 128,-1,20
 247 230 247 230 222 205.5 c 128,-1,21
 197 181 197 181 157 148 c 0,22,23
 109 110 109 110 83.5 80.5 c 128,-1,24
 58 51 58 51 52 7 c 0,25,26
 44 -49 44 -49 79.5 -82.5 c 128,-1,27
 115 -116 115 -116 181 -116 c 0,28,29
 234 -116 234 -116 287 -86 c 128,-1,30
 340 -56 340 -56 363 -15 c 1,31,-1
 420 -37 l 1,32,4
 379 -99 379 -99 313.5 -135 c 128,-1,5
EndSplineSet
EndChar

StartChar: Agrave
Encoding: 192 192 129
Width: 690
GlyphClass: 2
Flags: W
AnchorPoint: "Anchor-5" -46 0 basechar 0
AnchorPoint: "Anchor-4" -46 0 basechar 0
AnchorPoint: "Anchor-3" 301 723 basechar 0
AnchorPoint: "Anchor-2" 593 11 basechar 0
LayerCount: 2
Fore
SplineSet
363 723 m 1,0,-1
 440 723 l 1,1,-1
 601 0 l 1,2,-1
 535 0 l 1,3,-1
 487 214 l 1,4,-1
 172 214 l 1,5,-1
 63 0 l 1,6,-1
 -3 0 l 1,7,-1
 363 723 l 1,0,-1
477 276 m 1,8,-1
 393 659 l 1,9,-1
 200 276 l 1,10,-1
 477 276 l 1,8,-1
534 843 m 1,11,-1
 515 805 l 1,12,-1
 281 881 l 1,13,-1
 308 938 l 1,14,-1
 534 843 l 1,11,-1
EndSplineSet
EndChar

StartChar: Aacute
Encoding: 193 193 130
Width: 690
GlyphClass: 2
Flags: W
AnchorPoint: "Anchor-5" -46 0 basechar 0
AnchorPoint: "Anchor-4" -46 0 basechar 0
AnchorPoint: "Anchor-3" 301 723 basechar 0
AnchorPoint: "Anchor-2" 593 11 basechar 0
LayerCount: 2
Fore
SplineSet
363 723 m 1,0,-1
 440 723 l 1,1,-1
 601 0 l 1,2,-1
 535 0 l 1,3,-1
 487 214 l 1,4,-1
 172 214 l 1,5,-1
 63 0 l 1,6,-1
 -3 0 l 1,7,-1
 363 723 l 1,0,-1
477 276 m 1,8,-1
 393 659 l 1,9,-1
 200 276 l 1,10,-1
 477 276 l 1,8,-1
553 881 m 1,11,-1
 297 805 l 1,12,-1
 291 843 l 1,13,-1
 543 938 l 1,14,-1
 553 881 l 1,11,-1
EndSplineSet
EndChar

StartChar: Acircumflex
Encoding: 194 194 131
Width: 690
GlyphClass: 2
Flags: W
AnchorPoint: "Anchor-5" -46 0 basechar 0
AnchorPoint: "Anchor-4" -46 0 basechar 0
AnchorPoint: "Anchor-3" 301 723 basechar 0
AnchorPoint: "Anchor-2" 593 11 basechar 0
LayerCount: 2
Fore
SplineSet
363 723 m 1,0,-1
 440 723 l 1,1,-1
 601 0 l 1,2,-1
 535 0 l 1,3,-1
 487 214 l 1,4,-1
 172 214 l 1,5,-1
 63 0 l 1,6,-1
 -3 0 l 1,7,-1
 363 723 l 1,0,-1
477 276 m 1,8,-1
 393 659 l 1,9,-1
 200 276 l 1,10,-1
 477 276 l 1,8,-1
426 890 m 1,11,-1
 340 827 l 1,12,-1
 272 827 l 1,13,-1
 409 931 l 1,14,-1
 457 931 l 1,15,-1
 561 827 l 1,16,-1
 489 827 l 1,17,-1
 426 890 l 1,11,-1
EndSplineSet
EndChar

StartChar: Atilde
Encoding: 195 195 132
Width: 690
GlyphClass: 2
Flags: W
AnchorPoint: "Anchor-5" -46 0 basechar 0
AnchorPoint: "Anchor-4" -46 0 basechar 0
AnchorPoint: "Anchor-3" 301 723 basechar 0
AnchorPoint: "Anchor-2" 593 11 basechar 0
LayerCount: 2
Fore
SplineSet
363 723 m 1,0,-1
 440 723 l 1,1,-1
 601 0 l 1,2,-1
 535 0 l 1,3,-1
 487 214 l 1,4,-1
 172 214 l 1,5,-1
 63 0 l 1,6,-1
 -3 0 l 1,7,-1
 363 723 l 1,0,-1
477 276 m 1,8,-1
 393 659 l 1,9,-1
 200 276 l 1,10,-1
 477 276 l 1,8,-1
481 852 m 0,11,12
 463 852 463 852 449.5 855.5 c 128,-1,13
 436 859 436 859 418 865 c 0,14,15
 406 870 406 870 392.5 873.5 c 128,-1,16
 379 877 379 877 366 877 c 0,17,18
 350 877 350 877 339.5 873 c 128,-1,19
 329 869 329 869 320 864 c 128,-1,20
 311 859 311 859 306 857 c 0,21,22
 302 854 302 854 299 854 c 0,23,24
 295 854 295 854 295 861 c 2,25,-1
 289 883 l 2,26,27
 288 889 288 889 294 893 c 0,28,29
 314 907 314 907 330.5 914.5 c 128,-1,30
 347 922 347 922 369 922 c 0,31,32
 393 922 393 922 431 908 c 0,33,34
 434 907 434 907 451.5 901 c 128,-1,35
 469 895 469 895 488 895 c 0,36,37
 503 895 503 895 514.5 899 c 128,-1,38
 526 903 526 903 543 913 c 0,39,40
 548 916 548 916 552 916 c 0,41,42
 555 916 555 916 557 909 c 2,43,-1
 562 884 l 2,44,45
 563 883 563 883 563 881 c 0,46,47
 562 877 562 877 555 873 c 0,48,49
 519 852 519 852 481 852 c 0,11,12
EndSplineSet
EndChar

StartChar: Adieresis
Encoding: 196 196 133
Width: 690
GlyphClass: 2
Flags: W
AnchorPoint: "Anchor-5" -46 0 basechar 0
AnchorPoint: "Anchor-4" -46 0 basechar 0
AnchorPoint: "Anchor-3" 301 723 basechar 0
AnchorPoint: "Anchor-2" 593 11 basechar 0
LayerCount: 2
Fore
SplineSet
363 723 m 1,0,-1
 440 723 l 1,1,-1
 601 0 l 1,2,-1
 535 0 l 1,3,-1
 487 214 l 1,4,-1
 172 214 l 1,5,-1
 63 0 l 1,6,-1
 -3 0 l 1,7,-1
 363 723 l 1,0,-1
477 276 m 1,8,-1
 393 659 l 1,9,-1
 200 276 l 1,10,-1
 477 276 l 1,8,-1
386 827 m 1,11,-1
 319 827 l 1,12,-1
 334 929 l 1,13,-1
 401 929 l 1,14,-1
 386 827 l 1,11,-1
514 827 m 1,15,-1
 447 827 l 1,16,-1
 462 929 l 1,17,-1
 529 929 l 1,18,-1
 514 827 l 1,15,-1
EndSplineSet
EndChar

StartChar: Aring
Encoding: 197 197 134
Width: 690
GlyphClass: 2
Flags: W
AnchorPoint: "Anchor-5" -46 0 basechar 0
AnchorPoint: "Anchor-4" -46 0 basechar 0
AnchorPoint: "Anchor-3" 301 723 basechar 0
AnchorPoint: "Anchor-2" 593 11 basechar 0
LayerCount: 2
Fore
SplineSet
363 723 m 1,0,-1
 440 723 l 1,1,-1
 601 0 l 1,2,-1
 535 0 l 1,3,-1
 487 214 l 1,4,-1
 172 214 l 1,5,-1
 63 0 l 1,6,-1
 -3 0 l 1,7,-1
 363 723 l 1,0,-1
477 276 m 1,8,-1
 393 659 l 1,9,-1
 200 276 l 1,10,-1
 477 276 l 1,8,-1
487 816.5 m 128,-1,12
 454 788 454 788 412 788 c 128,-1,13
 370 788 370 788 345 817.5 c 128,-1,14
 320 847 320 847 326 890 c 0,15,16
 332 930 332 930 365 958 c 128,-1,17
 398 986 398 986 439 986 c 0,18,19
 481 986 481 986 506 957.5 c 128,-1,20
 531 929 531 929 526 888 c 0,21,11
 520 845 520 845 487 816.5 c 128,-1,12
469 927.5 m 128,-1,23
 455 943 455 943 432 943 c 128,-1,24
 409 943 409 943 390.5 927.5 c 128,-1,25
 372 912 372 912 369 888 c 0,26,27
 366 865 366 865 380.5 848 c 128,-1,28
 395 831 395 831 417 831 c 0,29,30
 440 831 440 831 458 848 c 128,-1,31
 476 865 476 865 480 888 c 0,32,22
 483 912 483 912 469 927.5 c 128,-1,23
EndSplineSet
EndChar

StartChar: AE
Encoding: 198 198 135
Width: 986
GlyphClass: 2
Flags: W
AnchorPoint: "Anchor-5" -46 0 basechar 0
AnchorPoint: "Anchor-4" -46 0 basechar 0
AnchorPoint: "Anchor-3" 626 723 basechar 0
AnchorPoint: "Anchor-2" -46 0 basechar 0
LayerCount: 2
Fore
SplineSet
872 0 m 1,0,-1
 441 0 l 1,1,-1
 472 218 l 1,2,-1
 217 218 l 1,3,-1
 63 0 l 1,4,-1
 -3 0 l 1,5,-1
 506 723 l 1,6,-1
 961 723 l 1,7,-1
 951 665 l 1,8,-1
 605 665 l 1,9,-1
 567 394 l 1,10,-1
 835 394 l 1,11,-1
 827 336 l 1,12,-1
 559 336 l 1,13,-1
 520 58 l 1,14,-1
 880 58 l 1,15,-1
 872 0 l 1,0,-1
535 672 m 1,16,-1
 252 276 l 1,17,-1
 480 276 l 1,18,-1
 535 672 l 1,16,-1
EndSplineSet
EndChar

StartChar: Ccedilla
Encoding: 199 199 136
Width: 670
GlyphClass: 2
Flags: W
AnchorPoint: "Anchor-5" -46 0 basechar 0
AnchorPoint: "Anchor-4" 309 0 basechar 0
AnchorPoint: "Anchor-3" 309 723 basechar 0
AnchorPoint: "Anchor-2" -46 0 basechar 0
LayerCount: 2
Fore
SplineSet
533 705 m 128,-1,1
 587 677 587 677 615.5 629.5 c 128,-1,2
 644 582 644 582 642 525 c 1,3,-1
 573 519 l 1,4,5
 569 590 569 590 525 632 c 128,-1,6
 481 674 481 674 398 674 c 0,7,8
 288 674 288 674 221 595 c 128,-1,9
 154 516 154 516 132 360 c 0,10,11
 110 207 110 207 156 128 c 128,-1,12
 202 49 202 49 317 49 c 0,13,14
 388 49 388 49 444 88.5 c 128,-1,15
 500 128 500 128 526 197 c 1,16,-1
 591 188 l 1,17,18
 577 133 577 133 535.5 87.5 c 128,-1,19
 494 42 494 42 434.5 16 c 128,-1,20
 375 -10 375 -10 308 -10 c 0,21,22
 165 -10 165 -10 100.5 88 c 128,-1,23
 36 186 36 186 61 361 c 128,-1,24
 86 536 86 536 176 634.5 c 128,-1,25
 266 733 266 733 405 733 c 0,26,0
 479 733 479 733 533 705 c 128,-1,1
335.5 -182.5 m 128,-1,28
 304 -202 304 -202 260 -202 c 0,29,30
 212 -202 212 -202 179 -178 c 1,31,-1
 197 -145 l 1,32,33
 221 -168 221 -168 257 -168 c 0,34,35
 313 -168 313 -168 319 -128 c 0,36,37
 322 -106 322 -106 305 -95.5 c 128,-1,38
 288 -85 288 -85 248 -83 c 0,39,40
 240 -83 240 -83 244 -78 c 2,41,-1
 292 5 l 1,42,-1
 332 5 l 1,43,-1
 299 -56 l 1,44,45
 343 -59 343 -59 359.5 -79 c 128,-1,46
 376 -99 376 -99 372 -127 c 0,47,27
 367 -163 367 -163 335.5 -182.5 c 128,-1,28
EndSplineSet
EndChar

StartChar: Egrave
Encoding: 200 200 137
Width: 615
GlyphClass: 2
Flags: W
AnchorPoint: "Anchor-5" -46 0 basechar 0
AnchorPoint: "Anchor-4" 300 0 basechar 0
AnchorPoint: "Anchor-3" 284 723 basechar 0
AnchorPoint: "Anchor-2" 493 10 basechar 0
LayerCount: 2
Fore
SplineSet
157 723 m 1,0,-1
 591 723 l 1,1,-1
 582 664 l 1,2,-1
 212 664 l 1,3,-1
 175 395 l 1,4,-1
 514 395 l 1,5,-1
 505 336 l 1,6,-1
 166 336 l 1,7,-1
 128 61 l 1,8,-1
 509 60 l 1,9,-1
 501 0 l 1,10,-1
 55 0 l 1,11,-1
 157 723 l 1,0,-1
517 843 m 1,12,-1
 498 805 l 1,13,-1
 264 881 l 1,14,-1
 291 938 l 1,15,-1
 517 843 l 1,12,-1
EndSplineSet
EndChar

StartChar: Eacute
Encoding: 201 201 138
Width: 615
GlyphClass: 2
Flags: W
AnchorPoint: "Anchor-5" -46 0 basechar 0
AnchorPoint: "Anchor-4" 300 0 basechar 0
AnchorPoint: "Anchor-3" 284 723 basechar 0
AnchorPoint: "Anchor-2" 493 10 basechar 0
LayerCount: 2
Fore
SplineSet
157 723 m 1,0,-1
 591 723 l 1,1,-1
 582 664 l 1,2,-1
 212 664 l 1,3,-1
 175 395 l 1,4,-1
 514 395 l 1,5,-1
 505 336 l 1,6,-1
 166 336 l 1,7,-1
 128 61 l 1,8,-1
 509 60 l 1,9,-1
 501 0 l 1,10,-1
 55 0 l 1,11,-1
 157 723 l 1,0,-1
536 881 m 1,12,-1
 280 805 l 1,13,-1
 274 843 l 1,14,-1
 526 938 l 1,15,-1
 536 881 l 1,12,-1
EndSplineSet
EndChar

StartChar: Ecircumflex
Encoding: 202 202 139
Width: 615
GlyphClass: 2
Flags: W
AnchorPoint: "Anchor-5" -46 0 basechar 0
AnchorPoint: "Anchor-4" 300 0 basechar 0
AnchorPoint: "Anchor-3" 284 723 basechar 0
AnchorPoint: "Anchor-2" 493 10 basechar 0
LayerCount: 2
Fore
SplineSet
157 723 m 1,0,-1
 591 723 l 1,1,-1
 582 664 l 1,2,-1
 212 664 l 1,3,-1
 175 395 l 1,4,-1
 514 395 l 1,5,-1
 505 336 l 1,6,-1
 166 336 l 1,7,-1
 128 61 l 1,8,-1
 509 60 l 1,9,-1
 501 0 l 1,10,-1
 55 0 l 1,11,-1
 157 723 l 1,0,-1
409 890 m 1,12,-1
 323 827 l 1,13,-1
 255 827 l 1,14,-1
 392 931 l 1,15,-1
 440 931 l 1,16,-1
 544 827 l 1,17,-1
 472 827 l 1,18,-1
 409 890 l 1,12,-1
EndSplineSet
EndChar

StartChar: Edieresis
Encoding: 203 203 140
Width: 615
GlyphClass: 2
Flags: W
AnchorPoint: "Anchor-5" -46 0 basechar 0
AnchorPoint: "Anchor-4" 300 0 basechar 0
AnchorPoint: "Anchor-3" 284 723 basechar 0
AnchorPoint: "Anchor-2" 493 10 basechar 0
LayerCount: 2
Fore
SplineSet
157 723 m 1,0,-1
 591 723 l 1,1,-1
 582 664 l 1,2,-1
 212 664 l 1,3,-1
 175 395 l 1,4,-1
 514 395 l 1,5,-1
 505 336 l 1,6,-1
 166 336 l 1,7,-1
 128 61 l 1,8,-1
 509 60 l 1,9,-1
 501 0 l 1,10,-1
 55 0 l 1,11,-1
 157 723 l 1,0,-1
369 827 m 1,12,-1
 302 827 l 1,13,-1
 317 929 l 1,14,-1
 384 929 l 1,15,-1
 369 827 l 1,12,-1
497 827 m 1,16,-1
 430 827 l 1,17,-1
 445 929 l 1,18,-1
 512 929 l 1,19,-1
 497 827 l 1,16,-1
EndSplineSet
EndChar

StartChar: Igrave
Encoding: 204 204 141
Width: 266
GlyphClass: 2
Flags: W
AnchorPoint: "Anchor-5" -46 0 basechar 0
AnchorPoint: "Anchor-4" 90 0 basechar 0
AnchorPoint: "Anchor-3" 91 723 basechar 0
AnchorPoint: "Anchor-2" 109 9 basechar 0
LayerCount: 2
Fore
SplineSet
221 723 m 1,0,-1
 119 0 l 1,1,-1
 55 0 l 1,2,-1
 157 723 l 1,3,-1
 221 723 l 1,0,-1
324 843 m 1,4,-1
 305 805 l 1,5,-1
 71 881 l 1,6,-1
 98 938 l 1,7,-1
 324 843 l 1,4,-1
EndSplineSet
EndChar

StartChar: Iacute
Encoding: 205 205 142
Width: 266
GlyphClass: 2
Flags: W
AnchorPoint: "Anchor-5" -46 0 basechar 0
AnchorPoint: "Anchor-4" 90 0 basechar 0
AnchorPoint: "Anchor-3" 91 723 basechar 0
AnchorPoint: "Anchor-2" 109 9 basechar 0
LayerCount: 2
Fore
SplineSet
221 723 m 1,0,-1
 119 0 l 1,1,-1
 55 0 l 1,2,-1
 157 723 l 1,3,-1
 221 723 l 1,0,-1
343 881 m 1,4,-1
 87 805 l 1,5,-1
 81 843 l 1,6,-1
 333 938 l 1,7,-1
 343 881 l 1,4,-1
EndSplineSet
EndChar

StartChar: Icircumflex
Encoding: 206 206 143
Width: 266
GlyphClass: 2
Flags: W
AnchorPoint: "Anchor-5" -46 0 basechar 0
AnchorPoint: "Anchor-4" 90 0 basechar 0
AnchorPoint: "Anchor-3" 91 723 basechar 0
AnchorPoint: "Anchor-2" 109 9 basechar 0
LayerCount: 2
Fore
SplineSet
221 723 m 1,0,-1
 119 0 l 1,1,-1
 55 0 l 1,2,-1
 157 723 l 1,3,-1
 221 723 l 1,0,-1
216 890 m 1,4,-1
 130 827 l 1,5,-1
 62 827 l 1,6,-1
 199 931 l 1,7,-1
 247 931 l 1,8,-1
 351 827 l 1,9,-1
 279 827 l 1,10,-1
 216 890 l 1,4,-1
EndSplineSet
EndChar

StartChar: Idieresis
Encoding: 207 207 144
Width: 266
GlyphClass: 2
Flags: W
AnchorPoint: "Anchor-5" -46 0 basechar 0
AnchorPoint: "Anchor-4" 90 0 basechar 0
AnchorPoint: "Anchor-3" 91 723 basechar 0
AnchorPoint: "Anchor-2" 109 9 basechar 0
LayerCount: 2
Fore
SplineSet
221 723 m 1,0,-1
 119 0 l 1,1,-1
 55 0 l 1,2,-1
 157 723 l 1,3,-1
 221 723 l 1,0,-1
176 827 m 1,4,-1
 109 827 l 1,5,-1
 124 929 l 1,6,-1
 191 929 l 1,7,-1
 176 827 l 1,4,-1
304 827 m 1,8,-1
 237 827 l 1,9,-1
 252 929 l 1,10,-1
 319 929 l 1,11,-1
 304 827 l 1,8,-1
EndSplineSet
EndChar

StartChar: Eth
Encoding: 208 208 145
Width: 680
GlyphClass: 2
Flags: W
AnchorPoint: "Anchor-5" -46 0 basechar 0
AnchorPoint: "Anchor-4" -46 0 basechar 0
AnchorPoint: "Anchor-3" 288 723 basechar 0
AnchorPoint: "Anchor-2" -46 0 basechar 0
LayerCount: 2
Fore
SplineSet
577 633.5 m 128,-1,1
 655 546 655 546 630 367 c 0,2,3
 604 180 604 180 496 90 c 128,-1,4
 388 0 388 0 189 0 c 2,5,-1
 59 0 l 1,6,-1
 106 335 l 1,7,-1
 47 335 l 2,8,9
 34 335 34 335 36 347 c 2,10,-1
 40 380 l 2,11,12
 42 391 42 391 51 391 c 2,13,-1
 114 391 l 1,14,-1
 161 723 l 1,15,-1
 302 722 l 2,16,0
 499 721 499 721 577 633.5 c 128,-1,1
448.5 130 m 128,-1,18
 539 201 539 201 562 364 c 0,19,20
 578 477 578 477 551 543 c 128,-1,21
 524 609 524 609 458 637 c 128,-1,22
 392 665 392 665 286 665 c 2,23,-1
 219 665 l 1,24,-1
 181 391 l 1,25,-1
 349 391 l 2,26,27
 357 391 357 391 356 381 c 2,28,-1
 351 348 l 2,29,30
 349 335 349 335 334 335 c 2,31,-1
 173 335 l 1,32,-1
 134 59 l 1,33,-1
 196 59 l 2,34,17
 358 59 358 59 448.5 130 c 128,-1,18
EndSplineSet
EndChar

StartChar: Ntilde
Encoding: 209 209 146
Width: 735
GlyphClass: 2
Flags: W
AnchorPoint: "Anchor-5" -46 0 basechar 0
AnchorPoint: "Anchor-4" 301 0 basechar 0
AnchorPoint: "Anchor-3" 333 723 basechar 0
AnchorPoint: "Anchor-2" -46 0 basechar 0
LayerCount: 2
Fore
SplineSet
689 723 m 1,0,-1
 587 0 l 1,1,-1
 531 0 l 1,2,-1
 205 610 l 1,3,-1
 119 0 l 1,4,-1
 55 0 l 1,5,-1
 157 723 l 1,6,-1
 215 723 l 1,7,-1
 540 116 l 1,8,-1
 626 723 l 1,9,-1
 689 723 l 1,0,-1
513 852 m 0,10,11
 495 852 495 852 481.5 855.5 c 128,-1,12
 468 859 468 859 450 865 c 0,13,14
 438 870 438 870 424.5 873.5 c 128,-1,15
 411 877 411 877 398 877 c 0,16,17
 382 877 382 877 371.5 873 c 128,-1,18
 361 869 361 869 352 864 c 128,-1,19
 343 859 343 859 338 857 c 0,20,21
 334 854 334 854 331 854 c 0,22,23
 327 854 327 854 327 861 c 2,24,-1
 321 883 l 2,25,26
 320 889 320 889 326 893 c 0,27,28
 346 907 346 907 362.5 914.5 c 128,-1,29
 379 922 379 922 401 922 c 0,30,31
 425 922 425 922 463 908 c 0,32,33
 466 907 466 907 483.5 901 c 128,-1,34
 501 895 501 895 520 895 c 0,35,36
 535 895 535 895 546.5 899 c 128,-1,37
 558 903 558 903 575 913 c 0,38,39
 580 916 580 916 584 916 c 0,40,41
 587 916 587 916 589 909 c 2,42,-1
 594 884 l 2,43,44
 595 883 595 883 595 881 c 0,45,46
 594 877 594 877 587 873 c 0,47,48
 551 852 551 852 513 852 c 0,10,11
EndSplineSet
EndChar

StartChar: Ograve
Encoding: 210 210 147
Width: 717
GlyphClass: 2
Flags: W
AnchorPoint: "Anchor-5" -46 0 basechar 0
AnchorPoint: "Anchor-4" 315 0 basechar 0
AnchorPoint: "Anchor-3" 315 723 basechar 0
AnchorPoint: "Anchor-2" 386 9 basechar 0
LayerCount: 2
Fore
SplineSet
102.5 86 m 128,-1,1
 36 182 36 182 60 358 c 0,2,3
 77 477 77 477 126 561.5 c 128,-1,4
 175 646 175 646 249 689.5 c 128,-1,5
 323 733 323 733 417 733 c 0,6,7
 510 733 510 733 571.5 689.5 c 128,-1,8
 633 646 633 646 657.5 562.5 c 128,-1,9
 682 479 682 479 666 360 c 0,10,11
 641 183 641 183 547.5 86.5 c 128,-1,12
 454 -10 454 -10 312 -10 c 0,13,0
 169 -10 169 -10 102.5 86 c 128,-1,1
504.5 126 m 128,-1,15
 574 203 574 203 596 360 c 0,16,17
 618 518 618 518 570 596 c 128,-1,18
 522 674 522 674 409 674 c 128,-1,19
 296 674 296 674 225 595.5 c 128,-1,20
 154 517 154 517 132 360 c 0,21,22
 110 204 110 204 159 126.5 c 128,-1,23
 208 49 208 49 322 49 c 0,24,14
 435 49 435 49 504.5 126 c 128,-1,15
548 843 m 1,25,-1
 529 805 l 1,26,-1
 295 881 l 1,27,-1
 322 938 l 1,28,-1
 548 843 l 1,25,-1
EndSplineSet
EndChar

StartChar: Oacute
Encoding: 211 211 148
Width: 717
GlyphClass: 2
Flags: W
AnchorPoint: "Anchor-5" -46 0 basechar 0
AnchorPoint: "Anchor-4" 315 0 basechar 0
AnchorPoint: "Anchor-3" 315 723 basechar 0
AnchorPoint: "Anchor-2" 386 9 basechar 0
LayerCount: 2
Fore
SplineSet
102.5 86 m 128,-1,1
 36 182 36 182 60 358 c 0,2,3
 77 477 77 477 126 561.5 c 128,-1,4
 175 646 175 646 249 689.5 c 128,-1,5
 323 733 323 733 417 733 c 0,6,7
 510 733 510 733 571.5 689.5 c 128,-1,8
 633 646 633 646 657.5 562.5 c 128,-1,9
 682 479 682 479 666 360 c 0,10,11
 641 183 641 183 547.5 86.5 c 128,-1,12
 454 -10 454 -10 312 -10 c 0,13,0
 169 -10 169 -10 102.5 86 c 128,-1,1
504.5 126 m 128,-1,15
 574 203 574 203 596 360 c 0,16,17
 618 518 618 518 570 596 c 128,-1,18
 522 674 522 674 409 674 c 128,-1,19
 296 674 296 674 225 595.5 c 128,-1,20
 154 517 154 517 132 360 c 0,21,22
 110 204 110 204 159 126.5 c 128,-1,23
 208 49 208 49 322 49 c 0,24,14
 435 49 435 49 504.5 126 c 128,-1,15
567 881 m 1,25,-1
 311 805 l 1,26,-1
 305 843 l 1,27,-1
 557 938 l 1,28,-1
 567 881 l 1,25,-1
EndSplineSet
EndChar

StartChar: Ocircumflex
Encoding: 212 212 149
Width: 717
GlyphClass: 2
Flags: W
AnchorPoint: "Anchor-5" -46 0 basechar 0
AnchorPoint: "Anchor-4" 315 0 basechar 0
AnchorPoint: "Anchor-3" 315 723 basechar 0
AnchorPoint: "Anchor-2" 386 9 basechar 0
LayerCount: 2
Fore
SplineSet
102.5 86 m 128,-1,1
 36 182 36 182 60 358 c 0,2,3
 77 477 77 477 126 561.5 c 128,-1,4
 175 646 175 646 249 689.5 c 128,-1,5
 323 733 323 733 417 733 c 0,6,7
 510 733 510 733 571.5 689.5 c 128,-1,8
 633 646 633 646 657.5 562.5 c 128,-1,9
 682 479 682 479 666 360 c 0,10,11
 641 183 641 183 547.5 86.5 c 128,-1,12
 454 -10 454 -10 312 -10 c 0,13,0
 169 -10 169 -10 102.5 86 c 128,-1,1
504.5 126 m 128,-1,15
 574 203 574 203 596 360 c 0,16,17
 618 518 618 518 570 596 c 128,-1,18
 522 674 522 674 409 674 c 128,-1,19
 296 674 296 674 225 595.5 c 128,-1,20
 154 517 154 517 132 360 c 0,21,22
 110 204 110 204 159 126.5 c 128,-1,23
 208 49 208 49 322 49 c 0,24,14
 435 49 435 49 504.5 126 c 128,-1,15
440 890 m 1,25,-1
 354 827 l 1,26,-1
 286 827 l 1,27,-1
 423 931 l 1,28,-1
 471 931 l 1,29,-1
 575 827 l 1,30,-1
 503 827 l 1,31,-1
 440 890 l 1,25,-1
EndSplineSet
EndChar

StartChar: Otilde
Encoding: 213 213 150
Width: 717
GlyphClass: 2
Flags: W
AnchorPoint: "Anchor-5" -46 0 basechar 0
AnchorPoint: "Anchor-4" 315 0 basechar 0
AnchorPoint: "Anchor-3" 315 723 basechar 0
AnchorPoint: "Anchor-2" 386 9 basechar 0
LayerCount: 2
Fore
SplineSet
102.5 86 m 128,-1,1
 36 182 36 182 60 358 c 0,2,3
 77 477 77 477 126 561.5 c 128,-1,4
 175 646 175 646 249 689.5 c 128,-1,5
 323 733 323 733 417 733 c 0,6,7
 510 733 510 733 571.5 689.5 c 128,-1,8
 633 646 633 646 657.5 562.5 c 128,-1,9
 682 479 682 479 666 360 c 0,10,11
 641 183 641 183 547.5 86.5 c 128,-1,12
 454 -10 454 -10 312 -10 c 0,13,0
 169 -10 169 -10 102.5 86 c 128,-1,1
504.5 126 m 128,-1,15
 574 203 574 203 596 360 c 0,16,17
 618 518 618 518 570 596 c 128,-1,18
 522 674 522 674 409 674 c 128,-1,19
 296 674 296 674 225 595.5 c 128,-1,20
 154 517 154 517 132 360 c 0,21,22
 110 204 110 204 159 126.5 c 128,-1,23
 208 49 208 49 322 49 c 0,24,14
 435 49 435 49 504.5 126 c 128,-1,15
495 852 m 0,25,26
 477 852 477 852 463.5 855.5 c 128,-1,27
 450 859 450 859 432 865 c 0,28,29
 420 870 420 870 406.5 873.5 c 128,-1,30
 393 877 393 877 380 877 c 0,31,32
 364 877 364 877 353.5 873 c 128,-1,33
 343 869 343 869 334 864 c 128,-1,34
 325 859 325 859 320 857 c 0,35,36
 316 854 316 854 313 854 c 0,37,38
 309 854 309 854 309 861 c 2,39,-1
 303 883 l 2,40,41
 302 889 302 889 308 893 c 0,42,43
 328 907 328 907 344.5 914.5 c 128,-1,44
 361 922 361 922 383 922 c 0,45,46
 407 922 407 922 445 908 c 0,47,48
 448 907 448 907 465.5 901 c 128,-1,49
 483 895 483 895 502 895 c 0,50,51
 517 895 517 895 528.5 899 c 128,-1,52
 540 903 540 903 557 913 c 0,53,54
 562 916 562 916 566 916 c 0,55,56
 569 916 569 916 571 909 c 2,57,-1
 576 884 l 2,58,59
 577 883 577 883 577 881 c 0,60,61
 576 877 576 877 569 873 c 0,62,63
 533 852 533 852 495 852 c 0,25,26
EndSplineSet
EndChar

StartChar: Odieresis
Encoding: 214 214 151
Width: 717
GlyphClass: 2
Flags: W
AnchorPoint: "Anchor-5" -46 0 basechar 0
AnchorPoint: "Anchor-4" 315 0 basechar 0
AnchorPoint: "Anchor-3" 315 723 basechar 0
AnchorPoint: "Anchor-2" 386 9 basechar 0
LayerCount: 2
Fore
SplineSet
102.5 86 m 128,-1,1
 36 182 36 182 60 358 c 0,2,3
 77 477 77 477 126 561.5 c 128,-1,4
 175 646 175 646 249 689.5 c 128,-1,5
 323 733 323 733 417 733 c 0,6,7
 510 733 510 733 571.5 689.5 c 128,-1,8
 633 646 633 646 657.5 562.5 c 128,-1,9
 682 479 682 479 666 360 c 0,10,11
 641 183 641 183 547.5 86.5 c 128,-1,12
 454 -10 454 -10 312 -10 c 0,13,0
 169 -10 169 -10 102.5 86 c 128,-1,1
504.5 126 m 128,-1,15
 574 203 574 203 596 360 c 0,16,17
 618 518 618 518 570 596 c 128,-1,18
 522 674 522 674 409 674 c 128,-1,19
 296 674 296 674 225 595.5 c 128,-1,20
 154 517 154 517 132 360 c 0,21,22
 110 204 110 204 159 126.5 c 128,-1,23
 208 49 208 49 322 49 c 0,24,14
 435 49 435 49 504.5 126 c 128,-1,15
400 827 m 1,25,-1
 333 827 l 1,26,-1
 348 929 l 1,27,-1
 415 929 l 1,28,-1
 400 827 l 1,25,-1
528 827 m 1,29,-1
 461 827 l 1,30,-1
 476 929 l 1,31,-1
 543 929 l 1,32,-1
 528 827 l 1,29,-1
EndSplineSet
EndChar

StartChar: multiply
Encoding: 215 215 152
Width: 521
GlyphClass: 2
Flags: W
LayerCount: 2
Fore
SplineSet
301 363 m 1,0,-1
 438 205 l 1,1,-1
 394 167 l 1,2,-1
 259 325 l 1,3,-1
 79 167 l 1,4,-1
 47 205 l 1,5,-1
 226 363 l 1,6,-1
 90 521 l 1,7,-1
 133 558 l 1,8,-1
 269 401 l 1,9,-1
 450 560 l 1,10,-1
 483 523 l 1,11,-1
 301 363 l 1,0,-1
EndSplineSet
EndChar

StartChar: Oslash
Encoding: 216 216 153
Width: 706
GlyphClass: 2
Flags: W
AnchorPoint: "Anchor-5" -46 0 basechar 0
AnchorPoint: "Anchor-4" -46 0 basechar 0
AnchorPoint: "Anchor-3" 307 723 basechar 0
AnchorPoint: "Anchor-2" -46 0 basechar 0
LayerCount: 2
Fore
SplineSet
734 689 m 2,0,-1
 639 597 l 1,1,2
 680 504 680 504 660 360 c 0,3,4
 643 242 643 242 595 159 c 128,-1,5
 547 76 547 76 473 33 c 128,-1,6
 399 -10 399 -10 305 -10 c 0,7,8
 169 -10 169 -10 104 76 c 1,9,-1
 24 -1 l 2,10,11
 17 -9 17 -9 12 -9 c 128,-1,12
 7 -9 7 -9 2 -3 c 2,13,-1
 -16 16 l 2,14,15
 -21 23 -21 23 -21.5 26.5 c 128,-1,16
 -22 30 -22 30 -17 34 c 2,17,-1
 74 124 l 1,18,19
 34 213 34 213 54 358 c 0,20,21
 71 478 71 478 119.5 562 c 128,-1,22
 168 646 168 646 242 689.5 c 128,-1,23
 316 733 316 733 410 733 c 0,24,25
 544 733 544 733 611 645 c 1,26,-1
 694 726 l 2,27,28
 703 736 703 736 709 729 c 2,29,-1
 735 703 l 2,30,31
 741 696 741 696 734 689 c 2,0,-1
138 183 m 1,32,-1
 558 596 l 1,33,34
 515 674 515 674 402 674 c 0,35,36
 177 674 177 674 133 360 c 0,37,38
 118 251 118 251 138 183 c 1,32,-1
576 539 m 1,39,-1
 156 126 l 1,40,41
 203 49 203 49 315 49 c 128,-1,42
 427 49 427 49 492.5 125.5 c 128,-1,43
 558 202 558 202 581 360 c 0,44,45
 596 469 596 469 576 539 c 1,39,-1
EndSplineSet
EndChar

StartChar: Ugrave
Encoding: 217 217 154
Width: 704
GlyphClass: 2
Flags: W
AnchorPoint: "Anchor-5" -46 0 basechar 0
AnchorPoint: "Anchor-4" -46 0 basechar 0
AnchorPoint: "Anchor-3" 305 723 basechar 0
AnchorPoint: "Anchor-2" 377 9 basechar 0
LayerCount: 2
Fore
SplineSet
503 52 m 128,-1,1
 433 -10 433 -10 305 -10 c 0,2,3
 175 -10 175 -10 123 53.5 c 128,-1,4
 71 117 71 117 90 248 c 2,5,-1
 157 723 l 1,6,-1
 224 723 l 1,7,-1
 155 233 l 2,8,9
 142 141 142 141 182 94.5 c 128,-1,10
 222 48 222 48 313 48 c 0,11,12
 405 48 405 48 459 94.5 c 128,-1,13
 513 141 513 141 526 233 c 2,14,-1
 595 723 l 1,15,-1
 659 723 l 1,16,-1
 590 236 l 2,17,0
 573 114 573 114 503 52 c 128,-1,1
538 843 m 1,18,-1
 519 805 l 1,19,-1
 285 881 l 1,20,-1
 312 938 l 1,21,-1
 538 843 l 1,18,-1
EndSplineSet
EndChar

StartChar: Uacute
Encoding: 218 218 155
Width: 704
GlyphClass: 2
Flags: W
AnchorPoint: "Anchor-5" -46 0 basechar 0
AnchorPoint: "Anchor-4" -46 0 basechar 0
AnchorPoint: "Anchor-3" 305 723 basechar 0
AnchorPoint: "Anchor-2" 377 9 basechar 0
LayerCount: 2
Fore
SplineSet
503 52 m 128,-1,1
 433 -10 433 -10 305 -10 c 0,2,3
 175 -10 175 -10 123 53.5 c 128,-1,4
 71 117 71 117 90 248 c 2,5,-1
 157 723 l 1,6,-1
 224 723 l 1,7,-1
 155 233 l 2,8,9
 142 141 142 141 182 94.5 c 128,-1,10
 222 48 222 48 313 48 c 0,11,12
 405 48 405 48 459 94.5 c 128,-1,13
 513 141 513 141 526 233 c 2,14,-1
 595 723 l 1,15,-1
 659 723 l 1,16,-1
 590 236 l 2,17,0
 573 114 573 114 503 52 c 128,-1,1
557 881 m 1,18,-1
 301 805 l 1,19,-1
 295 843 l 1,20,-1
 547 938 l 1,21,-1
 557 881 l 1,18,-1
EndSplineSet
EndChar

StartChar: Ucircumflex
Encoding: 219 219 156
Width: 704
GlyphClass: 2
Flags: W
AnchorPoint: "Anchor-5" -46 0 basechar 0
AnchorPoint: "Anchor-4" -46 0 basechar 0
AnchorPoint: "Anchor-3" 305 723 basechar 0
AnchorPoint: "Anchor-2" 377 9 basechar 0
LayerCount: 2
Fore
SplineSet
503 52 m 128,-1,1
 433 -10 433 -10 305 -10 c 0,2,3
 175 -10 175 -10 123 53.5 c 128,-1,4
 71 117 71 117 90 248 c 2,5,-1
 157 723 l 1,6,-1
 224 723 l 1,7,-1
 155 233 l 2,8,9
 142 141 142 141 182 94.5 c 128,-1,10
 222 48 222 48 313 48 c 0,11,12
 405 48 405 48 459 94.5 c 128,-1,13
 513 141 513 141 526 233 c 2,14,-1
 595 723 l 1,15,-1
 659 723 l 1,16,-1
 590 236 l 2,17,0
 573 114 573 114 503 52 c 128,-1,1
430 890 m 1,18,-1
 344 827 l 1,19,-1
 276 827 l 1,20,-1
 413 931 l 1,21,-1
 461 931 l 1,22,-1
 565 827 l 1,23,-1
 493 827 l 1,24,-1
 430 890 l 1,18,-1
EndSplineSet
EndChar

StartChar: Udieresis
Encoding: 220 220 157
Width: 704
GlyphClass: 2
Flags: W
AnchorPoint: "Anchor-5" -46 0 basechar 0
AnchorPoint: "Anchor-4" -46 0 basechar 0
AnchorPoint: "Anchor-3" 305 723 basechar 0
AnchorPoint: "Anchor-2" 377 9 basechar 0
LayerCount: 2
Fore
SplineSet
503 52 m 128,-1,1
 433 -10 433 -10 305 -10 c 0,2,3
 175 -10 175 -10 123 53.5 c 128,-1,4
 71 117 71 117 90 248 c 2,5,-1
 157 723 l 1,6,-1
 224 723 l 1,7,-1
 155 233 l 2,8,9
 142 141 142 141 182 94.5 c 128,-1,10
 222 48 222 48 313 48 c 0,11,12
 405 48 405 48 459 94.5 c 128,-1,13
 513 141 513 141 526 233 c 2,14,-1
 595 723 l 1,15,-1
 659 723 l 1,16,-1
 590 236 l 2,17,0
 573 114 573 114 503 52 c 128,-1,1
390 827 m 1,18,-1
 323 827 l 1,19,-1
 338 929 l 1,20,-1
 405 929 l 1,21,-1
 390 827 l 1,18,-1
518 827 m 1,22,-1
 451 827 l 1,23,-1
 466 929 l 1,24,-1
 533 929 l 1,25,-1
 518 827 l 1,22,-1
EndSplineSet
EndChar

StartChar: Yacute
Encoding: 221 221 158
Width: 566
GlyphClass: 2
Flags: W
AnchorPoint: "Anchor-5" -46 0 basechar 0
AnchorPoint: "Anchor-4" -46 0 basechar 0
AnchorPoint: "Anchor-3" 238 723 basechar 0
AnchorPoint: "Anchor-2" -46 0 basechar 0
LayerCount: 2
Fore
SplineSet
313 309 m 1,0,-1
 270 0 l 1,1,-1
 207 0 l 1,2,-1
 251 310 l 1,3,-1
 65 723 l 1,4,-1
 135 723 l 1,5,-1
 291 369 l 1,6,-1
 544 723 l 1,7,-1
 613 723 l 1,8,-1
 313 309 l 1,0,-1
490 881 m 1,9,-1
 234 805 l 1,10,-1
 228 843 l 1,11,-1
 480 938 l 1,12,-1
 490 881 l 1,9,-1
EndSplineSet
EndChar

StartChar: Thorn
Encoding: 222 222 159
Width: 645
GlyphClass: 2
Flags: W
LayerCount: 2
Fore
SplineSet
527.5 221.5 m 128,-1,1
 451 171 451 171 334 171 c 2,2,-1
 152 171 l 1,3,-1
 128 0 l 1,4,-1
 55 0 l 1,5,-1
 157 723 l 1,6,-1
 230 723 l 1,7,-1
 208 569 l 1,8,-1
 380 569 l 2,9,10
 502 569 502 569 567 521 c 128,-1,11
 632 473 632 473 619 377 c 0,12,0
 604 272 604 272 527.5 221.5 c 128,-1,1
508.5 480.5 m 128,-1,14
 463 512 463 512 370 512 c 2,15,-1
 200 512 l 1,16,-1
 160 228 l 1,17,-1
 336 228 l 2,18,19
 425 228 425 228 479 264.5 c 128,-1,20
 533 301 533 301 544 378 c 0,21,13
 554 449 554 449 508.5 480.5 c 128,-1,14
EndSplineSet
EndChar

StartChar: germandbls
Encoding: 223 223 160
Width: 586
GlyphClass: 2
Flags: W
LayerCount: 2
Fore
SplineSet
481 684.5 m 128,-1,1
 514 646 514 646 506 590 c 0,2,3
 501 553 501 553 482.5 529.5 c 128,-1,4
 464 506 464 506 440.5 491.5 c 128,-1,5
 417 477 417 477 373 457 c 0,6,7
 328 434 328 434 313.5 422.5 c 128,-1,8
 299 411 299 411 296 391 c 128,-1,9
 293 371 293 371 305 362 c 128,-1,10
 317 353 317 353 355 340 c 0,11,12
 407 321 407 321 439 304 c 128,-1,13
 471 287 471 287 494.5 251 c 128,-1,14
 518 215 518 215 510 157 c 0,15,16
 499 78 499 78 439.5 34 c 128,-1,17
 380 -10 380 -10 298 -10 c 0,18,19
 262 -10 262 -10 224.5 -0.5 c 128,-1,20
 187 9 187 9 165 25 c 1,21,-1
 198 71 l 1,22,23
 223 55 223 55 245 47.5 c 128,-1,24
 267 40 267 40 298 40 c 0,25,26
 360 40 360 40 400.5 69.5 c 128,-1,27
 441 99 441 99 448 151 c 0,28,29
 453 189 453 189 438 213 c 128,-1,30
 423 237 423 237 398 250 c 128,-1,31
 373 263 373 263 330 278 c 0,32,33
 299 289 299 289 279 299.5 c 128,-1,34
 259 310 259 310 246.5 330.5 c 128,-1,35
 234 351 234 351 239 383 c 0,36,37
 244 418 244 418 268 442 c 128,-1,38
 292 466 292 466 346 493 c 0,39,40
 352 496 352 496 380.5 510.5 c 128,-1,41
 409 525 409 525 425 545 c 128,-1,42
 441 565 441 565 445 590 c 0,43,44
 450 629 450 629 425.5 651 c 128,-1,45
 401 673 401 673 350 673 c 0,46,47
 286 673 286 673 242.5 634.5 c 128,-1,48
 199 596 199 596 188 522 c 2,49,-1
 115 0 l 1,50,-1
 52 0 l 1,51,-1
 117 463 l 1,52,-1
 46 463 l 1,53,-1
 53 512 l 1,54,-1
 123 512 l 1,55,56
 137 608 137 608 202 665.5 c 128,-1,57
 267 723 267 723 365 723 c 0,58,0
 448 723 448 723 481 684.5 c 128,-1,1
EndSplineSet
EndChar

StartChar: agrave
Encoding: 224 224 161
Width: 554
GlyphClass: 2
Flags: W
AnchorPoint: "Anchor-5" -46 0 basechar 0
AnchorPoint: "Anchor-4" -46 0 basechar 0
AnchorPoint: "Anchor-3" 230 517 basechar 0
AnchorPoint: "Anchor-2" 414 13 basechar 0
LayerCount: 2
Fore
SplineSet
455 0 m 1,0,-1
 392 0 l 1,1,-1
 455 0 l 1,0,-1
392 0 m 1,2,-1
 399 50 l 1,3,4
 357 18 357 18 318.5 4 c 128,-1,5
 280 -10 280 -10 237 -10 c 0,6,7
 168 -10 168 -10 120.5 23.5 c 128,-1,8
 73 57 73 57 53.5 119.5 c 128,-1,9
 34 182 34 182 46 267 c 0,10,11
 58 351 58 351 94.5 409.5 c 128,-1,12
 131 468 131 468 185 497.5 c 128,-1,13
 239 527 239 527 301 527 c 0,14,15
 346 527 346 527 377.5 512.5 c 128,-1,16
 409 498 409 498 420 487 c 128,-1,17
 431 476 431 476 457 446 c 1,18,-1
 467 517 l 1,19,-1
 528 517 l 1,20,-1
 455 0 l 1,21,-1
 392 0 l 1,2,-1
410 126 m 1,22,-1
 440 341 l 2,23,24
 444 373 444 373 429 404 c 128,-1,25
 414 435 414 435 383 455 c 128,-1,26
 352 475 352 475 310 475 c 0,27,28
 263 475 263 475 221.5 452 c 128,-1,29
 180 429 180 429 150.5 381.5 c 128,-1,30
 121 334 121 334 111 264 c 0,31,32
 101 196 101 196 116.5 145.5 c 128,-1,33
 132 95 132 95 168 68 c 128,-1,34
 204 41 204 41 255 41 c 0,35,36
 333 41 333 41 410 126 c 1,22,-1
434 637 m 1,37,-1
 415 599 l 1,38,-1
 181 675 l 1,39,-1
 208 732 l 1,40,-1
 434 637 l 1,37,-1
EndSplineSet
EndChar

StartChar: aacute
Encoding: 225 225 162
Width: 554
GlyphClass: 2
Flags: W
AnchorPoint: "Anchor-5" -46 0 basechar 0
AnchorPoint: "Anchor-4" -46 0 basechar 0
AnchorPoint: "Anchor-3" 230 517 basechar 0
AnchorPoint: "Anchor-2" 414 13 basechar 0
LayerCount: 2
Fore
SplineSet
455 0 m 1,0,-1
 392 0 l 1,1,-1
 455 0 l 1,0,-1
392 0 m 1,2,-1
 399 50 l 1,3,4
 357 18 357 18 318.5 4 c 128,-1,5
 280 -10 280 -10 237 -10 c 0,6,7
 168 -10 168 -10 120.5 23.5 c 128,-1,8
 73 57 73 57 53.5 119.5 c 128,-1,9
 34 182 34 182 46 267 c 0,10,11
 58 351 58 351 94.5 409.5 c 128,-1,12
 131 468 131 468 185 497.5 c 128,-1,13
 239 527 239 527 301 527 c 0,14,15
 346 527 346 527 377.5 512.5 c 128,-1,16
 409 498 409 498 420 487 c 128,-1,17
 431 476 431 476 457 446 c 1,18,-1
 467 517 l 1,19,-1
 528 517 l 1,20,-1
 455 0 l 1,21,-1
 392 0 l 1,2,-1
410 126 m 1,22,-1
 440 341 l 2,23,24
 444 373 444 373 429 404 c 128,-1,25
 414 435 414 435 383 455 c 128,-1,26
 352 475 352 475 310 475 c 0,27,28
 263 475 263 475 221.5 452 c 128,-1,29
 180 429 180 429 150.5 381.5 c 128,-1,30
 121 334 121 334 111 264 c 0,31,32
 101 196 101 196 116.5 145.5 c 128,-1,33
 132 95 132 95 168 68 c 128,-1,34
 204 41 204 41 255 41 c 0,35,36
 333 41 333 41 410 126 c 1,22,-1
453 675 m 1,37,-1
 197 599 l 1,38,-1
 191 637 l 1,39,-1
 443 732 l 1,40,-1
 453 675 l 1,37,-1
EndSplineSet
EndChar

StartChar: acircumflex
Encoding: 226 226 163
Width: 554
GlyphClass: 2
Flags: W
AnchorPoint: "Anchor-5" -46 0 basechar 0
AnchorPoint: "Anchor-4" -46 0 basechar 0
AnchorPoint: "Anchor-3" 230 517 basechar 0
AnchorPoint: "Anchor-2" 414 13 basechar 0
LayerCount: 2
Fore
SplineSet
455 0 m 1,0,-1
 392 0 l 1,1,-1
 455 0 l 1,0,-1
392 0 m 1,2,-1
 399 50 l 1,3,4
 357 18 357 18 318.5 4 c 128,-1,5
 280 -10 280 -10 237 -10 c 0,6,7
 168 -10 168 -10 120.5 23.5 c 128,-1,8
 73 57 73 57 53.5 119.5 c 128,-1,9
 34 182 34 182 46 267 c 0,10,11
 58 351 58 351 94.5 409.5 c 128,-1,12
 131 468 131 468 185 497.5 c 128,-1,13
 239 527 239 527 301 527 c 0,14,15
 346 527 346 527 377.5 512.5 c 128,-1,16
 409 498 409 498 420 487 c 128,-1,17
 431 476 431 476 457 446 c 1,18,-1
 467 517 l 1,19,-1
 528 517 l 1,20,-1
 455 0 l 1,21,-1
 392 0 l 1,2,-1
410 126 m 1,22,-1
 440 341 l 2,23,24
 444 373 444 373 429 404 c 128,-1,25
 414 435 414 435 383 455 c 128,-1,26
 352 475 352 475 310 475 c 0,27,28
 263 475 263 475 221.5 452 c 128,-1,29
 180 429 180 429 150.5 381.5 c 128,-1,30
 121 334 121 334 111 264 c 0,31,32
 101 196 101 196 116.5 145.5 c 128,-1,33
 132 95 132 95 168 68 c 128,-1,34
 204 41 204 41 255 41 c 0,35,36
 333 41 333 41 410 126 c 1,22,-1
326 684 m 1,37,-1
 240 621 l 1,38,-1
 172 621 l 1,39,-1
 309 725 l 1,40,-1
 357 725 l 1,41,-1
 461 621 l 1,42,-1
 389 621 l 1,43,-1
 326 684 l 1,37,-1
EndSplineSet
EndChar

StartChar: atilde
Encoding: 227 227 164
Width: 554
GlyphClass: 2
Flags: W
AnchorPoint: "Anchor-5" -46 0 basechar 0
AnchorPoint: "Anchor-4" -46 0 basechar 0
AnchorPoint: "Anchor-3" 230 517 basechar 0
AnchorPoint: "Anchor-2" 414 13 basechar 0
LayerCount: 2
Fore
SplineSet
455 0 m 1,0,-1
 392 0 l 1,1,-1
 455 0 l 1,0,-1
392 0 m 1,2,-1
 399 50 l 1,3,4
 357 18 357 18 318.5 4 c 128,-1,5
 280 -10 280 -10 237 -10 c 0,6,7
 168 -10 168 -10 120.5 23.5 c 128,-1,8
 73 57 73 57 53.5 119.5 c 128,-1,9
 34 182 34 182 46 267 c 0,10,11
 58 351 58 351 94.5 409.5 c 128,-1,12
 131 468 131 468 185 497.5 c 128,-1,13
 239 527 239 527 301 527 c 0,14,15
 346 527 346 527 377.5 512.5 c 128,-1,16
 409 498 409 498 420 487 c 128,-1,17
 431 476 431 476 457 446 c 1,18,-1
 467 517 l 1,19,-1
 528 517 l 1,20,-1
 455 0 l 1,21,-1
 392 0 l 1,2,-1
410 126 m 1,22,-1
 440 341 l 2,23,24
 444 373 444 373 429 404 c 128,-1,25
 414 435 414 435 383 455 c 128,-1,26
 352 475 352 475 310 475 c 0,27,28
 263 475 263 475 221.5 452 c 128,-1,29
 180 429 180 429 150.5 381.5 c 128,-1,30
 121 334 121 334 111 264 c 0,31,32
 101 196 101 196 116.5 145.5 c 128,-1,33
 132 95 132 95 168 68 c 128,-1,34
 204 41 204 41 255 41 c 0,35,36
 333 41 333 41 410 126 c 1,22,-1
381 646 m 0,37,38
 363 646 363 646 349.5 649.5 c 128,-1,39
 336 653 336 653 318 659 c 0,40,41
 306 664 306 664 292.5 667.5 c 128,-1,42
 279 671 279 671 266 671 c 0,43,44
 250 671 250 671 239.5 667 c 128,-1,45
 229 663 229 663 220 658 c 128,-1,46
 211 653 211 653 206 651 c 0,47,48
 202 648 202 648 199 648 c 0,49,50
 195 648 195 648 195 655 c 2,51,-1
 189 677 l 2,52,53
 188 683 188 683 194 687 c 0,54,55
 214 701 214 701 230.5 708.5 c 128,-1,56
 247 716 247 716 269 716 c 0,57,58
 293 716 293 716 331 702 c 0,59,60
 334 701 334 701 351.5 695 c 128,-1,61
 369 689 369 689 388 689 c 0,62,63
 403 689 403 689 414.5 693 c 128,-1,64
 426 697 426 697 443 707 c 0,65,66
 448 710 448 710 452 710 c 0,67,68
 455 710 455 710 457 703 c 2,69,-1
 462 678 l 2,70,71
 463 677 463 677 463 675 c 0,72,73
 462 671 462 671 455 667 c 0,74,75
 419 646 419 646 381 646 c 0,37,38
EndSplineSet
EndChar

StartChar: adieresis
Encoding: 228 228 165
Width: 554
GlyphClass: 2
Flags: W
AnchorPoint: "Anchor-5" -46 0 basechar 0
AnchorPoint: "Anchor-4" -46 0 basechar 0
AnchorPoint: "Anchor-3" 230 517 basechar 0
AnchorPoint: "Anchor-2" 414 13 basechar 0
LayerCount: 2
Fore
SplineSet
455 0 m 1,0,-1
 392 0 l 1,1,-1
 455 0 l 1,0,-1
392 0 m 1,2,-1
 399 50 l 1,3,4
 357 18 357 18 318.5 4 c 128,-1,5
 280 -10 280 -10 237 -10 c 0,6,7
 168 -10 168 -10 120.5 23.5 c 128,-1,8
 73 57 73 57 53.5 119.5 c 128,-1,9
 34 182 34 182 46 267 c 0,10,11
 58 351 58 351 94.5 409.5 c 128,-1,12
 131 468 131 468 185 497.5 c 128,-1,13
 239 527 239 527 301 527 c 0,14,15
 346 527 346 527 377.5 512.5 c 128,-1,16
 409 498 409 498 420 487 c 128,-1,17
 431 476 431 476 457 446 c 1,18,-1
 467 517 l 1,19,-1
 528 517 l 1,20,-1
 455 0 l 1,21,-1
 392 0 l 1,2,-1
410 126 m 1,22,-1
 440 341 l 2,23,24
 444 373 444 373 429 404 c 128,-1,25
 414 435 414 435 383 455 c 128,-1,26
 352 475 352 475 310 475 c 0,27,28
 263 475 263 475 221.5 452 c 128,-1,29
 180 429 180 429 150.5 381.5 c 128,-1,30
 121 334 121 334 111 264 c 0,31,32
 101 196 101 196 116.5 145.5 c 128,-1,33
 132 95 132 95 168 68 c 128,-1,34
 204 41 204 41 255 41 c 0,35,36
 333 41 333 41 410 126 c 1,22,-1
286 621 m 1,37,-1
 219 621 l 1,38,-1
 234 723 l 1,39,-1
 301 723 l 1,40,-1
 286 621 l 1,37,-1
414 621 m 1,41,-1
 347 621 l 1,42,-1
 362 723 l 1,43,-1
 429 723 l 1,44,-1
 414 621 l 1,41,-1
EndSplineSet
EndChar

StartChar: aring
Encoding: 229 229 166
Width: 554
GlyphClass: 2
Flags: W
AnchorPoint: "Anchor-5" -46 0 basechar 0
AnchorPoint: "Anchor-4" -46 0 basechar 0
AnchorPoint: "Anchor-3" 230 517 basechar 0
AnchorPoint: "Anchor-2" 414 13 basechar 0
LayerCount: 2
Fore
SplineSet
455 0 m 1,0,-1
 392 0 l 1,1,-1
 455 0 l 1,0,-1
392 0 m 1,2,-1
 399 50 l 1,3,4
 357 18 357 18 318.5 4 c 128,-1,5
 280 -10 280 -10 237 -10 c 0,6,7
 168 -10 168 -10 120.5 23.5 c 128,-1,8
 73 57 73 57 53.5 119.5 c 128,-1,9
 34 182 34 182 46 267 c 0,10,11
 58 351 58 351 94.5 409.5 c 128,-1,12
 131 468 131 468 185 497.5 c 128,-1,13
 239 527 239 527 301 527 c 0,14,15
 346 527 346 527 377.5 512.5 c 128,-1,16
 409 498 409 498 420 487 c 128,-1,17
 431 476 431 476 457 446 c 1,18,-1
 467 517 l 1,19,-1
 528 517 l 1,20,-1
 455 0 l 1,21,-1
 392 0 l 1,2,-1
410 126 m 1,22,-1
 440 341 l 2,23,24
 444 373 444 373 429 404 c 128,-1,25
 414 435 414 435 383 455 c 128,-1,26
 352 475 352 475 310 475 c 0,27,28
 263 475 263 475 221.5 452 c 128,-1,29
 180 429 180 429 150.5 381.5 c 128,-1,30
 121 334 121 334 111 264 c 0,31,32
 101 196 101 196 116.5 145.5 c 128,-1,33
 132 95 132 95 168 68 c 128,-1,34
 204 41 204 41 255 41 c 0,35,36
 333 41 333 41 410 126 c 1,22,-1
387 610.5 m 128,-1,38
 354 582 354 582 312 582 c 128,-1,39
 270 582 270 582 245 611.5 c 128,-1,40
 220 641 220 641 226 684 c 0,41,42
 232 724 232 724 265 752 c 128,-1,43
 298 780 298 780 339 780 c 0,44,45
 381 780 381 780 406 751.5 c 128,-1,46
 431 723 431 723 426 682 c 0,47,37
 420 639 420 639 387 610.5 c 128,-1,38
369 721.5 m 128,-1,49
 355 737 355 737 332 737 c 128,-1,50
 309 737 309 737 290.5 721.5 c 128,-1,51
 272 706 272 706 269 682 c 0,52,53
 266 659 266 659 280.5 642 c 128,-1,54
 295 625 295 625 317 625 c 0,55,56
 340 625 340 625 358 642 c 128,-1,57
 376 659 376 659 380 682 c 0,58,48
 383 706 383 706 369 721.5 c 128,-1,49
EndSplineSet
EndChar

StartChar: ae
Encoding: 230 230 167
Width: 929
GlyphClass: 2
Flags: W
AnchorPoint: "Anchor-5" -46 0 basechar 0
AnchorPoint: "Anchor-4" -46 0 basechar 0
AnchorPoint: "Anchor-3" 409 517 basechar 0
AnchorPoint: "Anchor-2" -46 0 basechar 0
LayerCount: 2
Fore
SplineSet
466.5 147 m 128,-1,1
 484 100 484 100 521.5 70.5 c 128,-1,2
 559 41 559 41 608 41 c 0,3,4
 671 41 671 41 711 66 c 128,-1,5
 751 91 751 91 789 134 c 1,6,-1
 829 108 l 1,7,8
 790 53 790 53 729.5 21.5 c 128,-1,9
 669 -10 669 -10 595 -10 c 128,-1,10
 521 -10 521 -10 479.5 21 c 128,-1,11
 438 52 438 52 410 99 c 0,12,13
 409 104 409 104 405 99 c 0,14,15
 357 50 357 50 304.5 20 c 128,-1,16
 252 -10 252 -10 171 -10 c 0,17,18
 94 -10 94 -10 56 28.5 c 128,-1,19
 18 67 18 67 28 134 c 0,20,21
 38 208 38 208 104 251 c 128,-1,22
 170 294 170 294 292 304 c 2,23,-1
 406 312 l 1,24,-1
 412 354 l 2,25,26
 420 412 420 412 390 444.5 c 128,-1,27
 360 477 360 477 294 477 c 0,28,29
 204 477 204 477 128 385 c 1,30,-1
 79 408 l 1,31,32
 120 466 120 466 178.5 496.5 c 128,-1,33
 237 527 237 527 308 527 c 128,-1,34
 379 527 379 527 418 501 c 128,-1,35
 457 475 457 475 466 422 c 1,36,37
 503 474 503 474 555.5 500.5 c 128,-1,38
 608 527 608 527 672 527 c 0,39,40
 741 527 741 527 788.5 493.5 c 128,-1,41
 836 460 836 460 855.5 396 c 128,-1,42
 875 332 875 332 862 244 c 1,43,-1
 456 243 l 1,44,0
 449 194 449 194 466.5 147 c 128,-1,1
573 454 m 128,-1,46
 531 431 531 431 502 388.5 c 128,-1,47
 473 346 473 346 465 290 c 1,48,-1
 804 289 l 1,49,50
 811 340 811 340 796 383 c 128,-1,51
 781 426 781 426 746.5 451.5 c 128,-1,52
 712 477 712 477 664 477 c 0,53,45
 615 477 615 477 573 454 c 128,-1,46
303 259 m 2,54,55
 108 244 108 244 93 138 c 0,56,57
 87 94 87 94 112.5 67 c 128,-1,58
 138 40 138 40 190 40 c 0,59,60
 238 40 238 40 281.5 57.5 c 128,-1,61
 325 75 325 75 353 105 c 128,-1,62
 381 135 381 135 386 170 c 2,63,-1
 399 266 l 1,64,-1
 303 259 l 2,54,55
EndSplineSet
EndChar

StartChar: ccedilla
Encoding: 231 231 168
Width: 538
GlyphClass: 2
Flags: W
AnchorPoint: "Anchor-5" -46 0 basechar 0
AnchorPoint: "Anchor-4" 239 0 basechar 0
AnchorPoint: "Anchor-3" 237 517 basechar 0
AnchorPoint: "Anchor-2" -46 0 basechar 0
LayerCount: 2
Fore
SplineSet
422 493.5 m 128,-1,1
 464 460 464 460 487 398 c 1,2,-1
 431 380 l 1,3,4
 399 432 399 432 374.5 452 c 128,-1,5
 350 472 350 472 309 472 c 0,6,7
 230 472 230 472 175.5 413.5 c 128,-1,8
 121 355 121 355 107 258 c 0,9,10
 93 159 93 159 131 100.5 c 128,-1,11
 169 42 169 42 248 42 c 0,12,13
 296 42 296 42 332 67 c 128,-1,14
 368 92 368 92 405 143 c 1,15,-1
 454 124 l 1,16,17
 370 -10 370 -10 237 -10 c 0,18,19
 167 -10 167 -10 119.5 23.5 c 128,-1,20
 72 57 72 57 52.5 117 c 128,-1,21
 33 177 33 177 44 256 c 128,-1,22
 55 335 55 335 91.5 396.5 c 128,-1,23
 128 458 128 458 185.5 492.5 c 128,-1,24
 243 527 243 527 312 527 c 0,25,0
 380 527 380 527 422 493.5 c 128,-1,1
265.5 -182.5 m 128,-1,27
 234 -202 234 -202 190 -202 c 0,28,29
 142 -202 142 -202 109 -178 c 1,30,-1
 127 -145 l 1,31,32
 151 -168 151 -168 187 -168 c 0,33,34
 243 -168 243 -168 249 -128 c 0,35,36
 252 -106 252 -106 235 -95.5 c 128,-1,37
 218 -85 218 -85 178 -83 c 0,38,39
 170 -83 170 -83 174 -78 c 2,40,-1
 222 5 l 1,41,-1
 262 5 l 1,42,-1
 229 -56 l 1,43,44
 273 -59 273 -59 289.5 -79 c 128,-1,45
 306 -99 306 -99 302 -127 c 0,46,26
 297 -163 297 -163 265.5 -182.5 c 128,-1,27
EndSplineSet
EndChar

StartChar: egrave
Encoding: 232 232 169
Width: 554
GlyphClass: 2
Flags: W
AnchorPoint: "Anchor-5" -46 0 basechar 0
AnchorPoint: "Anchor-4" 230 0 basechar 0
AnchorPoint: "Anchor-3" 237 517 basechar 0
AnchorPoint: "Anchor-2" 335 19 basechar 0
LayerCount: 2
Fore
SplineSet
132 100 m 128,-1,1
 168 44 168 44 252 44 c 0,2,3
 360 44 360 44 405 130 c 1,4,-1
 461 117 l 1,5,6
 434 57 434 57 376 23.5 c 128,-1,7
 318 -10 318 -10 245 -10 c 0,8,9
 175 -10 175 -10 125 21.5 c 128,-1,10
 75 53 75 53 53.5 112.5 c 128,-1,11
 32 172 32 172 44 254 c 0,12,13
 62 380 62 380 132.5 453.5 c 128,-1,14
 203 527 203 527 311 527 c 0,15,16
 414 527 414 527 461.5 460 c 128,-1,17
 509 393 509 393 493 274 c 2,18,-1
 488 243 l 1,19,-1
 108 243 l 1,20,0
 96 156 96 156 132 100 c 128,-1,1
432 293 m 1,21,22
 443 374 443 374 411 424 c 128,-1,23
 379 474 379 474 303 474 c 0,24,25
 249 474 249 474 208.5 448 c 128,-1,26
 168 422 168 422 145 380.5 c 128,-1,27
 122 339 122 339 115 293 c 1,28,-1
 432 293 l 1,21,22
441 637 m 1,29,-1
 422 599 l 1,30,-1
 188 675 l 1,31,-1
 215 732 l 1,32,-1
 441 637 l 1,29,-1
EndSplineSet
EndChar

StartChar: eacute
Encoding: 233 233 170
Width: 554
GlyphClass: 2
Flags: W
AnchorPoint: "Anchor-5" -46 0 basechar 0
AnchorPoint: "Anchor-4" 230 0 basechar 0
AnchorPoint: "Anchor-3" 237 517 basechar 0
AnchorPoint: "Anchor-2" 335 19 basechar 0
LayerCount: 2
Fore
SplineSet
132 100 m 128,-1,1
 168 44 168 44 252 44 c 0,2,3
 360 44 360 44 405 130 c 1,4,-1
 461 117 l 1,5,6
 434 57 434 57 376 23.5 c 128,-1,7
 318 -10 318 -10 245 -10 c 0,8,9
 175 -10 175 -10 125 21.5 c 128,-1,10
 75 53 75 53 53.5 112.5 c 128,-1,11
 32 172 32 172 44 254 c 0,12,13
 62 380 62 380 132.5 453.5 c 128,-1,14
 203 527 203 527 311 527 c 0,15,16
 414 527 414 527 461.5 460 c 128,-1,17
 509 393 509 393 493 274 c 2,18,-1
 488 243 l 1,19,-1
 108 243 l 1,20,0
 96 156 96 156 132 100 c 128,-1,1
432 293 m 1,21,22
 443 374 443 374 411 424 c 128,-1,23
 379 474 379 474 303 474 c 0,24,25
 249 474 249 474 208.5 448 c 128,-1,26
 168 422 168 422 145 380.5 c 128,-1,27
 122 339 122 339 115 293 c 1,28,-1
 432 293 l 1,21,22
460 675 m 1,29,-1
 204 599 l 1,30,-1
 198 637 l 1,31,-1
 450 732 l 1,32,-1
 460 675 l 1,29,-1
EndSplineSet
EndChar

StartChar: ecircumflex
Encoding: 234 234 171
Width: 554
GlyphClass: 2
Flags: W
AnchorPoint: "Anchor-5" -46 0 basechar 0
AnchorPoint: "Anchor-4" 230 0 basechar 0
AnchorPoint: "Anchor-3" 237 517 basechar 0
AnchorPoint: "Anchor-2" 335 19 basechar 0
LayerCount: 2
Fore
SplineSet
132 100 m 128,-1,1
 168 44 168 44 252 44 c 0,2,3
 360 44 360 44 405 130 c 1,4,-1
 461 117 l 1,5,6
 434 57 434 57 376 23.5 c 128,-1,7
 318 -10 318 -10 245 -10 c 0,8,9
 175 -10 175 -10 125 21.5 c 128,-1,10
 75 53 75 53 53.5 112.5 c 128,-1,11
 32 172 32 172 44 254 c 0,12,13
 62 380 62 380 132.5 453.5 c 128,-1,14
 203 527 203 527 311 527 c 0,15,16
 414 527 414 527 461.5 460 c 128,-1,17
 509 393 509 393 493 274 c 2,18,-1
 488 243 l 1,19,-1
 108 243 l 1,20,0
 96 156 96 156 132 100 c 128,-1,1
432 293 m 1,21,22
 443 374 443 374 411 424 c 128,-1,23
 379 474 379 474 303 474 c 0,24,25
 249 474 249 474 208.5 448 c 128,-1,26
 168 422 168 422 145 380.5 c 128,-1,27
 122 339 122 339 115 293 c 1,28,-1
 432 293 l 1,21,22
333 684 m 1,29,-1
 247 621 l 1,30,-1
 179 621 l 1,31,-1
 316 725 l 1,32,-1
 364 725 l 1,33,-1
 468 621 l 1,34,-1
 396 621 l 1,35,-1
 333 684 l 1,29,-1
EndSplineSet
EndChar

StartChar: edieresis
Encoding: 235 235 172
Width: 554
GlyphClass: 2
Flags: W
AnchorPoint: "Anchor-5" -46 0 basechar 0
AnchorPoint: "Anchor-4" 230 0 basechar 0
AnchorPoint: "Anchor-3" 237 517 basechar 0
AnchorPoint: "Anchor-2" 335 19 basechar 0
LayerCount: 2
Fore
SplineSet
132 100 m 128,-1,1
 168 44 168 44 252 44 c 0,2,3
 360 44 360 44 405 130 c 1,4,-1
 461 117 l 1,5,6
 434 57 434 57 376 23.5 c 128,-1,7
 318 -10 318 -10 245 -10 c 0,8,9
 175 -10 175 -10 125 21.5 c 128,-1,10
 75 53 75 53 53.5 112.5 c 128,-1,11
 32 172 32 172 44 254 c 0,12,13
 62 380 62 380 132.5 453.5 c 128,-1,14
 203 527 203 527 311 527 c 0,15,16
 414 527 414 527 461.5 460 c 128,-1,17
 509 393 509 393 493 274 c 2,18,-1
 488 243 l 1,19,-1
 108 243 l 1,20,0
 96 156 96 156 132 100 c 128,-1,1
432 293 m 1,21,22
 443 374 443 374 411 424 c 128,-1,23
 379 474 379 474 303 474 c 0,24,25
 249 474 249 474 208.5 448 c 128,-1,26
 168 422 168 422 145 380.5 c 128,-1,27
 122 339 122 339 115 293 c 1,28,-1
 432 293 l 1,21,22
293 621 m 1,29,-1
 226 621 l 1,30,-1
 241 723 l 1,31,-1
 308 723 l 1,32,-1
 293 621 l 1,29,-1
421 621 m 1,33,-1
 354 621 l 1,34,-1
 369 723 l 1,35,-1
 436 723 l 1,36,-1
 421 621 l 1,33,-1
EndSplineSet
EndChar

StartChar: igrave
Encoding: 236 236 173
Width: 233
GlyphClass: 2
Flags: W
AnchorPoint: "Anchor-5" -46 0 basechar 0
AnchorPoint: "Anchor-4" -46 0 basechar 0
AnchorPoint: "Anchor-3" 71 517 basechar 0
AnchorPoint: "Anchor-2" 91 12 basechar 0
LayerCount: 2
Fore
SplineSet
102 0 m 1,0,-1
 39 0 l 1,1,-1
 112 517 l 1,2,-1
 175 517 l 1,3,-1
 102 0 l 1,0,-1
275 637 m 1,4,-1
 256 599 l 1,5,-1
 22 675 l 1,6,-1
 49 732 l 1,7,-1
 275 637 l 1,4,-1
EndSplineSet
EndChar

StartChar: iacute
Encoding: 237 237 174
Width: 233
GlyphClass: 2
Flags: W
AnchorPoint: "Anchor-5" -46 0 basechar 0
AnchorPoint: "Anchor-4" -46 0 basechar 0
AnchorPoint: "Anchor-3" 71 517 basechar 0
AnchorPoint: "Anchor-2" 91 12 basechar 0
LayerCount: 2
Fore
SplineSet
102 0 m 1,0,-1
 39 0 l 1,1,-1
 112 517 l 1,2,-1
 175 517 l 1,3,-1
 102 0 l 1,0,-1
294 675 m 1,4,-1
 38 599 l 1,5,-1
 32 637 l 1,6,-1
 284 732 l 1,7,-1
 294 675 l 1,4,-1
EndSplineSet
EndChar

StartChar: icircumflex
Encoding: 238 238 175
Width: 233
GlyphClass: 2
Flags: W
AnchorPoint: "Anchor-5" -46 0 basechar 0
AnchorPoint: "Anchor-4" -46 0 basechar 0
AnchorPoint: "Anchor-3" 71 517 basechar 0
AnchorPoint: "Anchor-2" 91 12 basechar 0
LayerCount: 2
Fore
SplineSet
102 0 m 1,0,-1
 39 0 l 1,1,-1
 112 517 l 1,2,-1
 175 517 l 1,3,-1
 102 0 l 1,0,-1
167 684 m 1,4,-1
 81 621 l 1,5,-1
 13 621 l 1,6,-1
 150 725 l 1,7,-1
 198 725 l 1,8,-1
 302 621 l 1,9,-1
 230 621 l 1,10,-1
 167 684 l 1,4,-1
EndSplineSet
EndChar

StartChar: idieresis
Encoding: 239 239 176
Width: 233
GlyphClass: 2
Flags: W
AnchorPoint: "Anchor-5" -46 0 basechar 0
AnchorPoint: "Anchor-4" -46 0 basechar 0
AnchorPoint: "Anchor-3" 71 517 basechar 0
AnchorPoint: "Anchor-2" 91 12 basechar 0
LayerCount: 2
Fore
SplineSet
102 0 m 1,0,-1
 39 0 l 1,1,-1
 112 517 l 1,2,-1
 175 517 l 1,3,-1
 102 0 l 1,0,-1
127 621 m 1,4,-1
 60 621 l 1,5,-1
 75 723 l 1,6,-1
 142 723 l 1,7,-1
 127 621 l 1,4,-1
255 621 m 1,8,-1
 188 621 l 1,9,-1
 203 723 l 1,10,-1
 270 723 l 1,11,-1
 255 621 l 1,8,-1
EndSplineSet
EndChar

StartChar: eth
Encoding: 240 240 177
Width: 595
GlyphClass: 2
Flags: W
LayerCount: 2
Fore
SplineSet
480 116 m 128,-1,1
 442 56 442 56 382.5 23 c 128,-1,2
 323 -10 323 -10 248 -10 c 0,3,4
 177 -10 177 -10 127 23 c 128,-1,5
 77 56 77 56 54.5 114 c 128,-1,6
 32 172 32 172 43 246 c 0,7,8
 54 321 54 321 92.5 380.5 c 128,-1,9
 131 440 131 440 189 473.5 c 128,-1,10
 247 507 247 507 314 507 c 0,11,12
 357 507 357 507 391.5 492.5 c 128,-1,13
 426 478 426 478 448 451 c 1,14,15
 417 552 417 552 324 623 c 1,16,-1
 150 532 l 1,17,-1
 134 566 l 1,18,-1
 290 647 l 1,19,20
 250 672 250 672 181 701 c 1,21,-1
 231 734 l 1,22,23
 291 711 291 711 347 677 c 1,24,-1
 459 735 l 1,25,-1
 472 700 l 1,26,-1
 381 652 l 1,27,28
 565 513 565 513 529 253 c 0,29,0
 518 176 518 176 480 116 c 128,-1,1
352.5 68 m 128,-1,31
 396 95 396 95 425.5 142 c 128,-1,32
 455 189 455 189 463 248 c 0,33,34
 471 306 471 306 455 354 c 128,-1,35
 439 402 439 402 402.5 429.5 c 128,-1,36
 366 457 366 457 316 457 c 0,37,38
 265 457 265 457 220.5 429.5 c 128,-1,39
 176 402 176 402 146.5 354 c 128,-1,40
 117 306 117 306 109 248 c 128,-1,41
 101 190 101 190 117 142.5 c 128,-1,42
 133 95 133 95 170 68 c 128,-1,43
 207 41 207 41 259 41 c 0,44,30
 309 41 309 41 352.5 68 c 128,-1,31
EndSplineSet
EndChar

StartChar: ntilde
Encoding: 241 241 178
Width: 579
GlyphClass: 2
Flags: W
AnchorPoint: "Anchor-5" -46 0 basechar 0
AnchorPoint: "Anchor-4" 245 0 basechar 0
AnchorPoint: "Anchor-3" 253 517 basechar 0
AnchorPoint: "Anchor-2" -46 0 basechar 0
LayerCount: 2
Fore
SplineSet
112 517 m 1,0,-1
 172 517 l 1,1,-1
 161 442 l 1,2,3
 188 480 188 480 235 503 c 128,-1,4
 282 526 282 526 342 526 c 0,5,6
 422 526 422 526 465.5 477.5 c 128,-1,7
 509 429 509 429 496 337 c 2,8,-1
 449 0 l 1,9,-1
 385 0 l 1,10,-1
 432 333 l 2,11,12
 441 399 441 399 411.5 434.5 c 128,-1,13
 382 470 382 470 322 470 c 0,14,15
 256 470 256 470 208 440 c 128,-1,16
 160 410 160 410 152 354 c 2,17,-1
 102 0 l 1,18,-1
 39 0 l 1,19,-1
 112 517 l 1,0,-1
404 646 m 0,20,21
 386 646 386 646 372.5 649.5 c 128,-1,22
 359 653 359 653 341 659 c 0,23,24
 329 664 329 664 315.5 667.5 c 128,-1,25
 302 671 302 671 289 671 c 0,26,27
 273 671 273 671 262.5 667 c 128,-1,28
 252 663 252 663 243 658 c 128,-1,29
 234 653 234 653 229 651 c 0,30,31
 225 648 225 648 222 648 c 0,32,33
 218 648 218 648 218 655 c 2,34,-1
 212 677 l 2,35,36
 211 683 211 683 217 687 c 0,37,38
 237 701 237 701 253.5 708.5 c 128,-1,39
 270 716 270 716 292 716 c 0,40,41
 316 716 316 716 354 702 c 0,42,43
 357 701 357 701 374.5 695 c 128,-1,44
 392 689 392 689 411 689 c 0,45,46
 426 689 426 689 437.5 693 c 128,-1,47
 449 697 449 697 466 707 c 0,48,49
 471 710 471 710 475 710 c 0,50,51
 478 710 478 710 480 703 c 2,52,-1
 485 678 l 2,53,54
 486 677 486 677 486 675 c 0,55,56
 485 671 485 671 478 667 c 0,57,58
 442 646 442 646 404 646 c 0,20,21
EndSplineSet
EndChar

StartChar: ograve
Encoding: 242 242 179
Width: 566
GlyphClass: 2
Flags: W
AnchorPoint: "Anchor-5" -46 0 basechar 0
AnchorPoint: "Anchor-4" 236 0 basechar 0
AnchorPoint: "Anchor-3" 239 517 basechar 0
AnchorPoint: "Anchor-2" 302 10 basechar 0
LayerCount: 2
Fore
SplineSet
77.5 62.5 m 128,-1,1
 27 135 27 135 44 255 c 0,2,3
 55 335 55 335 91 396.5 c 128,-1,4
 127 458 127 458 184 492.5 c 128,-1,5
 241 527 241 527 312 527 c 128,-1,6
 383 527 383 527 430 493 c 128,-1,7
 477 459 477 459 495 397.5 c 128,-1,8
 513 336 513 336 502 257 c 128,-1,9
 491 178 491 178 455.5 117.5 c 128,-1,10
 420 57 420 57 363.5 23.5 c 128,-1,11
 307 -10 307 -10 236 -10 c 0,12,0
 128 -10 128 -10 77.5 62.5 c 128,-1,1
374.5 101.5 m 128,-1,14
 424 160 424 160 438 258 c 128,-1,15
 452 356 452 356 418.5 414.5 c 128,-1,16
 385 473 385 473 304 473 c 128,-1,17
 223 473 223 473 173 414 c 128,-1,18
 123 355 123 355 109 258 c 128,-1,19
 95 161 95 161 129.5 102 c 128,-1,20
 164 43 164 43 245 43 c 0,21,13
 325 43 325 43 374.5 101.5 c 128,-1,14
443 637 m 1,22,-1
 424 599 l 1,23,-1
 190 675 l 1,24,-1
 217 732 l 1,25,-1
 443 637 l 1,22,-1
EndSplineSet
EndChar

StartChar: oacute
Encoding: 243 243 180
Width: 566
GlyphClass: 2
Flags: W
AnchorPoint: "Anchor-5" -46 0 basechar 0
AnchorPoint: "Anchor-4" 236 0 basechar 0
AnchorPoint: "Anchor-3" 239 517 basechar 0
AnchorPoint: "Anchor-2" 302 10 basechar 0
LayerCount: 2
Fore
SplineSet
77.5 62.5 m 128,-1,1
 27 135 27 135 44 255 c 0,2,3
 55 335 55 335 91 396.5 c 128,-1,4
 127 458 127 458 184 492.5 c 128,-1,5
 241 527 241 527 312 527 c 128,-1,6
 383 527 383 527 430 493 c 128,-1,7
 477 459 477 459 495 397.5 c 128,-1,8
 513 336 513 336 502 257 c 128,-1,9
 491 178 491 178 455.5 117.5 c 128,-1,10
 420 57 420 57 363.5 23.5 c 128,-1,11
 307 -10 307 -10 236 -10 c 0,12,0
 128 -10 128 -10 77.5 62.5 c 128,-1,1
374.5 101.5 m 128,-1,14
 424 160 424 160 438 258 c 128,-1,15
 452 356 452 356 418.5 414.5 c 128,-1,16
 385 473 385 473 304 473 c 128,-1,17
 223 473 223 473 173 414 c 128,-1,18
 123 355 123 355 109 258 c 128,-1,19
 95 161 95 161 129.5 102 c 128,-1,20
 164 43 164 43 245 43 c 0,21,13
 325 43 325 43 374.5 101.5 c 128,-1,14
462 675 m 1,22,-1
 206 599 l 1,23,-1
 200 637 l 1,24,-1
 452 732 l 1,25,-1
 462 675 l 1,22,-1
EndSplineSet
EndChar

StartChar: ocircumflex
Encoding: 244 244 181
Width: 566
GlyphClass: 2
Flags: W
AnchorPoint: "Anchor-5" -46 0 basechar 0
AnchorPoint: "Anchor-4" 236 0 basechar 0
AnchorPoint: "Anchor-3" 239 517 basechar 0
AnchorPoint: "Anchor-2" 302 10 basechar 0
LayerCount: 2
Fore
SplineSet
77.5 62.5 m 128,-1,1
 27 135 27 135 44 255 c 0,2,3
 55 335 55 335 91 396.5 c 128,-1,4
 127 458 127 458 184 492.5 c 128,-1,5
 241 527 241 527 312 527 c 128,-1,6
 383 527 383 527 430 493 c 128,-1,7
 477 459 477 459 495 397.5 c 128,-1,8
 513 336 513 336 502 257 c 128,-1,9
 491 178 491 178 455.5 117.5 c 128,-1,10
 420 57 420 57 363.5 23.5 c 128,-1,11
 307 -10 307 -10 236 -10 c 0,12,0
 128 -10 128 -10 77.5 62.5 c 128,-1,1
374.5 101.5 m 128,-1,14
 424 160 424 160 438 258 c 128,-1,15
 452 356 452 356 418.5 414.5 c 128,-1,16
 385 473 385 473 304 473 c 128,-1,17
 223 473 223 473 173 414 c 128,-1,18
 123 355 123 355 109 258 c 128,-1,19
 95 161 95 161 129.5 102 c 128,-1,20
 164 43 164 43 245 43 c 0,21,13
 325 43 325 43 374.5 101.5 c 128,-1,14
335 684 m 1,22,-1
 249 621 l 1,23,-1
 181 621 l 1,24,-1
 318 725 l 1,25,-1
 366 725 l 1,26,-1
 470 621 l 1,27,-1
 398 621 l 1,28,-1
 335 684 l 1,22,-1
EndSplineSet
EndChar

StartChar: otilde
Encoding: 245 245 182
Width: 566
GlyphClass: 2
Flags: W
AnchorPoint: "Anchor-5" -46 0 basechar 0
AnchorPoint: "Anchor-4" 236 0 basechar 0
AnchorPoint: "Anchor-3" 239 517 basechar 0
AnchorPoint: "Anchor-2" 302 10 basechar 0
LayerCount: 2
Fore
SplineSet
77.5 62.5 m 128,-1,1
 27 135 27 135 44 255 c 0,2,3
 55 335 55 335 91 396.5 c 128,-1,4
 127 458 127 458 184 492.5 c 128,-1,5
 241 527 241 527 312 527 c 128,-1,6
 383 527 383 527 430 493 c 128,-1,7
 477 459 477 459 495 397.5 c 128,-1,8
 513 336 513 336 502 257 c 128,-1,9
 491 178 491 178 455.5 117.5 c 128,-1,10
 420 57 420 57 363.5 23.5 c 128,-1,11
 307 -10 307 -10 236 -10 c 0,12,0
 128 -10 128 -10 77.5 62.5 c 128,-1,1
374.5 101.5 m 128,-1,14
 424 160 424 160 438 258 c 128,-1,15
 452 356 452 356 418.5 414.5 c 128,-1,16
 385 473 385 473 304 473 c 128,-1,17
 223 473 223 473 173 414 c 128,-1,18
 123 355 123 355 109 258 c 128,-1,19
 95 161 95 161 129.5 102 c 128,-1,20
 164 43 164 43 245 43 c 0,21,13
 325 43 325 43 374.5 101.5 c 128,-1,14
390 646 m 0,22,23
 372 646 372 646 358.5 649.5 c 128,-1,24
 345 653 345 653 327 659 c 0,25,26
 315 664 315 664 301.5 667.5 c 128,-1,27
 288 671 288 671 275 671 c 0,28,29
 259 671 259 671 248.5 667 c 128,-1,30
 238 663 238 663 229 658 c 128,-1,31
 220 653 220 653 215 651 c 0,32,33
 211 648 211 648 208 648 c 0,34,35
 204 648 204 648 204 655 c 2,36,-1
 198 677 l 2,37,38
 197 683 197 683 203 687 c 0,39,40
 223 701 223 701 239.5 708.5 c 128,-1,41
 256 716 256 716 278 716 c 0,42,43
 302 716 302 716 340 702 c 0,44,45
 343 701 343 701 360.5 695 c 128,-1,46
 378 689 378 689 397 689 c 0,47,48
 412 689 412 689 423.5 693 c 128,-1,49
 435 697 435 697 452 707 c 0,50,51
 457 710 457 710 461 710 c 0,52,53
 464 710 464 710 466 703 c 2,54,-1
 471 678 l 2,55,56
 472 677 472 677 472 675 c 0,57,58
 471 671 471 671 464 667 c 0,59,60
 428 646 428 646 390 646 c 0,22,23
EndSplineSet
EndChar

StartChar: odieresis
Encoding: 246 246 183
Width: 566
GlyphClass: 2
Flags: W
AnchorPoint: "Anchor-5" -46 0 basechar 0
AnchorPoint: "Anchor-4" 236 0 basechar 0
AnchorPoint: "Anchor-3" 239 517 basechar 0
AnchorPoint: "Anchor-2" 302 10 basechar 0
LayerCount: 2
Fore
SplineSet
77.5 62.5 m 128,-1,1
 27 135 27 135 44 255 c 0,2,3
 55 335 55 335 91 396.5 c 128,-1,4
 127 458 127 458 184 492.5 c 128,-1,5
 241 527 241 527 312 527 c 128,-1,6
 383 527 383 527 430 493 c 128,-1,7
 477 459 477 459 495 397.5 c 128,-1,8
 513 336 513 336 502 257 c 128,-1,9
 491 178 491 178 455.5 117.5 c 128,-1,10
 420 57 420 57 363.5 23.5 c 128,-1,11
 307 -10 307 -10 236 -10 c 0,12,0
 128 -10 128 -10 77.5 62.5 c 128,-1,1
374.5 101.5 m 128,-1,14
 424 160 424 160 438 258 c 128,-1,15
 452 356 452 356 418.5 414.5 c 128,-1,16
 385 473 385 473 304 473 c 128,-1,17
 223 473 223 473 173 414 c 128,-1,18
 123 355 123 355 109 258 c 128,-1,19
 95 161 95 161 129.5 102 c 128,-1,20
 164 43 164 43 245 43 c 0,21,13
 325 43 325 43 374.5 101.5 c 128,-1,14
295 621 m 1,22,-1
 228 621 l 1,23,-1
 243 723 l 1,24,-1
 310 723 l 1,25,-1
 295 621 l 1,22,-1
423 621 m 1,26,-1
 356 621 l 1,27,-1
 371 723 l 1,28,-1
 438 723 l 1,29,-1
 423 621 l 1,26,-1
EndSplineSet
EndChar

StartChar: divide
Encoding: 247 247 184
Width: 541
GlyphClass: 2
Flags: W
LayerCount: 2
Fore
SplineSet
340 482 m 1,0,-1
 244 482 l 1,1,-1
 257 575 l 1,2,-1
 353 575 l 1,3,-1
 340 482 l 1,0,-1
475 337 m 1,4,-1
 66 336 l 1,5,-1
 74 389 l 1,6,-1
 483 390 l 1,7,-1
 475 337 l 1,4,-1
294 153 m 1,8,-1
 198 153 l 1,9,-1
 210 245 l 1,10,-1
 306 245 l 1,11,-1
 294 153 l 1,8,-1
EndSplineSet
EndChar

StartChar: oslash
Encoding: 248 248 185
Width: 569
GlyphClass: 2
Flags: W
AnchorPoint: "Anchor-5" -46 0 basechar 0
AnchorPoint: "Anchor-4" 235 0 basechar 0
AnchorPoint: "Anchor-3" 238 517 basechar 0
AnchorPoint: "Anchor-2" 301 10 basechar 0
LayerCount: 2
Fore
SplineSet
488 414 m 1,0,1
 514 349 514 349 501 257 c 0,2,3
 490 178 490 178 454.5 117.5 c 128,-1,4
 419 57 419 57 362.5 23.5 c 128,-1,5
 306 -10 306 -10 235 -10 c 0,6,7
 130 -10 130 -10 78 61 c 1,8,-1
 0 -5 l 1,9,-1
 -27 29 l 1,10,-1
 56 100 l 1,11,12
 30 164 30 164 43 255 c 0,13,14
 54 335 54 335 90 396.5 c 128,-1,15
 126 458 126 458 183 492.5 c 128,-1,16
 240 527 240 527 311 527 c 0,17,18
 417 527 417 527 468 453 c 1,19,-1
 546 520 l 1,20,-1
 573 487 l 1,21,-1
 488 414 l 1,0,1
111 147 m 1,22,-1
 420 411 l 1,23,24
 384 473 384 473 303 473 c 128,-1,25
 222 473 222 473 172 414 c 128,-1,26
 122 355 122 355 108 258 c 0,27,28
 100 195 100 195 111 147 c 1,22,-1
436 369 m 1,29,-1
 128 104 l 1,30,31
 162 43 162 43 244 43 c 0,32,33
 324 43 324 43 373.5 101.5 c 128,-1,34
 423 160 423 160 437 258 c 0,35,36
 446 320 446 320 436 369 c 1,29,-1
EndSplineSet
EndChar

StartChar: ugrave
Encoding: 249 249 186
Width: 579
GlyphClass: 2
Flags: W
AnchorPoint: "Anchor-5" -46 0 basechar 0
AnchorPoint: "Anchor-4" 243 0 basechar 0
AnchorPoint: "Anchor-3" 233 517 basechar 0
AnchorPoint: "Anchor-2" 436 11 basechar 0
LayerCount: 2
Fore
SplineSet
144 9 m 128,-1,1
 102 27 102 27 78 67.5 c 128,-1,2
 54 108 54 108 63 171 c 2,3,-1
 112 519 l 1,4,-1
 175 519 l 1,5,-1
 127 175 l 2,6,7
 117 106 117 106 154.5 75 c 128,-1,8
 192 44 192 44 247 44 c 0,9,10
 306 44 306 44 353 80 c 128,-1,11
 400 116 400 116 411 182 c 2,12,-1
 458 519 l 1,13,-1
 522 519 l 1,14,-1
 448 1 l 1,15,-1
 395 1 l 1,16,-1
 405 83 l 1,17,18
 385 48 385 48 335 19.5 c 128,-1,19
 285 -9 285 -9 234 -9 c 0,20,0
 186 -9 186 -9 144 9 c 128,-1,1
437 637 m 1,21,-1
 418 599 l 1,22,-1
 184 675 l 1,23,-1
 211 732 l 1,24,-1
 437 637 l 1,21,-1
EndSplineSet
EndChar

StartChar: uacute
Encoding: 250 250 187
Width: 579
GlyphClass: 2
Flags: W
AnchorPoint: "Anchor-5" -46 0 basechar 0
AnchorPoint: "Anchor-4" 243 0 basechar 0
AnchorPoint: "Anchor-3" 233 517 basechar 0
AnchorPoint: "Anchor-2" 436 11 basechar 0
LayerCount: 2
Fore
SplineSet
144 9 m 128,-1,1
 102 27 102 27 78 67.5 c 128,-1,2
 54 108 54 108 63 171 c 2,3,-1
 112 519 l 1,4,-1
 175 519 l 1,5,-1
 127 175 l 2,6,7
 117 106 117 106 154.5 75 c 128,-1,8
 192 44 192 44 247 44 c 0,9,10
 306 44 306 44 353 80 c 128,-1,11
 400 116 400 116 411 182 c 2,12,-1
 458 519 l 1,13,-1
 522 519 l 1,14,-1
 448 1 l 1,15,-1
 395 1 l 1,16,-1
 405 83 l 1,17,18
 385 48 385 48 335 19.5 c 128,-1,19
 285 -9 285 -9 234 -9 c 0,20,0
 186 -9 186 -9 144 9 c 128,-1,1
456 675 m 1,21,-1
 200 599 l 1,22,-1
 194 637 l 1,23,-1
 446 732 l 1,24,-1
 456 675 l 1,21,-1
EndSplineSet
EndChar

StartChar: ucircumflex
Encoding: 251 251 188
Width: 579
GlyphClass: 2
Flags: W
AnchorPoint: "Anchor-5" -46 0 basechar 0
AnchorPoint: "Anchor-4" 243 0 basechar 0
AnchorPoint: "Anchor-3" 233 517 basechar 0
AnchorPoint: "Anchor-2" 436 11 basechar 0
LayerCount: 2
Fore
SplineSet
144 9 m 128,-1,1
 102 27 102 27 78 67.5 c 128,-1,2
 54 108 54 108 63 171 c 2,3,-1
 112 519 l 1,4,-1
 175 519 l 1,5,-1
 127 175 l 2,6,7
 117 106 117 106 154.5 75 c 128,-1,8
 192 44 192 44 247 44 c 0,9,10
 306 44 306 44 353 80 c 128,-1,11
 400 116 400 116 411 182 c 2,12,-1
 458 519 l 1,13,-1
 522 519 l 1,14,-1
 448 1 l 1,15,-1
 395 1 l 1,16,-1
 405 83 l 1,17,18
 385 48 385 48 335 19.5 c 128,-1,19
 285 -9 285 -9 234 -9 c 0,20,0
 186 -9 186 -9 144 9 c 128,-1,1
329 684 m 1,21,-1
 243 621 l 1,22,-1
 175 621 l 1,23,-1
 312 725 l 1,24,-1
 360 725 l 1,25,-1
 464 621 l 1,26,-1
 392 621 l 1,27,-1
 329 684 l 1,21,-1
EndSplineSet
EndChar

StartChar: udieresis
Encoding: 252 252 189
Width: 579
GlyphClass: 2
Flags: W
AnchorPoint: "Anchor-5" -46 0 basechar 0
AnchorPoint: "Anchor-4" 243 0 basechar 0
AnchorPoint: "Anchor-3" 233 517 basechar 0
AnchorPoint: "Anchor-2" 436 11 basechar 0
LayerCount: 2
Fore
SplineSet
144 9 m 128,-1,1
 102 27 102 27 78 67.5 c 128,-1,2
 54 108 54 108 63 171 c 2,3,-1
 112 519 l 1,4,-1
 175 519 l 1,5,-1
 127 175 l 2,6,7
 117 106 117 106 154.5 75 c 128,-1,8
 192 44 192 44 247 44 c 0,9,10
 306 44 306 44 353 80 c 128,-1,11
 400 116 400 116 411 182 c 2,12,-1
 458 519 l 1,13,-1
 522 519 l 1,14,-1
 448 1 l 1,15,-1
 395 1 l 1,16,-1
 405 83 l 1,17,18
 385 48 385 48 335 19.5 c 128,-1,19
 285 -9 285 -9 234 -9 c 0,20,0
 186 -9 186 -9 144 9 c 128,-1,1
289 621 m 1,21,-1
 222 621 l 1,22,-1
 237 723 l 1,23,-1
 304 723 l 1,24,-1
 289 621 l 1,21,-1
417 621 m 1,25,-1
 350 621 l 1,26,-1
 365 723 l 1,27,-1
 432 723 l 1,28,-1
 417 621 l 1,25,-1
EndSplineSet
EndChar

StartChar: yacute
Encoding: 253 253 190
Width: 509
GlyphClass: 2
Flags: W
AnchorPoint: "Anchor-5" -46 0 basechar 0
AnchorPoint: "Anchor-4" -46 0 basechar 0
AnchorPoint: "Anchor-3" 214 517 basechar 0
AnchorPoint: "Anchor-2" -46 0 basechar 0
LayerCount: 2
Fore
SplineSet
-6.5 -161 m 128,-1,1
 -24 -157 -24 -157 -24 -155 c 2,2,-1
 -18 -113 l 1,3,-1
 36 -113 l 2,4,5
 83 -114 83 -114 108 -98 c 128,-1,6
 133 -82 133 -82 150 -53 c 2,7,-1
 181 7 l 1,8,-1
 51 517 l 1,9,-1
 116 517 l 1,10,-1
 223 84 l 1,11,-1
 450 517 l 1,12,-1
 512 517 l 1,13,-1
 209 -59 l 2,14,15
 177 -117 177 -117 137 -141 c 128,-1,16
 97 -165 97 -165 45 -165 c 0,17,0
 11 -165 11 -165 -6.5 -161 c 128,-1,1
437 675 m 1,18,-1
 181 599 l 1,19,-1
 175 637 l 1,20,-1
 427 732 l 1,21,-1
 437 675 l 1,18,-1
EndSplineSet
EndChar

StartChar: thorn
Encoding: 254 254 191
Width: 587
GlyphClass: 2
Flags: W
LayerCount: 2
Fore
SplineSet
163 443 m 1,0,1
 184 465 184 465 204 481.5 c 128,-1,2
 224 498 224 498 259.5 512.5 c 128,-1,3
 295 527 295 527 342 527 c 0,4,5
 404 527 404 527 449.5 497.5 c 128,-1,6
 495 468 495 468 515 409.5 c 128,-1,7
 535 351 535 351 524 267 c 0,8,9
 512 183 512 183 474.5 120 c 128,-1,10
 437 57 437 57 381 23.5 c 128,-1,11
 325 -10 325 -10 256 -10 c 0,12,13
 176 -10 176 -10 121 39 c 0,14,15
 115 45 115 45 112 45 c 0,16,17
 108 45 108 45 106 32 c 2,18,-1
 79 -161 l 1,19,-1
 16 -161 l 1,20,-1
 141 723 l 1,21,-1
 203 723 l 1,22,-1
 163 443 l 1,0,1
179 57.5 m 128,-1,24
 211 40 211 40 250 40 c 0,25,26
 329 40 329 40 385.5 99 c 128,-1,27
 442 158 442 158 457 264 c 128,-1,28
 472 370 472 370 431.5 423.5 c 128,-1,29
 391 477 391 477 317 477 c 0,30,31
 275 477 275 477 238.5 458.5 c 128,-1,32
 202 440 202 440 179 411.5 c 128,-1,33
 156 383 156 383 152 355 c 2,34,-1
 117 108 l 1,35,23
 147 75 147 75 179 57.5 c 128,-1,24
EndSplineSet
EndChar

StartChar: ydieresis
Encoding: 255 255 192
Width: 509
GlyphClass: 2
Flags: W
AnchorPoint: "Anchor-5" -46 0 basechar 0
AnchorPoint: "Anchor-4" -46 0 basechar 0
AnchorPoint: "Anchor-3" 214 517 basechar 0
AnchorPoint: "Anchor-2" -46 0 basechar 0
LayerCount: 2
Fore
SplineSet
-6.5 -161 m 128,-1,1
 -24 -157 -24 -157 -24 -155 c 2,2,-1
 -18 -113 l 1,3,-1
 36 -113 l 2,4,5
 83 -114 83 -114 108 -98 c 128,-1,6
 133 -82 133 -82 150 -53 c 2,7,-1
 181 7 l 1,8,-1
 51 517 l 1,9,-1
 116 517 l 1,10,-1
 223 84 l 1,11,-1
 450 517 l 1,12,-1
 512 517 l 1,13,-1
 209 -59 l 2,14,15
 177 -117 177 -117 137 -141 c 128,-1,16
 97 -165 97 -165 45 -165 c 0,17,0
 11 -165 11 -165 -6.5 -161 c 128,-1,1
270 621 m 1,18,-1
 203 621 l 1,19,-1
 218 723 l 1,20,-1
 285 723 l 1,21,-1
 270 621 l 1,18,-1
398 621 m 1,22,-1
 331 621 l 1,23,-1
 346 723 l 1,24,-1
 413 723 l 1,25,-1
 398 621 l 1,22,-1
EndSplineSet
EndChar

StartChar: Amacron
Encoding: 256 256 193
Width: 690
GlyphClass: 2
Flags: W
AnchorPoint: "Anchor-5" -46 0 basechar 0
AnchorPoint: "Anchor-4" -46 0 basechar 0
AnchorPoint: "Anchor-3" 301 723 basechar 0
AnchorPoint: "Anchor-2" 593 11 basechar 0
LayerCount: 2
Fore
SplineSet
363 723 m 1,0,-1
 440 723 l 1,1,-1
 601 0 l 1,2,-1
 535 0 l 1,3,-1
 487 214 l 1,4,-1
 172 214 l 1,5,-1
 63 0 l 1,6,-1
 -3 0 l 1,7,-1
 363 723 l 1,0,-1
477 276 m 1,8,-1
 393 659 l 1,9,-1
 200 276 l 1,10,-1
 477 276 l 1,8,-1
556 863 m 1,11,-1
 287 863 l 1,12,-1
 294 913 l 1,13,-1
 563 913 l 1,14,-1
 556 863 l 1,11,-1
EndSplineSet
EndChar

StartChar: amacron
Encoding: 257 257 194
Width: 554
GlyphClass: 2
Flags: W
AnchorPoint: "Anchor-5" -46 0 basechar 0
AnchorPoint: "Anchor-4" -46 0 basechar 0
AnchorPoint: "Anchor-3" 230 517 basechar 0
AnchorPoint: "Anchor-2" 414 13 basechar 0
LayerCount: 2
Fore
SplineSet
455 0 m 1,0,-1
 392 0 l 1,1,-1
 455 0 l 1,0,-1
392 0 m 1,2,-1
 399 50 l 1,3,4
 357 18 357 18 318.5 4 c 128,-1,5
 280 -10 280 -10 237 -10 c 0,6,7
 168 -10 168 -10 120.5 23.5 c 128,-1,8
 73 57 73 57 53.5 119.5 c 128,-1,9
 34 182 34 182 46 267 c 0,10,11
 58 351 58 351 94.5 409.5 c 128,-1,12
 131 468 131 468 185 497.5 c 128,-1,13
 239 527 239 527 301 527 c 0,14,15
 346 527 346 527 377.5 512.5 c 128,-1,16
 409 498 409 498 420 487 c 128,-1,17
 431 476 431 476 457 446 c 1,18,-1
 467 517 l 1,19,-1
 528 517 l 1,20,-1
 455 0 l 1,21,-1
 392 0 l 1,2,-1
410 126 m 1,22,-1
 440 341 l 2,23,24
 444 373 444 373 429 404 c 128,-1,25
 414 435 414 435 383 455 c 128,-1,26
 352 475 352 475 310 475 c 0,27,28
 263 475 263 475 221.5 452 c 128,-1,29
 180 429 180 429 150.5 381.5 c 128,-1,30
 121 334 121 334 111 264 c 0,31,32
 101 196 101 196 116.5 145.5 c 128,-1,33
 132 95 132 95 168 68 c 128,-1,34
 204 41 204 41 255 41 c 0,35,36
 333 41 333 41 410 126 c 1,22,-1
456 657 m 1,37,-1
 187 657 l 1,38,-1
 194 707 l 1,39,-1
 463 707 l 1,40,-1
 456 657 l 1,37,-1
EndSplineSet
EndChar

StartChar: Abreve
Encoding: 258 258 195
Width: 690
GlyphClass: 2
Flags: W
AnchorPoint: "Anchor-5" -46 0 basechar 0
AnchorPoint: "Anchor-4" -46 0 basechar 0
AnchorPoint: "Anchor-3" 301 723 basechar 0
AnchorPoint: "Anchor-2" 593 11 basechar 0
LayerCount: 2
Fore
SplineSet
363 723 m 1,0,-1
 440 723 l 1,1,-1
 601 0 l 1,2,-1
 535 0 l 1,3,-1
 487 214 l 1,4,-1
 172 214 l 1,5,-1
 63 0 l 1,6,-1
 -3 0 l 1,7,-1
 363 723 l 1,0,-1
477 276 m 1,8,-1
 393 659 l 1,9,-1
 200 276 l 1,10,-1
 477 276 l 1,8,-1
514 861 m 128,-1,12
 473 831 473 831 418 831 c 0,13,14
 362 831 362 831 330.5 859.5 c 128,-1,15
 299 888 299 888 295 929 c 1,16,-1
 351 929 l 1,17,18
 362 907 362 907 377.5 893 c 128,-1,19
 393 879 393 879 425 879 c 0,20,21
 454 879 454 879 476 894 c 128,-1,22
 498 909 498 909 514 929 c 1,23,-1
 572 929 l 1,24,11
 555 891 555 891 514 861 c 128,-1,12
EndSplineSet
EndChar

StartChar: abreve
Encoding: 259 259 196
Width: 554
GlyphClass: 2
Flags: W
AnchorPoint: "Anchor-5" -46 0 basechar 0
AnchorPoint: "Anchor-4" -46 0 basechar 0
AnchorPoint: "Anchor-3" 230 517 basechar 0
AnchorPoint: "Anchor-2" 414 13 basechar 0
LayerCount: 2
Fore
SplineSet
455 0 m 1,0,-1
 392 0 l 1,1,-1
 455 0 l 1,0,-1
392 0 m 1,2,-1
 399 50 l 1,3,4
 357 18 357 18 318.5 4 c 128,-1,5
 280 -10 280 -10 237 -10 c 0,6,7
 168 -10 168 -10 120.5 23.5 c 128,-1,8
 73 57 73 57 53.5 119.5 c 128,-1,9
 34 182 34 182 46 267 c 0,10,11
 58 351 58 351 94.5 409.5 c 128,-1,12
 131 468 131 468 185 497.5 c 128,-1,13
 239 527 239 527 301 527 c 0,14,15
 346 527 346 527 377.5 512.5 c 128,-1,16
 409 498 409 498 420 487 c 128,-1,17
 431 476 431 476 457 446 c 1,18,-1
 467 517 l 1,19,-1
 528 517 l 1,20,-1
 455 0 l 1,21,-1
 392 0 l 1,2,-1
410 126 m 1,22,-1
 440 341 l 2,23,24
 444 373 444 373 429 404 c 128,-1,25
 414 435 414 435 383 455 c 128,-1,26
 352 475 352 475 310 475 c 0,27,28
 263 475 263 475 221.5 452 c 128,-1,29
 180 429 180 429 150.5 381.5 c 128,-1,30
 121 334 121 334 111 264 c 0,31,32
 101 196 101 196 116.5 145.5 c 128,-1,33
 132 95 132 95 168 68 c 128,-1,34
 204 41 204 41 255 41 c 0,35,36
 333 41 333 41 410 126 c 1,22,-1
414 655 m 128,-1,38
 373 625 373 625 318 625 c 0,39,40
 262 625 262 625 230.5 653.5 c 128,-1,41
 199 682 199 682 195 723 c 1,42,-1
 251 723 l 1,43,44
 262 701 262 701 277.5 687 c 128,-1,45
 293 673 293 673 325 673 c 0,46,47
 354 673 354 673 376 688 c 128,-1,48
 398 703 398 703 414 723 c 1,49,-1
 472 723 l 1,50,37
 455 685 455 685 414 655 c 128,-1,38
EndSplineSet
EndChar

StartChar: Aogonek
Encoding: 260 260 197
Width: 690
GlyphClass: 2
Flags: W
AnchorPoint: "Anchor-5" -46 0 basechar 0
AnchorPoint: "Anchor-4" -46 0 basechar 0
AnchorPoint: "Anchor-3" 301 723 basechar 0
AnchorPoint: "Anchor-2" 593 11 basechar 0
LayerCount: 2
Fore
SplineSet
363 723 m 1,0,-1
 440 723 l 1,1,-1
 601 0 l 1,2,-1
 535 0 l 1,3,-1
 487 214 l 1,4,-1
 172 214 l 1,5,-1
 63 0 l 1,6,-1
 -3 0 l 1,7,-1
 363 723 l 1,0,-1
477 276 m 1,8,-1
 393 659 l 1,9,-1
 200 276 l 1,10,-1
 477 276 l 1,8,-1
466 -32 m 128,-1,12
 493 -8 493 -8 553 9 c 1,13,-1
 601 2 l 1,14,15
 547 -21 547 -21 521.5 -41 c 128,-1,16
 496 -61 496 -61 492 -86 c 0,17,18
 489 -106 489 -106 500.5 -115.5 c 128,-1,19
 512 -125 512 -125 539 -125 c 0,20,21
 559 -125 559 -125 576.5 -121 c 128,-1,22
 594 -117 594 -117 602 -112 c 0,23,24
 607 -110 607 -110 609 -111 c 128,-1,25
 611 -112 611 -112 611 -117 c 2,26,-1
 607 -141 l 2,27,28
 606 -148 606 -148 600 -150 c 0,29,30
 587 -156 587 -156 564 -161 c 128,-1,31
 541 -166 541 -166 518 -166 c 0,32,33
 471 -166 471 -166 450.5 -145.5 c 128,-1,34
 430 -125 430 -125 435 -89 c 0,35,11
 439 -56 439 -56 466 -32 c 128,-1,12
EndSplineSet
EndChar

StartChar: aogonek
Encoding: 261 261 198
Width: 554
GlyphClass: 2
Flags: W
AnchorPoint: "Anchor-5" -46 0 basechar 0
AnchorPoint: "Anchor-4" -46 0 basechar 0
AnchorPoint: "Anchor-3" 230 517 basechar 0
AnchorPoint: "Anchor-2" 414 13 basechar 0
LayerCount: 2
Fore
SplineSet
455 0 m 1,0,-1
 392 0 l 1,1,-1
 455 0 l 1,0,-1
392 0 m 1,2,-1
 399 50 l 1,3,4
 357 18 357 18 318.5 4 c 128,-1,5
 280 -10 280 -10 237 -10 c 0,6,7
 168 -10 168 -10 120.5 23.5 c 128,-1,8
 73 57 73 57 53.5 119.5 c 128,-1,9
 34 182 34 182 46 267 c 0,10,11
 58 351 58 351 94.5 409.5 c 128,-1,12
 131 468 131 468 185 497.5 c 128,-1,13
 239 527 239 527 301 527 c 0,14,15
 346 527 346 527 377.5 512.5 c 128,-1,16
 409 498 409 498 420 487 c 128,-1,17
 431 476 431 476 457 446 c 1,18,-1
 467 517 l 1,19,-1
 528 517 l 1,20,-1
 455 0 l 1,21,-1
 392 0 l 1,2,-1
410 126 m 1,22,-1
 440 341 l 2,23,24
 444 373 444 373 429 404 c 128,-1,25
 414 435 414 435 383 455 c 128,-1,26
 352 475 352 475 310 475 c 0,27,28
 263 475 263 475 221.5 452 c 128,-1,29
 180 429 180 429 150.5 381.5 c 128,-1,30
 121 334 121 334 111 264 c 0,31,32
 101 196 101 196 116.5 145.5 c 128,-1,33
 132 95 132 95 168 68 c 128,-1,34
 204 41 204 41 255 41 c 0,35,36
 333 41 333 41 410 126 c 1,22,-1
287 -30 m 128,-1,38
 314 -6 314 -6 374 11 c 1,39,-1
 422 4 l 1,40,41
 368 -19 368 -19 342.5 -39 c 128,-1,42
 317 -59 317 -59 313 -84 c 0,43,44
 310 -104 310 -104 321.5 -113.5 c 128,-1,45
 333 -123 333 -123 360 -123 c 0,46,47
 380 -123 380 -123 397.5 -119 c 128,-1,48
 415 -115 415 -115 423 -110 c 0,49,50
 428 -108 428 -108 430 -109 c 128,-1,51
 432 -110 432 -110 432 -115 c 2,52,-1
 428 -139 l 2,53,54
 427 -146 427 -146 421 -148 c 0,55,56
 408 -154 408 -154 385 -159 c 128,-1,57
 362 -164 362 -164 339 -164 c 0,58,59
 292 -164 292 -164 271.5 -143.5 c 128,-1,60
 251 -123 251 -123 256 -87 c 0,61,37
 260 -54 260 -54 287 -30 c 128,-1,38
EndSplineSet
EndChar

StartChar: Cacute
Encoding: 262 262 199
Width: 670
GlyphClass: 2
Flags: W
AnchorPoint: "Anchor-5" -46 0 basechar 0
AnchorPoint: "Anchor-4" 309 0 basechar 0
AnchorPoint: "Anchor-3" 309 723 basechar 0
AnchorPoint: "Anchor-2" -46 0 basechar 0
LayerCount: 2
Fore
SplineSet
533 705 m 128,-1,1
 587 677 587 677 615.5 629.5 c 128,-1,2
 644 582 644 582 642 525 c 1,3,-1
 573 519 l 1,4,5
 569 590 569 590 525 632 c 128,-1,6
 481 674 481 674 398 674 c 0,7,8
 288 674 288 674 221 595 c 128,-1,9
 154 516 154 516 132 360 c 0,10,11
 110 207 110 207 156 128 c 128,-1,12
 202 49 202 49 317 49 c 0,13,14
 388 49 388 49 444 88.5 c 128,-1,15
 500 128 500 128 526 197 c 1,16,-1
 591 188 l 1,17,18
 577 133 577 133 535.5 87.5 c 128,-1,19
 494 42 494 42 434.5 16 c 128,-1,20
 375 -10 375 -10 308 -10 c 0,21,22
 165 -10 165 -10 100.5 88 c 128,-1,23
 36 186 36 186 61 361 c 128,-1,24
 86 536 86 536 176 634.5 c 128,-1,25
 266 733 266 733 405 733 c 0,26,0
 479 733 479 733 533 705 c 128,-1,1
561 881 m 1,27,-1
 305 805 l 1,28,-1
 299 843 l 1,29,-1
 551 938 l 1,30,-1
 561 881 l 1,27,-1
EndSplineSet
EndChar

StartChar: cacute
Encoding: 263 263 200
Width: 538
GlyphClass: 2
Flags: W
AnchorPoint: "Anchor-5" -46 0 basechar 0
AnchorPoint: "Anchor-4" 239 0 basechar 0
AnchorPoint: "Anchor-3" 237 517 basechar 0
AnchorPoint: "Anchor-2" -46 0 basechar 0
LayerCount: 2
Fore
SplineSet
422 493.5 m 128,-1,1
 464 460 464 460 487 398 c 1,2,-1
 431 380 l 1,3,4
 399 432 399 432 374.5 452 c 128,-1,5
 350 472 350 472 309 472 c 0,6,7
 230 472 230 472 175.5 413.5 c 128,-1,8
 121 355 121 355 107 258 c 0,9,10
 93 159 93 159 131 100.5 c 128,-1,11
 169 42 169 42 248 42 c 0,12,13
 296 42 296 42 332 67 c 128,-1,14
 368 92 368 92 405 143 c 1,15,-1
 454 124 l 1,16,17
 370 -10 370 -10 237 -10 c 0,18,19
 167 -10 167 -10 119.5 23.5 c 128,-1,20
 72 57 72 57 52.5 117 c 128,-1,21
 33 177 33 177 44 256 c 128,-1,22
 55 335 55 335 91.5 396.5 c 128,-1,23
 128 458 128 458 185.5 492.5 c 128,-1,24
 243 527 243 527 312 527 c 0,25,0
 380 527 380 527 422 493.5 c 128,-1,1
460 675 m 1,26,-1
 204 599 l 1,27,-1
 198 637 l 1,28,-1
 450 732 l 1,29,-1
 460 675 l 1,26,-1
EndSplineSet
EndChar

StartChar: Ccircumflex
Encoding: 264 264 201
Width: 670
GlyphClass: 2
Flags: W
AnchorPoint: "Anchor-5" -46 0 basechar 0
AnchorPoint: "Anchor-4" 309 0 basechar 0
AnchorPoint: "Anchor-3" 309 723 basechar 0
AnchorPoint: "Anchor-2" -46 0 basechar 0
LayerCount: 2
Fore
SplineSet
533 705 m 128,-1,1
 587 677 587 677 615.5 629.5 c 128,-1,2
 644 582 644 582 642 525 c 1,3,-1
 573 519 l 1,4,5
 569 590 569 590 525 632 c 128,-1,6
 481 674 481 674 398 674 c 0,7,8
 288 674 288 674 221 595 c 128,-1,9
 154 516 154 516 132 360 c 0,10,11
 110 207 110 207 156 128 c 128,-1,12
 202 49 202 49 317 49 c 0,13,14
 388 49 388 49 444 88.5 c 128,-1,15
 500 128 500 128 526 197 c 1,16,-1
 591 188 l 1,17,18
 577 133 577 133 535.5 87.5 c 128,-1,19
 494 42 494 42 434.5 16 c 128,-1,20
 375 -10 375 -10 308 -10 c 0,21,22
 165 -10 165 -10 100.5 88 c 128,-1,23
 36 186 36 186 61 361 c 128,-1,24
 86 536 86 536 176 634.5 c 128,-1,25
 266 733 266 733 405 733 c 0,26,0
 479 733 479 733 533 705 c 128,-1,1
434 890 m 1,27,-1
 348 827 l 1,28,-1
 280 827 l 1,29,-1
 417 931 l 1,30,-1
 465 931 l 1,31,-1
 569 827 l 1,32,-1
 497 827 l 1,33,-1
 434 890 l 1,27,-1
EndSplineSet
EndChar

StartChar: ccircumflex
Encoding: 265 265 202
Width: 538
GlyphClass: 2
Flags: W
AnchorPoint: "Anchor-5" -46 0 basechar 0
AnchorPoint: "Anchor-4" 239 0 basechar 0
AnchorPoint: "Anchor-3" 237 517 basechar 0
AnchorPoint: "Anchor-2" -46 0 basechar 0
LayerCount: 2
Fore
SplineSet
422 493.5 m 128,-1,1
 464 460 464 460 487 398 c 1,2,-1
 431 380 l 1,3,4
 399 432 399 432 374.5 452 c 128,-1,5
 350 472 350 472 309 472 c 0,6,7
 230 472 230 472 175.5 413.5 c 128,-1,8
 121 355 121 355 107 258 c 0,9,10
 93 159 93 159 131 100.5 c 128,-1,11
 169 42 169 42 248 42 c 0,12,13
 296 42 296 42 332 67 c 128,-1,14
 368 92 368 92 405 143 c 1,15,-1
 454 124 l 1,16,17
 370 -10 370 -10 237 -10 c 0,18,19
 167 -10 167 -10 119.5 23.5 c 128,-1,20
 72 57 72 57 52.5 117 c 128,-1,21
 33 177 33 177 44 256 c 128,-1,22
 55 335 55 335 91.5 396.5 c 128,-1,23
 128 458 128 458 185.5 492.5 c 128,-1,24
 243 527 243 527 312 527 c 0,25,0
 380 527 380 527 422 493.5 c 128,-1,1
333 684 m 1,26,-1
 247 621 l 1,27,-1
 179 621 l 1,28,-1
 316 725 l 1,29,-1
 364 725 l 1,30,-1
 468 621 l 1,31,-1
 396 621 l 1,32,-1
 333 684 l 1,26,-1
EndSplineSet
EndChar

StartChar: Cdotaccent
Encoding: 266 266 203
Width: 670
GlyphClass: 2
Flags: W
AnchorPoint: "Anchor-5" -46 0 basechar 0
AnchorPoint: "Anchor-4" 309 0 basechar 0
AnchorPoint: "Anchor-3" 309 723 basechar 0
AnchorPoint: "Anchor-2" -46 0 basechar 0
LayerCount: 2
Fore
SplineSet
533 705 m 128,-1,1
 587 677 587 677 615.5 629.5 c 128,-1,2
 644 582 644 582 642 525 c 1,3,-1
 573 519 l 1,4,5
 569 590 569 590 525 632 c 128,-1,6
 481 674 481 674 398 674 c 0,7,8
 288 674 288 674 221 595 c 128,-1,9
 154 516 154 516 132 360 c 0,10,11
 110 207 110 207 156 128 c 128,-1,12
 202 49 202 49 317 49 c 0,13,14
 388 49 388 49 444 88.5 c 128,-1,15
 500 128 500 128 526 197 c 1,16,-1
 591 188 l 1,17,18
 577 133 577 133 535.5 87.5 c 128,-1,19
 494 42 494 42 434.5 16 c 128,-1,20
 375 -10 375 -10 308 -10 c 0,21,22
 165 -10 165 -10 100.5 88 c 128,-1,23
 36 186 36 186 61 361 c 128,-1,24
 86 536 86 536 176 634.5 c 128,-1,25
 266 733 266 733 405 733 c 0,26,0
 479 733 479 733 533 705 c 128,-1,1
461 823 m 1,27,-1
 390 823 l 1,28,-1
 405 929 l 1,29,-1
 476 929 l 1,30,-1
 461 823 l 1,27,-1
EndSplineSet
EndChar

StartChar: cdotaccent
Encoding: 267 267 204
Width: 538
GlyphClass: 2
Flags: W
AnchorPoint: "Anchor-5" -46 0 basechar 0
AnchorPoint: "Anchor-4" 239 0 basechar 0
AnchorPoint: "Anchor-3" 237 517 basechar 0
AnchorPoint: "Anchor-2" -46 0 basechar 0
LayerCount: 2
Fore
SplineSet
422 493.5 m 128,-1,1
 464 460 464 460 487 398 c 1,2,-1
 431 380 l 1,3,4
 399 432 399 432 374.5 452 c 128,-1,5
 350 472 350 472 309 472 c 0,6,7
 230 472 230 472 175.5 413.5 c 128,-1,8
 121 355 121 355 107 258 c 0,9,10
 93 159 93 159 131 100.5 c 128,-1,11
 169 42 169 42 248 42 c 0,12,13
 296 42 296 42 332 67 c 128,-1,14
 368 92 368 92 405 143 c 1,15,-1
 454 124 l 1,16,17
 370 -10 370 -10 237 -10 c 0,18,19
 167 -10 167 -10 119.5 23.5 c 128,-1,20
 72 57 72 57 52.5 117 c 128,-1,21
 33 177 33 177 44 256 c 128,-1,22
 55 335 55 335 91.5 396.5 c 128,-1,23
 128 458 128 458 185.5 492.5 c 128,-1,24
 243 527 243 527 312 527 c 0,25,0
 380 527 380 527 422 493.5 c 128,-1,1
360 617 m 1,26,-1
 289 617 l 1,27,-1
 304 723 l 1,28,-1
 375 723 l 1,29,-1
 360 617 l 1,26,-1
EndSplineSet
EndChar

StartChar: Ccaron
Encoding: 268 268 205
Width: 670
GlyphClass: 2
Flags: W
AnchorPoint: "Anchor-5" -46 0 basechar 0
AnchorPoint: "Anchor-4" 309 0 basechar 0
AnchorPoint: "Anchor-3" 309 723 basechar 0
AnchorPoint: "Anchor-2" -46 0 basechar 0
LayerCount: 2
Fore
SplineSet
533 705 m 128,-1,1
 587 677 587 677 615.5 629.5 c 128,-1,2
 644 582 644 582 642 525 c 1,3,-1
 573 519 l 1,4,5
 569 590 569 590 525 632 c 128,-1,6
 481 674 481 674 398 674 c 0,7,8
 288 674 288 674 221 595 c 128,-1,9
 154 516 154 516 132 360 c 0,10,11
 110 207 110 207 156 128 c 128,-1,12
 202 49 202 49 317 49 c 0,13,14
 388 49 388 49 444 88.5 c 128,-1,15
 500 128 500 128 526 197 c 1,16,-1
 591 188 l 1,17,18
 577 133 577 133 535.5 87.5 c 128,-1,19
 494 42 494 42 434.5 16 c 128,-1,20
 375 -10 375 -10 308 -10 c 0,21,22
 165 -10 165 -10 100.5 88 c 128,-1,23
 36 186 36 186 61 361 c 128,-1,24
 86 536 86 536 176 634.5 c 128,-1,25
 266 733 266 733 405 733 c 0,26,0
 479 733 479 733 533 705 c 128,-1,1
584 929 m 1,27,-1
 450 825 l 1,28,-1
 402 825 l 1,29,-1
 294 929 l 1,30,-1
 363 929 l 1,31,-1
 431 866 l 1,32,-1
 512 929 l 1,33,-1
 584 929 l 1,27,-1
EndSplineSet
EndChar

StartChar: ccaron
Encoding: 269 269 206
Width: 538
GlyphClass: 2
Flags: W
AnchorPoint: "Anchor-5" -46 0 basechar 0
AnchorPoint: "Anchor-4" 239 0 basechar 0
AnchorPoint: "Anchor-3" 237 517 basechar 0
AnchorPoint: "Anchor-2" -46 0 basechar 0
LayerCount: 2
Fore
SplineSet
422 493.5 m 128,-1,1
 464 460 464 460 487 398 c 1,2,-1
 431 380 l 1,3,4
 399 432 399 432 374.5 452 c 128,-1,5
 350 472 350 472 309 472 c 0,6,7
 230 472 230 472 175.5 413.5 c 128,-1,8
 121 355 121 355 107 258 c 0,9,10
 93 159 93 159 131 100.5 c 128,-1,11
 169 42 169 42 248 42 c 0,12,13
 296 42 296 42 332 67 c 128,-1,14
 368 92 368 92 405 143 c 1,15,-1
 454 124 l 1,16,17
 370 -10 370 -10 237 -10 c 0,18,19
 167 -10 167 -10 119.5 23.5 c 128,-1,20
 72 57 72 57 52.5 117 c 128,-1,21
 33 177 33 177 44 256 c 128,-1,22
 55 335 55 335 91.5 396.5 c 128,-1,23
 128 458 128 458 185.5 492.5 c 128,-1,24
 243 527 243 527 312 527 c 0,25,0
 380 527 380 527 422 493.5 c 128,-1,1
483 723 m 1,26,-1
 349 619 l 1,27,-1
 301 619 l 1,28,-1
 193 723 l 1,29,-1
 262 723 l 1,30,-1
 330 660 l 1,31,-1
 411 723 l 1,32,-1
 483 723 l 1,26,-1
EndSplineSet
EndChar

StartChar: Dcaron
Encoding: 270 270 207
Width: 675
GlyphClass: 2
Flags: W
AnchorPoint: "Anchor-5" -46 0 basechar 0
AnchorPoint: "Anchor-4" -46 0 basechar 0
AnchorPoint: "Anchor-3" 284 723 basechar 0
AnchorPoint: "Anchor-2" -46 0 basechar 0
LayerCount: 2
Fore
SplineSet
298 722 m 2,0,1
 495 721 495 721 573 633.5 c 128,-1,2
 651 546 651 546 626 367 c 0,3,4
 600 180 600 180 492 90 c 128,-1,5
 384 0 384 0 185 0 c 2,6,-1
 55 0 l 1,7,-1
 157 723 l 1,8,-1
 298 722 l 2,0,1
130 59 m 1,9,-1
 192 59 l 2,10,11
 354 59 354 59 444.5 130 c 128,-1,12
 535 201 535 201 558 364 c 0,13,14
 574 477 574 477 547 543 c 128,-1,15
 520 609 520 609 454 637 c 128,-1,16
 388 665 388 665 282 665 c 2,17,-1
 215 665 l 1,18,-1
 130 59 l 1,9,-1
559 929 m 1,19,-1
 425 825 l 1,20,-1
 377 825 l 1,21,-1
 269 929 l 1,22,-1
 338 929 l 1,23,-1
 406 866 l 1,24,-1
 487 929 l 1,25,-1
 559 929 l 1,19,-1
EndSplineSet
EndChar

StartChar: dcaron
Encoding: 271 271 208
Width: 576
GlyphClass: 2
Flags: W
AnchorPoint: "Anchor-5" 551 691 basechar 0
AnchorPoint: "Anchor-4" 240 0 basechar 0
AnchorPoint: "Anchor-3" -46 0 basechar 0
AnchorPoint: "Anchor-2" -46 0 basechar 0
LayerCount: 2
Fore
SplineSet
73.5 57.5 m 128,-1,1
 26 125 26 125 43 251 c 0,2,3
 61 377 61 377 129.5 452 c 128,-1,4
 198 527 198 527 301 527 c 0,5,6
 345 527 345 527 380 511 c 128,-1,7
 415 495 415 495 447 462 c 1,8,-1
 486 743 l 1,9,-1
 549 743 l 1,10,-1
 445 0 l 1,11,-1
 393 0 l 1,12,-1
 401 76 l 1,13,14
 322 -10 322 -10 219 -10 c 0,15,0
 121 -10 121 -10 73.5 57.5 c 128,-1,1
316.5 62.5 m 128,-1,17
 354 83 354 83 378.5 114.5 c 128,-1,18
 403 146 403 146 407 177 c 2,19,-1
 438 395 l 1,20,21
 387 474 387 474 305 474 c 0,22,23
 228 474 228 474 175.5 417 c 128,-1,24
 123 360 123 360 108 255 c 0,25,26
 93 149 93 149 129.5 95.5 c 128,-1,27
 166 42 166 42 238 42 c 0,28,16
 279 42 279 42 316.5 62.5 c 128,-1,17
556.5 513 m 128,-1,30
 555 516 555 516 557 518 c 2,31,-1
 596 587 l 2,32,33
 599 593 599 593 598 595 c 128,-1,34
 597 597 597 597 594 598 c 2,35,-1
 588 599 l 2,36,37
 583 600 583 600 581 602 c 128,-1,38
 579 604 579 604 580 608 c 2,39,-1
 591 684 l 2,40,41
 592 688 592 688 593.5 689.5 c 128,-1,42
 595 691 595 691 599 691 c 2,43,-1
 649 691 l 2,44,45
 655 691 655 691 654 685 c 2,46,-1
 642 599 l 1,47,-1
 640 595 l 1,48,-1
 596 518 l 2,49,50
 592 510 592 510 580 510 c 2,51,-1
 561 510 l 2,52,29
 558 510 558 510 556.5 513 c 128,-1,30
EndSplineSet
EndChar

StartChar: Dcroat
Encoding: 272 272 209
Width: 679
GlyphClass: 2
Flags: W
AnchorPoint: "Anchor-5" -46 0 basechar 0
AnchorPoint: "Anchor-4" -46 0 basechar 0
AnchorPoint: "Anchor-3" 288 723 basechar 0
AnchorPoint: "Anchor-2" -46 0 basechar 0
LayerCount: 2
Fore
SplineSet
577 633.5 m 128,-1,1
 655 546 655 546 630 367 c 0,2,3
 604 180 604 180 496 90 c 128,-1,4
 388 0 388 0 189 0 c 2,5,-1
 59 0 l 1,6,-1
 106 335 l 1,7,-1
 47 335 l 2,8,9
 34 335 34 335 36 347 c 2,10,-1
 40 380 l 2,11,12
 42 391 42 391 51 391 c 2,13,-1
 114 391 l 1,14,-1
 161 723 l 1,15,-1
 302 722 l 2,16,0
 499 721 499 721 577 633.5 c 128,-1,1
448.5 130 m 128,-1,18
 539 201 539 201 562 364 c 0,19,20
 578 477 578 477 551 543 c 128,-1,21
 524 609 524 609 458 637 c 128,-1,22
 392 665 392 665 286 665 c 2,23,-1
 219 665 l 1,24,-1
 181 391 l 1,25,-1
 349 391 l 2,26,27
 357 391 357 391 356 381 c 2,28,-1
 351 348 l 2,29,30
 349 335 349 335 334 335 c 2,31,-1
 173 335 l 1,32,-1
 134 59 l 1,33,-1
 196 59 l 2,34,17
 358 59 358 59 448.5 130 c 128,-1,18
EndSplineSet
EndChar

StartChar: dcroat
Encoding: 273 273 210
Width: 594
GlyphClass: 2
Flags: W
AnchorPoint: "Anchor-5" 551 691 basechar 0
AnchorPoint: "Anchor-4" 240 0 basechar 0
AnchorPoint: "Anchor-3" -46 0 basechar 0
AnchorPoint: "Anchor-2" -46 0 basechar 0
LayerCount: 2
Fore
SplineSet
607 604 m 1,0,-1
 530 604 l 1,1,-1
 445 0 l 1,2,-1
 393 0 l 1,3,-1
 401 76 l 1,4,5
 322 -10 322 -10 219 -10 c 0,6,7
 121 -10 121 -10 73.5 57.5 c 128,-1,8
 26 125 26 125 43 251 c 0,9,10
 61 377 61 377 129.5 452 c 128,-1,11
 198 527 198 527 301 527 c 0,12,13
 345 527 345 527 380 511 c 128,-1,14
 415 495 415 495 447 462 c 1,15,-1
 467 604 l 1,16,-1
 314 604 l 1,17,-1
 320 649 l 1,18,-1
 473 649 l 1,19,-1
 486 743 l 1,20,-1
 549 743 l 1,21,-1
 536 649 l 1,22,-1
 613 649 l 1,23,-1
 607 604 l 1,0,-1
438 395 m 1,24,25
 387 474 387 474 305 474 c 0,26,27
 228 474 228 474 175.5 417 c 128,-1,28
 123 360 123 360 108 255 c 0,29,30
 93 149 93 149 129.5 95.5 c 128,-1,31
 166 42 166 42 238 42 c 0,32,33
 279 42 279 42 316.5 62.5 c 128,-1,34
 354 83 354 83 378.5 114.5 c 128,-1,35
 403 146 403 146 407 177 c 2,36,-1
 438 395 l 1,24,25
EndSplineSet
EndChar

StartChar: Emacron
Encoding: 274 274 211
Width: 615
GlyphClass: 2
Flags: W
AnchorPoint: "Anchor-5" -46 0 basechar 0
AnchorPoint: "Anchor-4" 300 0 basechar 0
AnchorPoint: "Anchor-3" 284 723 basechar 0
AnchorPoint: "Anchor-2" 493 10 basechar 0
LayerCount: 2
Fore
SplineSet
157 723 m 1,0,-1
 591 723 l 1,1,-1
 582 664 l 1,2,-1
 212 664 l 1,3,-1
 175 395 l 1,4,-1
 514 395 l 1,5,-1
 505 336 l 1,6,-1
 166 336 l 1,7,-1
 128 61 l 1,8,-1
 509 60 l 1,9,-1
 501 0 l 1,10,-1
 55 0 l 1,11,-1
 157 723 l 1,0,-1
539 863 m 1,12,-1
 270 863 l 1,13,-1
 277 913 l 1,14,-1
 546 913 l 1,15,-1
 539 863 l 1,12,-1
EndSplineSet
EndChar

StartChar: emacron
Encoding: 275 275 212
Width: 554
GlyphClass: 2
Flags: W
AnchorPoint: "Anchor-5" -46 0 basechar 0
AnchorPoint: "Anchor-4" 230 0 basechar 0
AnchorPoint: "Anchor-3" 237 517 basechar 0
AnchorPoint: "Anchor-2" 335 19 basechar 0
LayerCount: 2
Fore
SplineSet
132 100 m 128,-1,1
 168 44 168 44 252 44 c 0,2,3
 360 44 360 44 405 130 c 1,4,-1
 461 117 l 1,5,6
 434 57 434 57 376 23.5 c 128,-1,7
 318 -10 318 -10 245 -10 c 0,8,9
 175 -10 175 -10 125 21.5 c 128,-1,10
 75 53 75 53 53.5 112.5 c 128,-1,11
 32 172 32 172 44 254 c 0,12,13
 62 380 62 380 132.5 453.5 c 128,-1,14
 203 527 203 527 311 527 c 0,15,16
 414 527 414 527 461.5 460 c 128,-1,17
 509 393 509 393 493 274 c 2,18,-1
 488 243 l 1,19,-1
 108 243 l 1,20,0
 96 156 96 156 132 100 c 128,-1,1
432 293 m 1,21,22
 443 374 443 374 411 424 c 128,-1,23
 379 474 379 474 303 474 c 0,24,25
 249 474 249 474 208.5 448 c 128,-1,26
 168 422 168 422 145 380.5 c 128,-1,27
 122 339 122 339 115 293 c 1,28,-1
 432 293 l 1,21,22
463 657 m 1,29,-1
 194 657 l 1,30,-1
 201 707 l 1,31,-1
 470 707 l 1,32,-1
 463 657 l 1,29,-1
EndSplineSet
EndChar

StartChar: Ebreve
Encoding: 276 276 213
Width: 615
GlyphClass: 2
Flags: W
AnchorPoint: "Anchor-5" -46 0 basechar 0
AnchorPoint: "Anchor-4" 300 0 basechar 0
AnchorPoint: "Anchor-3" 284 723 basechar 0
AnchorPoint: "Anchor-2" 493 10 basechar 0
LayerCount: 2
Fore
SplineSet
157 723 m 1,0,-1
 591 723 l 1,1,-1
 582 664 l 1,2,-1
 212 664 l 1,3,-1
 175 395 l 1,4,-1
 514 395 l 1,5,-1
 505 336 l 1,6,-1
 166 336 l 1,7,-1
 128 61 l 1,8,-1
 509 60 l 1,9,-1
 501 0 l 1,10,-1
 55 0 l 1,11,-1
 157 723 l 1,0,-1
497 861 m 128,-1,13
 456 831 456 831 401 831 c 0,14,15
 345 831 345 831 313.5 859.5 c 128,-1,16
 282 888 282 888 278 929 c 1,17,-1
 334 929 l 1,18,19
 345 907 345 907 360.5 893 c 128,-1,20
 376 879 376 879 408 879 c 0,21,22
 437 879 437 879 459 894 c 128,-1,23
 481 909 481 909 497 929 c 1,24,-1
 555 929 l 1,25,12
 538 891 538 891 497 861 c 128,-1,13
EndSplineSet
EndChar

StartChar: ebreve
Encoding: 277 277 214
Width: 554
GlyphClass: 2
Flags: W
AnchorPoint: "Anchor-5" -46 0 basechar 0
AnchorPoint: "Anchor-4" 230 0 basechar 0
AnchorPoint: "Anchor-3" 237 517 basechar 0
AnchorPoint: "Anchor-2" 335 19 basechar 0
LayerCount: 2
Fore
SplineSet
132 100 m 128,-1,1
 168 44 168 44 252 44 c 0,2,3
 360 44 360 44 405 130 c 1,4,-1
 461 117 l 1,5,6
 434 57 434 57 376 23.5 c 128,-1,7
 318 -10 318 -10 245 -10 c 0,8,9
 175 -10 175 -10 125 21.5 c 128,-1,10
 75 53 75 53 53.5 112.5 c 128,-1,11
 32 172 32 172 44 254 c 0,12,13
 62 380 62 380 132.5 453.5 c 128,-1,14
 203 527 203 527 311 527 c 0,15,16
 414 527 414 527 461.5 460 c 128,-1,17
 509 393 509 393 493 274 c 2,18,-1
 488 243 l 1,19,-1
 108 243 l 1,20,0
 96 156 96 156 132 100 c 128,-1,1
432 293 m 1,21,22
 443 374 443 374 411 424 c 128,-1,23
 379 474 379 474 303 474 c 0,24,25
 249 474 249 474 208.5 448 c 128,-1,26
 168 422 168 422 145 380.5 c 128,-1,27
 122 339 122 339 115 293 c 1,28,-1
 432 293 l 1,21,22
421 655 m 128,-1,30
 380 625 380 625 325 625 c 0,31,32
 269 625 269 625 237.5 653.5 c 128,-1,33
 206 682 206 682 202 723 c 1,34,-1
 258 723 l 1,35,36
 269 701 269 701 284.5 687 c 128,-1,37
 300 673 300 673 332 673 c 0,38,39
 361 673 361 673 383 688 c 128,-1,40
 405 703 405 703 421 723 c 1,41,-1
 479 723 l 1,42,29
 462 685 462 685 421 655 c 128,-1,30
EndSplineSet
EndChar

StartChar: Edotaccent
Encoding: 278 278 215
Width: 615
GlyphClass: 2
Flags: W
AnchorPoint: "Anchor-5" -46 0 basechar 0
AnchorPoint: "Anchor-4" 300 0 basechar 0
AnchorPoint: "Anchor-3" 284 723 basechar 0
AnchorPoint: "Anchor-2" 493 10 basechar 0
LayerCount: 2
Fore
SplineSet
157 723 m 1,0,-1
 591 723 l 1,1,-1
 582 664 l 1,2,-1
 212 664 l 1,3,-1
 175 395 l 1,4,-1
 514 395 l 1,5,-1
 505 336 l 1,6,-1
 166 336 l 1,7,-1
 128 61 l 1,8,-1
 509 60 l 1,9,-1
 501 0 l 1,10,-1
 55 0 l 1,11,-1
 157 723 l 1,0,-1
436 823 m 1,12,-1
 365 823 l 1,13,-1
 380 929 l 1,14,-1
 451 929 l 1,15,-1
 436 823 l 1,12,-1
EndSplineSet
EndChar

StartChar: edotaccent
Encoding: 279 279 216
Width: 554
GlyphClass: 2
Flags: W
AnchorPoint: "Anchor-5" -46 0 basechar 0
AnchorPoint: "Anchor-4" 230 0 basechar 0
AnchorPoint: "Anchor-3" 237 517 basechar 0
AnchorPoint: "Anchor-2" 335 19 basechar 0
LayerCount: 2
Fore
SplineSet
132 100 m 128,-1,1
 168 44 168 44 252 44 c 0,2,3
 360 44 360 44 405 130 c 1,4,-1
 461 117 l 1,5,6
 434 57 434 57 376 23.5 c 128,-1,7
 318 -10 318 -10 245 -10 c 0,8,9
 175 -10 175 -10 125 21.5 c 128,-1,10
 75 53 75 53 53.5 112.5 c 128,-1,11
 32 172 32 172 44 254 c 0,12,13
 62 380 62 380 132.5 453.5 c 128,-1,14
 203 527 203 527 311 527 c 0,15,16
 414 527 414 527 461.5 460 c 128,-1,17
 509 393 509 393 493 274 c 2,18,-1
 488 243 l 1,19,-1
 108 243 l 1,20,0
 96 156 96 156 132 100 c 128,-1,1
432 293 m 1,21,22
 443 374 443 374 411 424 c 128,-1,23
 379 474 379 474 303 474 c 0,24,25
 249 474 249 474 208.5 448 c 128,-1,26
 168 422 168 422 145 380.5 c 128,-1,27
 122 339 122 339 115 293 c 1,28,-1
 432 293 l 1,21,22
360 617 m 1,29,-1
 289 617 l 1,30,-1
 304 723 l 1,31,-1
 375 723 l 1,32,-1
 360 617 l 1,29,-1
EndSplineSet
EndChar

StartChar: Eogonek
Encoding: 280 280 217
Width: 615
GlyphClass: 2
Flags: W
AnchorPoint: "Anchor-5" -46 0 basechar 0
AnchorPoint: "Anchor-4" 300 0 basechar 0
AnchorPoint: "Anchor-3" 284 723 basechar 0
AnchorPoint: "Anchor-2" 493 10 basechar 0
LayerCount: 2
Fore
SplineSet
157 723 m 1,0,-1
 591 723 l 1,1,-1
 582 664 l 1,2,-1
 212 664 l 1,3,-1
 175 395 l 1,4,-1
 514 395 l 1,5,-1
 505 336 l 1,6,-1
 166 336 l 1,7,-1
 128 61 l 1,8,-1
 509 60 l 1,9,-1
 501 0 l 1,10,-1
 55 0 l 1,11,-1
 157 723 l 1,0,-1
366 -33 m 128,-1,13
 393 -9 393 -9 453 8 c 1,14,-1
 501 1 l 1,15,16
 447 -22 447 -22 421.5 -42 c 128,-1,17
 396 -62 396 -62 392 -87 c 0,18,19
 389 -107 389 -107 400.5 -116.5 c 128,-1,20
 412 -126 412 -126 439 -126 c 0,21,22
 459 -126 459 -126 476.5 -122 c 128,-1,23
 494 -118 494 -118 502 -113 c 0,24,25
 507 -111 507 -111 509 -112 c 128,-1,26
 511 -113 511 -113 511 -118 c 2,27,-1
 507 -142 l 2,28,29
 506 -149 506 -149 500 -151 c 0,30,31
 487 -157 487 -157 464 -162 c 128,-1,32
 441 -167 441 -167 418 -167 c 0,33,34
 371 -167 371 -167 350.5 -146.5 c 128,-1,35
 330 -126 330 -126 335 -90 c 0,36,12
 339 -57 339 -57 366 -33 c 128,-1,13
EndSplineSet
EndChar

StartChar: eogonek
Encoding: 281 281 218
Width: 554
GlyphClass: 2
Flags: W
AnchorPoint: "Anchor-5" -46 0 basechar 0
AnchorPoint: "Anchor-4" 230 0 basechar 0
AnchorPoint: "Anchor-3" 237 517 basechar 0
AnchorPoint: "Anchor-2" 335 19 basechar 0
LayerCount: 2
Fore
SplineSet
132 100 m 128,-1,1
 168 44 168 44 252 44 c 0,2,3
 360 44 360 44 405 130 c 1,4,-1
 461 117 l 1,5,6
 434 57 434 57 376 23.5 c 128,-1,7
 318 -10 318 -10 245 -10 c 0,8,9
 175 -10 175 -10 125 21.5 c 128,-1,10
 75 53 75 53 53.5 112.5 c 128,-1,11
 32 172 32 172 44 254 c 0,12,13
 62 380 62 380 132.5 453.5 c 128,-1,14
 203 527 203 527 311 527 c 0,15,16
 414 527 414 527 461.5 460 c 128,-1,17
 509 393 509 393 493 274 c 2,18,-1
 488 243 l 1,19,-1
 108 243 l 1,20,0
 96 156 96 156 132 100 c 128,-1,1
432 293 m 1,21,22
 443 374 443 374 411 424 c 128,-1,23
 379 474 379 474 303 474 c 0,24,25
 249 474 249 474 208.5 448 c 128,-1,26
 168 422 168 422 145 380.5 c 128,-1,27
 122 339 122 339 115 293 c 1,28,-1
 432 293 l 1,21,22
209 -24 m 128,-1,30
 236 0 236 0 296 17 c 1,31,-1
 344 10 l 1,32,33
 290 -13 290 -13 264.5 -33 c 128,-1,34
 239 -53 239 -53 235 -78 c 0,35,36
 232 -98 232 -98 243.5 -107.5 c 128,-1,37
 255 -117 255 -117 282 -117 c 0,38,39
 302 -117 302 -117 319.5 -113 c 128,-1,40
 337 -109 337 -109 345 -104 c 0,41,42
 350 -102 350 -102 352 -103 c 128,-1,43
 354 -104 354 -104 354 -109 c 2,44,-1
 350 -133 l 2,45,46
 349 -140 349 -140 343 -142 c 0,47,48
 330 -148 330 -148 307 -153 c 128,-1,49
 284 -158 284 -158 261 -158 c 0,50,51
 214 -158 214 -158 193.5 -137.5 c 128,-1,52
 173 -117 173 -117 178 -81 c 0,53,29
 182 -48 182 -48 209 -24 c 128,-1,30
EndSplineSet
EndChar

StartChar: Ecaron
Encoding: 282 282 219
Width: 615
GlyphClass: 2
Flags: W
AnchorPoint: "Anchor-5" -46 0 basechar 0
AnchorPoint: "Anchor-4" 300 0 basechar 0
AnchorPoint: "Anchor-3" 284 723 basechar 0
AnchorPoint: "Anchor-2" 493 10 basechar 0
LayerCount: 2
Fore
SplineSet
157 723 m 1,0,-1
 591 723 l 1,1,-1
 582 664 l 1,2,-1
 212 664 l 1,3,-1
 175 395 l 1,4,-1
 514 395 l 1,5,-1
 505 336 l 1,6,-1
 166 336 l 1,7,-1
 128 61 l 1,8,-1
 509 60 l 1,9,-1
 501 0 l 1,10,-1
 55 0 l 1,11,-1
 157 723 l 1,0,-1
559 929 m 1,12,-1
 425 825 l 1,13,-1
 377 825 l 1,14,-1
 269 929 l 1,15,-1
 338 929 l 1,16,-1
 406 866 l 1,17,-1
 487 929 l 1,18,-1
 559 929 l 1,12,-1
EndSplineSet
EndChar

StartChar: ecaron
Encoding: 283 283 220
Width: 554
GlyphClass: 2
Flags: W
AnchorPoint: "Anchor-5" -46 0 basechar 0
AnchorPoint: "Anchor-4" 230 0 basechar 0
AnchorPoint: "Anchor-3" 237 517 basechar 0
AnchorPoint: "Anchor-2" 335 19 basechar 0
LayerCount: 2
Fore
SplineSet
132 100 m 128,-1,1
 168 44 168 44 252 44 c 0,2,3
 360 44 360 44 405 130 c 1,4,-1
 461 117 l 1,5,6
 434 57 434 57 376 23.5 c 128,-1,7
 318 -10 318 -10 245 -10 c 0,8,9
 175 -10 175 -10 125 21.5 c 128,-1,10
 75 53 75 53 53.5 112.5 c 128,-1,11
 32 172 32 172 44 254 c 0,12,13
 62 380 62 380 132.5 453.5 c 128,-1,14
 203 527 203 527 311 527 c 0,15,16
 414 527 414 527 461.5 460 c 128,-1,17
 509 393 509 393 493 274 c 2,18,-1
 488 243 l 1,19,-1
 108 243 l 1,20,0
 96 156 96 156 132 100 c 128,-1,1
432 293 m 1,21,22
 443 374 443 374 411 424 c 128,-1,23
 379 474 379 474 303 474 c 0,24,25
 249 474 249 474 208.5 448 c 128,-1,26
 168 422 168 422 145 380.5 c 128,-1,27
 122 339 122 339 115 293 c 1,28,-1
 432 293 l 1,21,22
483 723 m 1,29,-1
 349 619 l 1,30,-1
 301 619 l 1,31,-1
 193 723 l 1,32,-1
 262 723 l 1,33,-1
 330 660 l 1,34,-1
 411 723 l 1,35,-1
 483 723 l 1,29,-1
EndSplineSet
EndChar

StartChar: Gcircumflex
Encoding: 284 284 221
Width: 715
GlyphClass: 2
Flags: W
AnchorPoint: "Anchor-5" -46 0 basechar 0
AnchorPoint: "Anchor-4" 312 0 basechar 0
AnchorPoint: "Anchor-3" 308 723 basechar 0
AnchorPoint: "Anchor-2" -46 0 basechar 0
LayerCount: 2
Fore
SplineSet
153 34 m 128,-1,1
 92 78 92 78 68 161 c 128,-1,2
 44 244 44 244 60 359 c 0,3,4
 76 476 76 476 125.5 560.5 c 128,-1,5
 175 645 175 645 248 689 c 128,-1,6
 321 733 321 733 412 733 c 0,7,8
 477 733 477 733 530.5 705 c 128,-1,9
 584 677 584 677 614.5 629.5 c 128,-1,10
 645 582 645 582 642 527 c 1,11,-1
 571 520 l 1,12,13
 569 586 569 586 522.5 629.5 c 128,-1,14
 476 673 476 673 404 673 c 0,15,16
 295 673 295 673 222.5 592.5 c 128,-1,17
 150 512 150 512 129 365 c 0,18,19
 107 210 107 210 157 129.5 c 128,-1,20
 207 49 207 49 317 49 c 0,21,22
 382 49 382 49 432 79.5 c 128,-1,23
 482 110 482 110 512 155.5 c 128,-1,24
 542 201 542 201 550 246 c 2,25,-1
 562 321 l 1,26,-1
 372 321 l 1,27,-1
 379 371 l 1,28,-1
 634 370 l 1,29,-1
 582 0 l 1,30,-1
 529 0 l 1,31,-1
 546 119 l 1,32,33
 506 61 506 61 445.5 25.5 c 128,-1,34
 385 -10 385 -10 306 -10 c 0,35,0
 214 -10 214 -10 153 34 c 128,-1,1
433 890 m 1,36,-1
 347 827 l 1,37,-1
 279 827 l 1,38,-1
 416 931 l 1,39,-1
 464 931 l 1,40,-1
 568 827 l 1,41,-1
 496 827 l 1,42,-1
 433 890 l 1,36,-1
EndSplineSet
EndChar

StartChar: gcircumflex
Encoding: 285 285 222
Width: 591
GlyphClass: 2
Flags: W
AnchorPoint: "Anchor-5" -46 0 basechar 0
AnchorPoint: "Anchor-4" -46 0 basechar 0
AnchorPoint: "Anchor-3" 245 517 basechar 0
AnchorPoint: "Anchor-2" -46 0 basechar 0
LayerCount: 2
Fore
SplineSet
39 -133.5 m 128,-1,1
 -19 -96 -19 -96 -10 -30 c 0,2,3
 -4 11 -4 11 24.5 37 c 128,-1,4
 53 63 53 63 75 75 c 128,-1,5
 97 87 97 87 103 90 c 1,6,7
 99 93 99 93 86 101 c 128,-1,8
 73 109 73 109 67 121 c 128,-1,9
 61 133 61 133 63 149 c 0,10,11
 66 172 66 172 91 191 c 128,-1,12
 116 210 116 210 157 220 c 1,13,14
 111 246 111 246 94 279 c 128,-1,15
 77 312 77 312 84 361 c 0,16,17
 95 438 95 438 159 481.5 c 128,-1,18
 223 525 223 525 322 525 c 0,19,20
 369 525 369 525 402.5 513.5 c 128,-1,21
 436 502 436 502 462 478 c 1,22,-1
 590 529 l 1,23,-1
 580 458 l 1,24,-1
 487 440 l 1,25,26
 493 424 493 424 495.5 401 c 128,-1,27
 498 378 498 378 496 361 c 0,28,29
 486 291 486 291 427.5 246 c 128,-1,30
 369 201 369 201 268 201 c 1,31,-1
 248 202 l 1,32,33
 187 201 187 201 158 189 c 128,-1,34
 129 177 129 177 126 160 c 0,35,36
 124 145 124 145 145 138 c 128,-1,37
 166 131 166 131 226 127 c 2,38,-1
 340 120 l 2,39,40
 497 110 497 110 479 -16 c 0,41,42
 469 -89 469 -89 399.5 -130 c 128,-1,43
 330 -171 330 -171 215 -171 c 0,44,0
 97 -171 97 -171 39 -133.5 c 128,-1,1
387 277.5 m 128,-1,46
 427 306 427 306 435 361 c 0,47,48
 443 418 443 418 410.5 448.5 c 128,-1,49
 378 479 378 479 309 479 c 128,-1,50
 240 479 240 479 198 448 c 128,-1,51
 156 417 156 417 148 361 c 0,52,53
 140 306 140 306 173.5 277.5 c 128,-1,54
 207 249 207 249 277 249 c 128,-1,45
 347 249 347 249 387 277.5 c 128,-1,46
415 -22 m 0,55,56
 420 16 420 16 399 37 c 128,-1,57
 378 58 378 58 324 62 c 2,58,-1
 165 72 l 2,59,60
 147 73 147 73 122.5 60.5 c 128,-1,61
 98 48 98 48 78.5 26 c 128,-1,62
 59 4 59 4 55 -23 c 0,63,64
 48 -72 48 -72 94.5 -98 c 128,-1,65
 141 -124 141 -124 234 -124 c 0,66,67
 401 -124 401 -124 415 -22 c 0,55,56
341 684 m 1,68,-1
 255 621 l 1,69,-1
 187 621 l 1,70,-1
 324 725 l 1,71,-1
 372 725 l 1,72,-1
 476 621 l 1,73,-1
 404 621 l 1,74,-1
 341 684 l 1,68,-1
EndSplineSet
EndChar

StartChar: Gbreve
Encoding: 286 286 223
Width: 715
GlyphClass: 2
Flags: W
AnchorPoint: "Anchor-5" -46 0 basechar 0
AnchorPoint: "Anchor-4" 312 0 basechar 0
AnchorPoint: "Anchor-3" 308 723 basechar 0
AnchorPoint: "Anchor-2" -46 0 basechar 0
LayerCount: 2
Fore
SplineSet
153 34 m 128,-1,1
 92 78 92 78 68 161 c 128,-1,2
 44 244 44 244 60 359 c 0,3,4
 76 476 76 476 125.5 560.5 c 128,-1,5
 175 645 175 645 248 689 c 128,-1,6
 321 733 321 733 412 733 c 0,7,8
 477 733 477 733 530.5 705 c 128,-1,9
 584 677 584 677 614.5 629.5 c 128,-1,10
 645 582 645 582 642 527 c 1,11,-1
 571 520 l 1,12,13
 569 586 569 586 522.5 629.5 c 128,-1,14
 476 673 476 673 404 673 c 0,15,16
 295 673 295 673 222.5 592.5 c 128,-1,17
 150 512 150 512 129 365 c 0,18,19
 107 210 107 210 157 129.5 c 128,-1,20
 207 49 207 49 317 49 c 0,21,22
 382 49 382 49 432 79.5 c 128,-1,23
 482 110 482 110 512 155.5 c 128,-1,24
 542 201 542 201 550 246 c 2,25,-1
 562 321 l 1,26,-1
 372 321 l 1,27,-1
 379 371 l 1,28,-1
 634 370 l 1,29,-1
 582 0 l 1,30,-1
 529 0 l 1,31,-1
 546 119 l 1,32,33
 506 61 506 61 445.5 25.5 c 128,-1,34
 385 -10 385 -10 306 -10 c 0,35,0
 214 -10 214 -10 153 34 c 128,-1,1
521 861 m 128,-1,37
 480 831 480 831 425 831 c 0,38,39
 369 831 369 831 337.5 859.5 c 128,-1,40
 306 888 306 888 302 929 c 1,41,-1
 358 929 l 1,42,43
 369 907 369 907 384.5 893 c 128,-1,44
 400 879 400 879 432 879 c 0,45,46
 461 879 461 879 483 894 c 128,-1,47
 505 909 505 909 521 929 c 1,48,-1
 579 929 l 1,49,36
 562 891 562 891 521 861 c 128,-1,37
EndSplineSet
EndChar

